<svg width="25" height="26" viewBox="0 0 25 26" fill="none" xmlns="http://www.w3.org/2000/svg">
	<path d="M11.8559 10.6981L12.5526 11.4156L13.2492 10.6981L21.725 1.96917C21.7354 1.96301 21.7647 1.94657 21.8188 1.92756C21.9128 1.89454 22.0424 1.86848 22.192 1.86947C22.4791 1.87137 22.8247 1.97084 23.1467 2.30247C23.4687 2.63412 23.5654 2.99005 23.5672 3.28577C23.5682 3.43983 23.5429 3.57327 23.5109 3.67003C23.4924 3.72567 23.4765 3.75583 23.4705 3.76657L14.9946 12.4956L14.298 13.213L14.9946 13.9305L23.431 22.6188C23.4371 22.63 23.4521 22.6592 23.4693 22.7119C23.5007 22.8076 23.5254 22.9404 23.5237 23.0945C23.5206 23.3903 23.4222 23.7495 23.0957 24.0857C22.7692 24.422 22.4205 24.5233 22.1333 24.5265C21.9837 24.5282 21.8547 24.5028 21.7617 24.4705C21.7106 24.4527 21.6822 24.4373 21.6714 24.431L17.4635 20.0975L13.235 15.7427L12.5383 15.0252L11.8417 15.7427L3.36583 24.4717C3.3554 24.4779 3.32611 24.4943 3.27209 24.5133C3.17813 24.5463 3.04855 24.5723 2.89895 24.5713C2.61177 24.5694 2.26617 24.4698 1.94418 24.1382C1.62219 23.8066 1.52558 23.4507 1.52371 23.155C1.52274 23.001 1.54803 22.8675 1.58008 22.7708C1.5985 22.7152 1.61444 22.685 1.62042 22.6743L10.0963 13.9453L10.7929 13.2278L10.0963 12.5104L1.65992 3.82202C1.65382 3.81086 1.63884 3.78163 1.62159 3.72893C1.59026 3.63322 1.56555 3.50039 1.56721 3.3463C1.57038 3.05054 1.66873 2.69134 1.99521 2.35511C2.3217 2.01887 2.67048 1.91758 2.95765 1.91431C3.10727 1.9126 3.23624 1.93805 3.32916 1.97031C3.38034 1.98808 3.40873 2.00351 3.41957 2.00979L11.8559 10.6981Z" fill="white" stroke="#596160" stroke-width="2" />
</svg>
