<svg width="64" height="64" viewBox="0 0 64 64" fill="none" xmlns="http://www.w3.org/2000/svg">
	<path d="M32 64C49.6253 64 64 49.6246 64 32C64 14.3748 49.6253 0 32 0C14.3748 0 0 14.3754 0 32C0 49.6246 14.3754 64 32 64Z" fill="#2D090B" />
	<path d="M32 15.9555C47.642 15.9555 60.3211 28.6351 60.3211 44.2766C60.3211 45.2588 60.2709 46.2286 60.1739 47.1848C54.7659 57.1971 44.178 64 32 64C19.822 64 9.23464 57.1978 3.82664 47.1854C3.72902 46.2293 3.67889 45.2588 3.67889 44.2768C3.67889 28.6346 16.3591 15.9555 32 15.9555Z" fill="#097887" />
	<path d="M49.6945 22.1644C54.961 26.3843 58.6879 32.4446 59.8974 39.3721C59.8119 39.2411 59.7247 39.069 59.637 38.8139C59.0839 38.9951 59.066 39.0101 58.413 39.1188L58.3841 39.1586C58.1244 39.5288 58.3974 39.3723 57.9407 39.7579C57.3975 40.2151 57.0435 40.8393 56.4361 41.2094C56.3627 41.856 56.4899 42.0015 56.327 42.7705C56.2635 43.054 55.946 43.8161 55.5741 43.7584C55.4564 43.7364 54.9575 42.5021 54.8397 42.1609C54.64 41.5801 54.4136 41.1516 54.2687 40.4836C54.1874 40.1274 54.1325 39.445 54.0511 39.2054C53.6614 39.2631 53.6787 39.5108 53.3069 39.2493C53.0441 39.0599 53.1625 38.9444 53.0165 38.6609C52.7087 38.3705 52.3912 38.0801 52.0742 37.7896C51.8289 37.71 50.8861 37.8474 50.4865 37.804C49.7706 37.7381 49.7076 37.782 49.2816 37.2088C48.5282 37.2458 48.5922 37.528 47.8572 36.8964C47.3769 36.4899 47.4675 35.8364 46.7695 36.2065C46.743 36.8018 47.0327 36.9334 47.2955 37.2088C47.4855 37.4195 47.7216 37.5644 47.8209 37.8473C47.8301 37.8554 47.8757 38.1233 47.885 38.1596C48.5651 38.2035 48.7279 37.8773 49.0997 37.6014C49.4629 37.942 49.109 38.0009 49.635 38.2688C50.0519 38.48 49.9705 38.3565 50.2417 38.6971C50.378 39.1544 49.3087 40.3963 48.9542 40.6214C48.6824 40.7958 48.538 40.6941 48.2926 40.8963C47.93 41.2023 48.3382 41.1584 47.7037 41.3905C47.0236 41.6376 46.3521 42.1601 45.6362 42.204C45.4821 41.782 45.328 41.3548 45.1737 40.9264C44.72 39.4669 44.7384 40.0333 44.2754 39.278C44.0577 38.9506 44.1484 38.7405 44.0035 38.4501C43.903 38.2325 43.75 38.1378 43.6132 37.8699C43.4049 37.4559 43.1606 36.8099 42.6796 36.8751C42.5798 37.2014 43.1236 38.3053 43.2592 38.5736C43.3955 38.8426 43.6131 38.9588 43.6766 39.3438C43.7672 39.8731 43.6587 39.8074 43.9485 40.163C44.5565 40.8956 43.9214 40.7658 44.8647 41.484C45.5714 42.0221 45.3907 42.1814 45.6897 42.9008C46.1522 43.0306 47.5304 42.4146 47.7652 42.5959C48.0464 43.0964 47.4396 43.8949 47.2855 44.3308C46.7774 45.7903 45.8889 45.7689 45.2087 46.8866C44.8375 47.49 44.6649 47.5696 44.3202 48.2959C43.93 49.1163 45.1089 51.3888 44.4022 52.3408C44.2481 52.5579 43.7492 52.6889 43.124 53.35C42.4618 54.0683 43.1419 53.9453 42.8879 55.1426C42.6887 55.4186 42.4439 55.433 42.1991 55.6299C42.1085 55.9123 42.1812 56.1368 42.0265 56.4861C41.8631 56.907 41.8365 56.6819 41.5999 57.0236C41.4279 57.2915 41.4462 57.4006 41.2465 57.6478C41.0745 57.8735 40.9832 57.9376 40.821 58.0836C40.0317 58.8099 38.3361 58.8313 38.1912 58.7296C37.7917 58.389 38.0642 58.3018 37.9649 57.8226C37.8679 57.4011 37.6445 57.0484 37.458 56.7234L37.439 56.6899C37.3489 56.5305 37.267 56.3775 37.2214 56.232C36.8946 55.2009 37.013 54.418 36.442 53.3719C35.7255 52.0209 36.8404 51.3171 36.7947 50.5544C36.7769 50.3511 36.7046 50.2276 36.6856 50.0676C36.55 49.2253 36.4691 48.4706 35.9067 47.8096C35.2896 47.0914 35.3715 47.3449 35.5707 46.1619C35.8242 44.804 35.2445 45.1521 34.4281 45.1163C34.0286 43.8825 33.2486 44.484 32.4692 44.8478C31.9791 45.0724 31.7984 44.7825 31.2447 44.8621C30.0115 45.029 30.982 45.5595 29.3314 44.2525C28.642 43.7075 29.1045 43.9835 28.6969 43.301C28.5613 43.0539 28.1437 42.7278 27.9526 42.48C27.3274 41.696 28.071 40.9044 27.9619 40.0044C27.7714 38.3341 27.4994 39.7861 28.4336 37.7678C28.9237 36.6933 29.6669 36.6864 29.858 36.2066C30.0214 35.7788 29.9123 35.4734 30.2206 35.0814C30.4925 34.7621 30.8829 34.8274 31.037 34.3263C31.2546 33.7091 30.8373 33.63 30.384 33.6144C30.194 32.9684 30.194 33.1276 30.3384 32.5324C30.4204 32.1981 30.3476 32.0381 30.4204 31.7045C30.6016 30.8696 32.0254 31.6976 32.4336 31.3558C32.6236 31.0001 32.6512 30.652 32.4336 30.3101C32.2061 29.9689 31.9076 30.0123 31.7535 29.686C32.0981 29.4539 31.8441 29.6571 32.1432 29.5914C32.4966 29.5118 32.451 29.4095 32.8684 29.3304C33.2407 29.257 33.4769 28.9164 33.8389 28.6844C34.3556 28.3501 34.1107 28.0516 34.7366 27.9511C35.743 27.7763 35.09 27.8056 35.1996 26.8686C35.3532 26.8109 35.4981 26.7445 35.643 26.6799C35.9605 27.0939 35.5616 26.927 35.9421 27.2024C36.042 27.1446 36.1597 27.0869 36.2689 27.0291C36.214 26.5783 36.0061 26.6654 35.8699 26.1071C35.371 26.1868 35.1897 26.6076 34.7909 26.4553C34.4011 26.3104 34.3827 25.7509 34.4011 25.2861C34.546 24.938 35.2711 24.7493 35.5517 24.6615C36.0061 24.5091 35.942 24.2043 36.3589 23.7898C36.9032 23.2454 36.5037 23.7973 36.767 23.0935C37.3657 23.071 37.0845 23.0496 37.4379 22.8684L37.4557 22.8615L37.4921 22.8465C37.7011 22.7519 37.973 22.7305 38.245 22.6364C39.2421 22.3026 39.6502 22.4695 40.3754 22.7663C40.9377 22.9989 42.6334 23.0059 42.7604 23.7183C42.3527 24.1455 41.963 23.8338 41.373 23.8706C41.4815 24.422 41.5266 24.422 42.026 24.5744C42.108 24.3129 41.9896 24.415 42.1259 24.2476C42.2892 24.284 42.4526 24.3129 42.6155 24.3429C42.7795 23.7834 42.9694 23.8636 43.5231 23.7979C43.4319 23.4128 43.332 23.5219 43.5405 23.2171C44.1126 23.276 43.6496 23.2253 43.9307 23.6825C44.3298 23.6311 44.72 23.1883 45.2725 23.1305C45.6171 23.0941 45.5992 23.2251 46.0882 23.1738C46.4872 23.1305 46.4687 22.985 46.8689 23.1524C47.0132 22.8834 46.8689 22.8903 47.2222 22.8256C47.7655 22.731 48.2377 23.0646 48.7632 23.138C48.3741 22.6594 48.0017 22.7529 48.4826 21.9545C49.09 21.831 49.1442 21.9181 49.4075 22.376C49.5565 22.2923 49.62 22.208 49.6939 22.1653L49.6945 22.1644ZM19.195 61.3326C18.2516 60.9204 17.3325 60.4638 16.4394 59.966C16.4284 59.929 16.4186 59.8886 16.4099 59.8419C16.2743 59.0354 16.6189 58.9481 16.2372 57.6046C15.9872 56.7161 16.0878 54.6111 15.8232 53.532C15.7811 53.36 15.7291 53.2139 15.6663 53.1025C15.4215 52.6966 14.8228 52.5079 14.343 52.1805C14.3153 52.1741 14.2974 52.1661 14.2887 52.1516C13.6265 51.6869 13.0007 49.8641 12.4747 49.1824C12.2305 48.855 12.0764 48.9999 11.9673 48.485C11.8495 48.0133 12.0308 48.0935 12.1855 47.7004C11.3784 46.2195 13.2281 46.2409 12.8477 44.462C12.7657 44.1353 12.5308 43.678 12.331 43.5336C11.95 43.7005 12.1306 43.794 11.9315 44.1139C11.6238 43.9395 11.3155 43.7646 11.0164 43.5914C10.0823 42.6908 10.5805 43.3438 10.3184 42.756C9.756 41.5216 9.22025 42.2121 8.54938 41.6019C8.24975 41.3473 8.1955 40.9478 7.69725 41.0211C6.94438 41.1228 7.36125 41.2388 6.58188 40.875C5.91963 40.5626 5.23088 40.2001 4.76788 39.7786C4.75 39.1251 4.98613 39.0956 4.57788 38.4865C4.50575 38.3734 4.42425 38.2683 4.34175 38.1678C5.61763 32.3625 8.673 27.2253 12.9084 23.3571C13.2375 23.472 13.6728 23.3964 13.9995 23.3831C14.1168 23.1655 14.1895 22.9761 14.3985 22.8964C14.4799 22.8675 14.5798 22.8606 14.7155 22.8675C14.7334 22.9755 14.7611 23.0851 14.7882 23.1938C14.7882 23.2019 14.8068 23.274 14.7975 23.2596C14.8068 23.2446 14.8154 23.3029 14.824 23.3243C15.3961 22.9905 14.9152 22.983 15.223 22.3803C14.7426 22.2856 14.8061 22.3433 14.5065 22.0385C14.7975 21.7193 15.3586 21.6101 15.7761 21.6395C15.7484 21.9305 15.6128 21.923 15.7224 22.1695C16.0486 21.9663 16.2755 21.4224 16.8009 21.5235C16.9008 21.5956 17.0191 21.6615 17.1276 21.7268C16.8551 21.9808 16.4475 21.9958 16.0941 22.1408C15.9394 23.7169 16.593 22.3954 16.3748 23.4773C16.7645 23.4484 17.1455 23.1649 17.2904 22.8745C17.1455 22.6858 16.9365 22.6858 16.8193 22.4605C16.9105 22.1701 17.1056 21.9501 17.3816 21.8191C17.5681 21.7308 17.791 21.6835 18.0439 21.6835C20.9271 21.7055 19.5576 21.8359 20.4467 22.243C20.6459 22.3296 20.9993 22.374 21.1176 22.5479C21.2989 22.8239 21.1269 23.0848 21.4167 23.303C21.6708 23.4918 21.7071 23.2955 22.0426 23.7175C21.9705 23.9565 21.7979 24.2036 21.4445 24.2111C20.9549 24.218 21.2447 23.8838 20.7187 23.9351C20.7286 24.4281 21.2176 24.6175 20.7638 24.886C20.3648 25.1261 20.6182 24.7994 20.3197 24.9663C20.3105 24.9738 20.2834 24.9883 20.2747 24.9958C20.2569 25.0101 20.2384 25.0321 20.2291 25.0465C20.1754 25.1048 20.1292 25.1556 20.0847 25.207C19.3596 25.0101 19.4959 25.0979 19.06 24.6186C18.8972 24.4374 18.87 24.3935 18.5796 24.4154C18.3984 24.4223 18.1628 24.502 17.9901 24.3426C18.344 23.8998 18.5166 24.3283 19.0334 24.0661C19.124 24.0223 19.695 23.58 19.7862 23.4778C19.6321 23.129 19.7677 23.4189 19.542 23.1943C19.0339 22.6793 18.8879 22.8091 18.2003 22.8091C17.8775 23.1804 17.6361 23.6394 17.2846 23.8409C17.0721 23.9628 16.8199 23.9904 16.4861 23.8478C16.6403 24.4725 17.0393 23.9933 17.075 24.7479C16.8123 24.6971 16.676 24.566 16.4041 24.6608C15.8234 24.8784 16.3406 24.8565 16.3856 24.9731C16.3856 24.9806 16.6575 25.0095 16.3856 25.1111C16.086 25.2196 16.34 25.0529 15.7604 24.7116C15.8418 24.5668 15.9237 24.4143 16.0051 24.2619C15.534 24.4074 14.944 24.6395 14.3915 24.9079C13.7651 25.2203 13.1761 25.5765 12.8223 25.9026C12.813 26.4476 12.9129 26.0839 12.9677 26.7311C13.8106 26.7814 13.5388 27.0348 14.3822 27.275C14.5445 27.3195 14.754 27.3628 15.0081 27.406C15.0081 27.813 14.645 28.1179 14.8984 28.5394C15.4879 28.9521 15.5057 28.1468 15.6512 27.6318C17.6471 27.2149 16.6852 26.6284 17.2009 25.5303C17.2782 25.3663 17.3879 25.1914 17.5461 25.0025C17.6998 25.01 18.3255 25.0759 18.4618 25.1041C18.9155 25.1838 18.6708 25.2929 19.1604 25.5106C19.1511 25.9033 18.952 26.4113 19.5321 26.3171C19.9766 26.238 19.8774 25.8888 20.4206 25.8015C20.6649 26.3754 20.6019 26.6225 20.7105 27.3119C22.0165 27.8205 21.4356 28.2339 21.1816 29.186C21.3456 29.2656 21.5171 29.3384 21.6897 29.4106C21.6811 29.6866 21.6712 29.9556 21.6626 30.2246C21.6355 30.2246 20.2655 29.9261 20.1754 29.8979C20.3838 29.302 20.7649 29.2951 21.0096 28.6855C20.52 28.7721 20.5559 28.9245 20.2025 29.0336C19.8855 29.1283 19.6407 29.0625 19.3053 29.1064C19.1875 29.4979 19.296 28.7646 19.333 29.2651C19.3509 29.4545 19.4421 29.2733 19.3145 29.4759C18.8608 29.2651 19.0154 28.7715 18.1719 29.2288C18.3624 29.3159 18.5524 29.3956 18.7521 29.4759C18.7256 30.0341 18.68 29.6133 18.5621 29.984C18.2717 30.9349 19.3507 30.3466 19.632 30.2964C19.5592 30.7975 19.251 30.7975 18.8156 30.9349C18.3359 31.0804 18.1904 31.2766 17.8092 31.3639C17.8092 30.768 17.7191 31.2693 17.9813 30.8558C17.6003 30.8915 17.319 31.0659 16.9565 31.2189L16.9207 31.2328C16.4549 31.4228 16.3844 31.451 16.3307 32.0463C15.9317 32.1693 15.4694 32.3084 15.1881 32.5988C14.9075 32.8673 14.6257 33.1351 14.3532 33.3966C14.3267 33.4186 14.3076 33.4405 14.2909 33.455C14.3908 34.2026 14.2909 34.2171 13.8365 34.5086C13.456 34.7546 13.329 34.7476 12.9756 35.06C11.8423 36.0768 12.3868 35.6039 12.4491 37.3544C12.2136 37.2823 11.9873 37.202 11.7696 37.1223C11.597 35.96 11.8325 36.3458 10.899 36.0766C9.89213 35.7863 10.0278 36.2799 9.611 36.367C9.1485 36.468 8.92163 35.9455 8.25075 36.3814C7.8795 36.6349 7.52563 36.8023 7.435 37.252C7.3265 37.797 7.08163 38.1954 7.1175 38.7988C7.18163 40.4333 8.66825 40.5268 9.04925 39.7646C9.30275 39.2565 9.23975 38.9806 10.0648 39.1111C10.1461 39.547 10.0191 39.8663 9.91 40.2006C9.83788 40.3964 9.63813 40.752 9.738 41.0216C10.3275 41.2613 10.3454 40.8104 11.1254 41.2751C11.1803 42.0516 10.772 42.9229 11.3701 43.3733C11.832 43.7145 11.8598 43.4096 12.2674 43.3375C12.7211 43.2579 12.6398 43.5408 13.0571 43.6065C13.2926 43.3155 13.1927 43.498 13.3475 43.1411C13.6194 42.5251 13.6916 42.8149 14.3359 42.4379C14.3988 42.4015 14.4531 42.3645 14.5171 42.3213C14.5893 42.4736 14.6713 42.6191 14.7429 42.7641C15.2146 42.2053 15.2689 42.7498 15.8132 42.9021C16.0476 42.9663 16.2139 42.9893 16.3426 42.991C16.7381 42.9968 16.7785 42.8045 17.3184 42.9956C17.3825 43.0256 17.4639 43.047 17.5366 43.069C17.5452 43.069 17.5724 43.0834 17.5724 43.0985C17.5822 43.106 17.6088 43.1274 17.618 43.1355C17.7086 43.2365 17.7185 43.3388 17.7906 43.4473C18.1624 43.8029 18.5343 44.1591 18.8969 44.5073C19.6128 44.7908 19.6128 44.2601 20.4291 45.0511C20.7738 45.3779 20.6191 45.3715 20.8096 45.7919C20.8374 45.8578 20.8916 45.9224 20.9274 46.0026C21.0001 46.1989 21.0815 46.3871 21.1635 46.5759C21.5347 47.0626 22.0428 46.7578 22.5595 47.2589C22.8586 47.5493 22.6322 47.4621 23.2939 47.5781C24.3186 47.745 23.9203 47.6509 24.6998 48.2391C24.9989 48.4568 25.071 48.3333 25.3521 48.522C25.7424 49.0664 25.6425 49.6548 25.3164 50.134C24.3095 51.6005 24.6541 51.3609 24.6085 52.523C24.5721 53.1904 24.3816 54.5703 23.7558 54.7371C21.4804 55.3769 22.8038 55.8196 22.2056 56.9449C22.0336 57.2648 21.906 57.3444 21.7975 57.599C21.3449 58.6584 21.6619 59.0146 20.3195 58.775C20.4471 58.9996 20.3651 58.8471 20.4921 59.0504C20.8911 59.6675 20.9546 60.1329 20.1383 60.2841C19.4581 60.4151 19.7485 60.2841 19.685 61.0393C19.4217 61.1484 19.304 61.0393 19.1319 61.2136L19.196 61.3331L19.195 61.3326ZM13.2189 23.0794C13.3944 23.0563 13.3938 22.9801 13.8534 22.8686C13.817 22.7163 13.7893 22.7163 13.7535 22.6585L13.7391 22.6296C13.5643 22.7774 13.3904 22.9281 13.2189 23.08V23.0794ZM37.4565 31.4995L37.4386 31.4868C37.3751 31.4435 37.3121 31.4001 37.2579 31.3494C36.8589 30.9931 36.7764 30.6745 36.333 30.7541C36.3231 31.0884 36.3694 31.1023 36.5321 31.3205C37.1487 32.0901 36.9582 31.8291 37.4385 32.112L37.4564 32.1224C37.5701 32.1876 37.7017 32.2789 37.8825 32.4099C37.2659 32.9531 37.8375 33.0115 37.4564 33.1934L37.4385 33.202C37.4015 33.2159 37.3664 33.2309 37.3392 33.2453C37.2116 32.9254 37.4929 33.0784 37.1666 32.6136C36.9854 32.374 36.8132 32.3013 36.5321 32.1696C35.8242 31.8359 35.9155 31.575 35.4802 31.139C34.9901 31.154 35.0997 31.3064 34.7551 31.4808C34.3382 31.6834 34.4017 31.445 33.9116 31.4876C33.5126 32.1926 34.0836 31.6043 33.3585 32.185C32.4879 32.8599 33.2044 33.5643 31.8084 33.7756C31.7085 33.79 31.6721 33.7756 31.5729 33.8114C31.309 33.9055 31.4631 33.8258 31.309 33.9783C31.4274 34.2548 31.264 34.2104 31.7356 34.2761C32.597 34.3916 32.7061 33.8621 33.332 33.7311C33.6397 33.6659 35.5715 33.5856 35.7072 33.622C36.1241 34.0874 35.78 34.4141 35.78 34.8056C36.2344 35.0453 36.8775 35.1035 37.1407 35.3506C37.4399 35.6335 37.2949 35.5896 37.4399 35.6405L37.4577 35.6463C37.5126 35.6619 37.5918 35.6901 37.7302 35.7426C38.0929 35.8656 38.0744 35.9384 38.464 35.9673C38.8179 34.7836 38.4548 34.9073 40.1596 35.4511C41.9367 36.0331 41.1387 35.5025 41.8916 35.5821C42.264 35.6191 42.1641 35.7345 42.6809 35.6693C42.7801 35.466 43.5145 33.6214 42.5625 33.8541C42.2814 33.9263 42.4724 34.0279 42.0729 33.9263C41.656 33.8183 42.055 33.738 41.5931 33.8028C41.1387 33.8686 40.5955 34.2681 40.2415 32.8958C40.1059 32.4015 39.8605 31.9738 39.2987 32.7208C39.4436 32.9748 39.5435 32.9968 39.7064 33.2439C39.6614 33.316 39.5072 33.4979 39.4529 33.5563C39.1451 33.8611 39.5805 33.7161 39.0811 33.7809C38.8092 33.5776 38.864 33.3161 38.6007 32.9535C38.1382 32.2774 38.4374 32.5904 38.2017 31.9438C38.0164 31.781 37.7087 31.6591 37.4575 31.4993H37.4565V31.4995ZM47.1409 51.0478C46.7425 51.251 46.6876 51.7164 46.3886 51.9773C46.0624 52.2751 45.6265 52.1378 45.5001 52.6891C45.3368 53.3785 45.772 53.1684 45.2917 54.0684C45.1198 54.4021 45.1105 55.2369 45.3737 55.4846C46.1619 56.2461 46.5885 54.323 46.7697 53.7203C46.906 53.2919 47.033 52.8058 47.1779 52.4056C47.3227 51.9774 47.5312 51.6004 47.1409 51.0478ZM45.8355 30.7893C45.899 31.676 46.4244 32.0168 46.7967 32.4231C46.7517 32.8446 46.6512 32.7355 46.6605 33.3233C47.105 33.6436 47.4306 33.8389 48.0121 33.68C48.0935 32.9681 47.8666 33.0039 47.6495 32.5178C47.6859 32.4595 47.7851 32.3873 47.8031 32.3729C47.9671 32.1553 47.8851 32.4595 47.9671 32.0894C47.541 31.952 46.8517 31.5155 46.798 30.9428C47.0064 30.7759 46.9429 30.8769 47.0965 30.7759C47.432 30.5576 47.1785 30.8914 47.3776 30.5213C47.2056 30.1875 47.015 30.1293 46.5982 30.2961C46.417 30.3689 45.936 30.7101 45.8361 30.7898L45.8355 30.7893ZM42.1266 31.022C41.846 30.6305 41.8634 30.4336 41.3195 30.4193C41.1024 30.6519 40.8484 31 40.7306 31.3558C40.5494 31.8933 40.6764 31.5226 40.6942 32.104C40.685 32.1254 40.6942 32.1554 40.6942 32.1768C40.685 32.5249 40.603 32.1109 40.6579 32.4308C41.0845 32.343 40.7584 32.3505 41.0759 32.2489C41.375 32.1473 42.2906 31.8713 42.5539 31.9371C43.1791 32.082 43.7051 32.5763 44.4129 32.082C44.3759 31.4504 43.6144 31.2108 43.0885 30.9343C43.1162 30.354 43.2697 30.8113 43.2334 30.2519C43.0521 30.2444 42.943 30.2155 42.7709 30.2883C42.3627 30.4695 42.5896 30.5209 42.5896 30.5861C42.6075 30.8979 42.9977 30.5209 42.581 30.906C42.4632 31.007 42.2721 31.007 42.1272 31.022H42.1266ZM31.5352 26.622C31.5179 27.6388 31.8712 27.2969 32.2061 27.7986C32.0525 28.227 32.0249 27.8933 31.8534 28.3355C31.6992 28.7061 31.8891 28.3725 31.7892 29.0179C32.0525 29.0329 32.4422 28.9388 32.7869 28.9094C33.277 28.8655 33.2673 28.8223 33.4399 28.321C33.168 27.9873 32.896 27.653 32.6149 27.3193C32.2604 26.7811 32.6149 27.1519 32.5064 26.7015C32.425 26.5416 32.3516 26.3828 32.2795 26.2223C31.8077 26.383 31.8534 26.3391 31.5352 26.622Z" fill="#15BDB1" />
	<path d="M49.4572 24.823L49.183 24.5487L48.0525 23.4182L47.7782 23.144C46.8862 23.4824 45.7696 24.9447 45.3291 25.8674L45.466 26.0047L46.5965 27.1352L46.7339 27.2726C47.6565 26.8315 49.1189 25.7155 49.4572 24.8235V24.823Z" fill="#FBB429" />
	<path d="M49.4572 24.823L49.183 24.5487L48.0525 23.4182L47.7782 23.144C47.5721 23.2225 47.355 23.3605 47.1356 23.5377L49.0634 25.4655C49.2406 25.2466 49.3786 25.029 49.4571 24.8235V24.823H49.4572Z" fill="white" />
	<path d="M51.3504 30.1986L51.0761 29.9244L49.9456 28.7939L49.6714 28.5196C48.7794 28.858 47.6627 30.3204 47.2222 31.243L47.3596 31.3804L48.4901 32.5109L48.6275 32.6482C49.5501 32.2071 51.0125 31.0911 51.3509 30.1986H51.3504Z" fill="#FBB429" />
	<path d="M51.3504 30.1986L51.0762 29.925L49.9457 28.794L49.6714 28.5204C49.4653 28.5984 49.2482 28.7363 49.0288 28.9141L50.9565 30.8419C51.1338 30.623 51.2723 30.4054 51.3503 30.1993V30.1986H51.3504Z" fill="white" />
	<path d="M35.9167 11.2825L36.191 11.5567L37.3215 12.6872L37.5957 12.9615C37.2573 13.8535 35.795 14.9701 34.8723 15.4111L34.735 15.2737L33.6045 14.1432L33.4671 14.0058C33.9082 13.0838 35.0242 11.6208 35.9162 11.2825H35.9167Z" fill="#FBB429" />
	<path d="M35.9167 11.2825L36.191 11.5567L37.3215 12.6872L37.5957 12.9615C37.5177 13.1676 37.3799 13.3852 37.202 13.6041L35.2741 11.6762C35.493 11.4983 35.7106 11.3605 35.9167 11.2825Z" fill="white" />
	<path d="M30.541 9.39L30.8153 9.66425L31.9458 10.7947L32.22 11.069C31.8817 11.961 30.4193 13.0776 29.4967 13.5181L29.3593 13.3807L28.2288 12.2502L28.0914 12.1129C28.5325 11.1909 29.6485 9.72787 30.5405 9.3895L30.541 9.39Z" fill="#FBB429" />
	<path d="M30.541 9.38998L30.8152 9.66423L31.9462 10.7947L32.2198 11.069C32.1418 11.2751 32.004 11.4927 31.8267 11.7116L29.8985 9.78373C30.1172 9.60586 30.3348 9.46786 30.541 9.38998Z" fill="white" />
	<path d="M26.5256 34.8751L29.8425 39.5909L30.9002 38.312L29.0232 33.3531C29.2587 33.1499 28.816 33.5529 29.7847 32.6811C30.7535 31.8094 35.0104 27.8961 38.8659 24.7616L49.97 40.4585L50.9826 39.4459L44.8449 19.8814C47.3535 17.8134 49.2945 16.1639 49.8175 15.5662C51.4161 13.7395 52.8624 11.3031 51.721 9.01974C49.437 7.87774 47.0012 9.32462 45.1745 10.9226C44.5764 11.4457 42.9275 13.3867 40.8594 15.8952L21.2949 9.75774L20.2822 10.7704L35.9786 21.8745C32.8447 25.7306 28.931 29.9867 28.0597 30.9556C27.1874 31.9244 27.591 31.4816 27.3877 31.7171L22.4289 29.8401L21.15 30.8979L25.8657 34.2147C25.3536 35.0957 25.6452 35.3874 26.5262 34.8752H26.5256V34.8751Z" fill="white" />
	<path d="M26.5256 34.8751L29.8424 39.5908L30.0976 39.2826L26.8823 34.6292L26.5261 34.8752H26.5256V34.8751Z" fill="#C8CACC" />
	<path d="M21.4576 30.6426L21.1494 30.8979L25.8651 34.2148L26.1111 33.8585L21.4571 30.6426H21.4576Z" fill="#C8CACC" />
	<path d="M38.8663 24.7612L49.9704 40.4581L50.3607 40.0672L39.5222 24.226L38.8663 24.7612Z" fill="#C8CACC" />
	<path d="M20.6719 10.3795L20.2816 10.7704L35.978 21.8745L36.5132 21.2186L20.6712 10.3801L20.6719 10.3795Z" fill="#C8CACC" />
	<path d="M50.7667 9.97312C50.542 9.7485 50.2702 9.59037 49.9682 9.49625L49.7852 10.0072C49.9757 10.121 50.1547 10.2595 50.318 10.4224C50.4808 10.5857 50.6194 10.7647 50.7332 10.9547L51.2442 10.7717C51.15 10.4704 50.9919 10.1985 50.7673 9.97325H50.7667V9.97312ZM49.56 9.40962C49.0942 9.35362 48.5832 9.427 48.0768 9.6215C48.5329 9.58337 48.9913 9.64975 49.4122 9.82125L49.56 9.40962ZM50.9192 11.3281C51.0912 11.749 51.157 12.2069 51.1189 12.6635C51.314 12.1571 51.3868 11.6462 51.3308 11.1802L50.9192 11.3281Z" fill="#15BDB1" />
	<path d="M23.106 37.949L23.11 37.945L23.177 37.8803L23.2433 37.8162L23.3108 37.751L23.3783 37.6857L23.4458 37.6205L23.514 37.5546L23.5821 37.4887L23.6508 37.4228L23.7201 37.3565L23.7888 37.2901L23.8581 37.2231L23.9273 37.1556L23.9972 37.0881L24.0671 37.02L24.1375 36.9518L24.2085 36.8837L24.2795 36.815L24.3505 36.7462L24.4221 36.677L24.4937 36.6071L24.5658 36.5372L24.638 36.4673L24.7101 36.3968L24.7828 36.3258L24.8556 36.2548L24.929 36.1832L25.0023 36.1116L25.0762 36.0395L25.1501 35.9667L25.224 35.894L24.8112 35.4737L24.7373 35.5458L24.664 35.618L24.5906 35.6896L24.5172 35.7617L24.4445 35.8327L24.3723 35.9037L24.3002 35.9742L24.2281 36.0446L24.1565 36.1145L24.0848 36.1837L24.0132 36.253L23.9422 36.3222L23.8712 36.391L23.8002 36.4597L23.7298 36.5278L23.6595 36.596L23.5896 36.6635L23.5197 36.7305L23.4505 36.798L23.3812 36.865L23.312 36.9313L23.2432 36.9977L23.1745 37.0636L23.1063 37.1295L23.0382 37.1947L22.9701 37.26L22.9026 37.3252L22.8356 37.3898L22.7686 37.4551L22.7016 37.5192L22.6976 37.5232L23.1063 37.9476L23.106 37.949ZM56.1151 37.7058L56.0452 37.8883L55.9753 38.0685L55.9055 38.2457L55.8356 38.4201L55.7652 38.5921L55.6947 38.7612L55.6243 38.9281L55.554 39.0921L55.4835 39.2537L55.4125 39.4125L55.3421 39.5695L55.2711 39.7236L55.2001 39.8748L55.1291 40.0238L55.1256 40.0307L55.655 40.29L55.6602 40.2796L55.733 40.1266L55.8057 39.9713L55.8778 39.8137L55.9506 39.6538L56.0227 39.4916L56.0948 39.3265L56.167 39.1591L56.2386 38.9887L56.3102 38.8167L56.3823 38.6412L56.4533 38.4633L56.525 38.2832L56.596 38.1002L56.667 37.9143L56.1162 37.7053L56.1151 37.7058ZM54.304 41.5683L54.2676 41.6283L54.1955 41.7472L54.1233 41.8638L54.0512 41.9787L53.9785 42.0907L53.9057 42.2005L53.833 42.3085L53.7602 42.4141L53.6875 42.518L53.6147 42.6196L53.542 42.7195L53.4686 42.8171L53.3958 42.913L53.3225 43.0065L53.2491 43.0982L53.1752 43.1883L53.1018 43.2761L53.0285 43.3621L52.9551 43.4458L52.8812 43.5283L52.8078 43.6086L52.734 43.6871L52.6601 43.7638L52.5862 43.8388L52.5735 43.8516L52.9862 44.2725L53.0041 44.2546L53.0832 44.1743L53.1617 44.0923L53.2402 44.0086L53.3187 43.9231L53.3967 43.836L53.4747 43.7471L53.5521 43.6558L53.6295 43.5628L53.7068 43.4676L53.7842 43.3712L53.861 43.2725L53.9377 43.172L54.0145 43.0697L54.0907 42.9652L54.167 42.8585L54.2432 42.75L54.3188 42.6391L54.3951 42.5265L54.4701 42.4116L54.5457 42.295L54.6207 42.1761L54.6963 42.0548L54.7713 41.9313L54.8071 41.8707L54.302 41.5671L54.304 41.5683ZM51.2476 44.9112L51.2458 44.9123L51.1702 44.958L51.0946 45.0025L51.019 45.0452L50.9433 45.0868L50.8671 45.1272L50.7915 45.1658L50.7152 45.204L50.639 45.2403L50.5627 45.2756L50.4865 45.3097L50.4097 45.3426L50.333 45.3743L50.2562 45.405L50.1795 45.435L50.1021 45.4632L50.0247 45.491L49.9473 45.5175L49.87 45.5428L49.792 45.5677L49.714 45.5908L49.6355 45.6133L49.5575 45.6353L49.479 45.6556L49.4005 45.6752L49.3213 45.6937L49.2422 45.7116L49.1631 45.7283L49.0835 45.7445L49.0038 45.7595L48.9242 45.7738L48.844 45.7877L48.7637 45.8005L48.6835 45.8126L48.6026 45.8241L48.598 45.8247L48.673 46.4096L48.6828 46.4078L48.7695 46.3957L48.8555 46.383L48.941 46.3691L49.027 46.3547L49.113 46.3391L49.199 46.323L49.2845 46.3056L49.37 46.2871L49.4548 46.2681L49.5403 46.2478L49.6258 46.2265L49.7113 46.204L49.7968 46.1808L49.8811 46.1566L49.966 46.1312L50.0502 46.1047L50.1345 46.077L50.2193 46.0481L50.3036 46.0181L50.3873 45.987L50.4716 45.9546L50.5553 45.9211L50.6391 45.8865L50.7228 45.8501L50.8066 45.8126L50.8897 45.774L50.9728 45.7341L51.056 45.6931L51.1391 45.6503L51.2222 45.6065L51.3047 45.5608L51.3872 45.5141L51.4697 45.4662L51.5517 45.4166L51.5535 45.4155L51.2457 44.9132L51.2476 44.9112ZM46.8736 45.9232H46.8637L46.7788 45.9226L46.6933 45.9215L46.6078 45.9203L46.5218 45.9186L46.4358 45.9168L46.3498 45.9146L46.2632 45.9123L46.1766 45.9095L46.0895 45.9066L46.0023 45.9037L45.9152 45.9008L45.8281 45.8973L45.7403 45.8938L45.652 45.891L45.5636 45.8875L45.4752 45.884L45.3868 45.88L45.2985 45.8765L45.2096 45.873L45.1207 45.8695L45.0312 45.866L44.9417 45.8625L44.8522 45.859L44.7621 45.8555L44.672 45.852L44.5813 45.8485L44.4907 45.8456L44.4001 45.8427L44.3088 45.8398L44.2176 45.837L44.1263 45.8347L44.0346 45.8325L43.9428 45.8307L43.9336 45.8301L43.9232 46.4196H43.9313L44.0215 46.4213L44.1116 46.4236L44.2017 46.4258L44.2912 46.4287L44.3813 46.4316L44.4715 46.4345L44.561 46.4373L44.6505 46.4408L44.74 46.4443L44.8295 46.4478L44.9183 46.4513L45.0072 46.4548L45.0961 46.4583L45.185 46.4618L45.2738 46.4653L45.3627 46.4688L45.4516 46.4723L45.5405 46.4758L45.6293 46.4793L45.7177 46.4828L45.8061 46.4863L45.895 46.4898L45.9827 46.4927L46.0711 46.4956L46.1595 46.4985L46.2478 46.5007L46.3362 46.503L46.4246 46.5052L46.5123 46.507L46.6001 46.5087L46.6878 46.5098L46.7756 46.511L46.8633 46.5116H46.8732L46.8755 45.9221L46.8736 45.9232ZM42.137 45.8707L42.0607 45.8765L41.9648 45.8846L41.8678 45.8932L41.772 45.9025L41.675 45.9123L41.578 45.9233L41.481 45.9348L41.384 45.947L41.2863 45.9597L41.1887 45.9741L41.0906 45.9891L40.9925 46.0052L40.8943 46.0213L40.7962 46.0392L40.6975 46.0577L40.5987 46.0767L40.4995 46.097L40.4002 46.1183L40.301 46.1408L40.2011 46.1645L40.1012 46.1893L40.0007 46.2147L39.9008 46.2407L39.8003 46.2685L39.6998 46.2973L39.5993 46.3273L39.4983 46.3585L39.3973 46.3908L39.2957 46.4243L39.1941 46.4596L39.1808 46.4642L39.3806 47.0191L39.3887 47.0162L39.4846 46.9833L39.5798 46.9522L39.6751 46.9216L39.7703 46.8921L39.8656 46.8643L39.9608 46.8366L40.0555 46.8106L40.1501 46.7852L40.2447 46.761L40.3393 46.7378L40.4335 46.7153L40.5276 46.6946L40.6217 46.6743L40.7152 46.6553L40.8087 46.6368L40.9028 46.6195L40.9963 46.6033L41.0898 46.5872L41.1833 46.5722L41.2763 46.5583L41.3698 46.5451L41.4628 46.5323L41.5558 46.5208L41.6488 46.5098L41.7412 46.4995L41.8336 46.4896L41.9266 46.4803L42.0183 46.4722L42.1107 46.4647L42.187 46.459L42.1407 45.8712L42.137 45.8707ZM37.524 47.2118L37.4455 47.2557L37.341 47.3157L37.2365 47.3775L37.132 47.4403L37.0268 47.5056L36.9223 47.572L36.8172 47.6401L36.7127 47.7093L36.6076 47.781L36.5025 47.8537L36.3968 47.9287L36.2912 48.0055L36.1861 48.084L36.0805 48.1636L35.9748 48.2456L35.8692 48.3293L35.763 48.4148L35.6567 48.502L35.5505 48.5908L35.4437 48.6815L35.337 48.775L35.2307 48.8696L35.124 48.966L35.0975 48.9908L35.4993 49.4221L35.5218 49.4018L35.6246 49.3083L35.7273 49.2171L35.8296 49.1282L35.9318 49.0411L36.0335 48.9556L36.1357 48.8718L36.2367 48.7898L36.3383 48.7102L36.4393 48.6322L36.5403 48.5555L36.6413 48.4805L36.7418 48.4077L36.8423 48.3367L36.9428 48.2668L37.0427 48.1993L37.1426 48.133L37.2425 48.0683L37.3423 48.0055L37.4416 47.9442L37.5408 47.8842L37.6396 47.826L37.7383 47.7688L37.8168 47.725L37.5253 47.2123L37.524 47.2118ZM33.8417 50.2741L33.8313 50.2851L33.7228 50.4086L33.6172 50.5298L33.5116 50.6493L33.406 50.7677L33.3008 50.8843L33.1957 50.9998L33.0906 51.1136L32.9861 51.2256L32.8816 51.3365L32.7777 51.4462L32.6738 51.5542L32.57 51.661L32.4666 51.7661L32.3632 51.87L32.2598 51.9722L32.1571 52.0732L32.0543 52.1731L31.9521 52.2712L31.8498 52.3682L31.8302 52.3861L32.2315 52.8173L32.2535 52.7971L32.3586 52.6978L32.4637 52.5973L32.5688 52.4957L32.674 52.3923L32.7796 52.2872L32.8852 52.181L32.9908 52.073L33.0971 51.9645L33.2033 51.8542L33.3101 51.7428L33.4163 51.6297L33.5231 51.5148L33.6298 51.3988L33.7372 51.2816L33.8446 51.1627L33.952 51.0421L34.06 50.9202L34.168 50.7972L34.2731 50.6771L34.2835 50.6661L33.8423 50.2752L33.8417 50.2741ZM30.511 53.5263L30.44 53.5823L30.3418 53.6591L30.2431 53.7347L30.145 53.8092L30.0468 53.8826L29.9492 53.9547L29.8522 54.0251L29.7552 54.0943L29.6582 54.1625L29.5618 54.2295L29.4655 54.2953L29.3691 54.36L29.2732 54.4235L29.178 54.4858L29.0827 54.5465L28.9875 54.606L28.8928 54.6648L28.7982 54.722L28.7036 54.778L28.6101 54.8328L28.5166 54.8866L28.4231 54.9391L28.3301 54.9911L28.2371 55.0413L28.1447 55.0905L28.1002 55.1136L28.3705 55.6378L28.4196 55.6125L28.5166 55.5605L28.6136 55.508L28.7106 55.4542L28.8082 55.3988L28.9058 55.3428L29.0035 55.2857L29.1016 55.2268L29.1997 55.1673L29.2985 55.1067L29.3972 55.0443L29.4965 54.9815L29.5957 54.9168L29.695 54.851L29.7948 54.784L29.8947 54.7158L29.9952 54.6466L30.0957 54.5761L30.1962 54.504L30.2972 54.4306L30.3982 54.3561L30.4992 54.2805L30.6008 54.2037L30.7031 54.1252L30.8047 54.0456L30.8751 53.9896L30.5108 53.526L30.511 53.5263ZM26.5203 55.7901L26.443 55.8155L26.3563 55.8432L26.2697 55.8697L26.1837 55.8957L26.0982 55.9206L26.0127 55.9442L25.9278 55.9667L25.843 55.9887L25.7587 56.0095L25.675 56.0291L25.5912 56.0476L25.5075 56.0655L25.4243 56.0822L25.3418 56.0983L25.2593 56.1133L25.1768 56.1277L25.0955 56.141L25.0141 56.1531L24.9327 56.1646L24.8518 56.175L24.7716 56.1848L24.6913 56.1935L24.6117 56.2016L24.5321 56.2085L24.4525 56.2142L24.374 56.2195L24.2955 56.2235L24.217 56.227L24.139 56.2298L24.0616 56.2316L23.9848 56.2327H23.9081L23.8313 56.2321L23.7557 56.231L23.7262 56.2298L23.7048 56.8187L23.7412 56.8198L23.8237 56.8216L23.9062 56.8222H23.9893L24.0731 56.8211L24.1568 56.8188L24.2406 56.816L24.3248 56.8125L24.4103 56.8072L24.4952 56.8015L24.5807 56.7951L24.6662 56.7876L24.7522 56.7795L24.8388 56.7696L24.9255 56.7592L25.0126 56.7477L25.0992 56.7356L25.187 56.7228L25.2747 56.7085L25.3631 56.6928L25.4515 56.6772L25.5403 56.6598L25.6292 56.642L25.7181 56.623L25.8076 56.6027L25.8977 56.5813L25.9878 56.5593L26.078 56.5362L26.1686 56.512L26.2598 56.4866L26.3511 56.4601L26.4423 56.433L26.5341 56.4047L26.6258 56.3752L26.7032 56.3498L26.5213 55.7892L26.5203 55.7901ZM22.054 55.9731L22.0251 55.965L21.9576 55.9453L21.8906 55.9246L21.8231 55.9032L21.7561 55.8812L21.6891 55.8581L21.6227 55.835L21.5575 55.8113L21.4916 55.7865L21.4263 55.7611L21.3617 55.7351L21.2971 55.7086L21.233 55.6815L21.1695 55.6537L21.106 55.6255L21.0431 55.596L20.9807 55.5665L20.9183 55.5365L20.856 55.5058L20.7947 55.4747L20.7341 55.443L20.6728 55.4101L20.6122 55.3772L20.5522 55.3432L20.4927 55.3091L20.4332 55.2745L20.3737 55.2387L20.3155 55.203L20.2571 55.1666L20.1993 55.1296L20.1416 55.0921L20.0845 55.054L20.0273 55.0158L19.9713 54.9766L19.9153 54.9373L19.8593 54.897L19.804 54.8566L19.7491 54.8156L19.6948 54.774L19.6406 54.7323L19.5868 54.6902L19.5626 54.6706L19.1913 55.1285L19.2191 55.151L19.2768 55.1966L19.3351 55.2416L19.3935 55.2861L19.453 55.3306L19.5125 55.3745L19.5725 55.4172L19.6331 55.46L19.6943 55.5021L19.7556 55.5431L19.8173 55.5841L19.8797 55.6245L19.9421 55.6643L20.005 55.7042L20.0685 55.7428L20.132 55.781L20.1966 55.8185L20.2612 55.8555L20.3265 55.8918L20.3923 55.9276L20.4582 55.9628L20.5246 55.9975L20.5916 56.0315L20.6586 56.0643L20.7261 56.0972L20.7942 56.1296L20.8623 56.1607L20.9311 56.1913L21.0003 56.2213L21.0702 56.2508L21.1395 56.2797L21.2098 56.308L21.2808 56.3357L21.3518 56.3622L21.4235 56.3887L21.4956 56.4141L21.5677 56.439L21.6405 56.4626L21.7138 56.4857L21.7872 56.5082L21.8611 56.5302L21.89 56.5383L22.054 55.972V55.9731ZM18.3543 53.4697L18.3301 53.4397L18.2873 53.3866L18.2446 53.3335L18.203 53.2797L18.1613 53.2255L18.1203 53.1712L18.08 53.117L18.0396 53.0621L17.9997 53.0067L17.9605 52.9513L17.9212 52.896L17.8831 52.84L17.845 52.784L17.8075 52.7273L17.7705 52.6707L17.7335 52.6136L17.6977 52.5565L17.662 52.4987L17.6267 52.441L17.5921 52.3832L17.5575 52.325L17.5233 52.2667L17.4898 52.2078L17.457 52.1496L17.4246 52.0907L17.3922 52.0312L17.3605 51.9723L17.3293 51.9128L17.2982 51.8533L17.2682 51.7933L17.2382 51.7338L17.2087 51.6738L17.1798 51.6132L17.1516 51.5526L17.1238 51.492L17.0967 51.4313L17.0696 51.3707L17.0431 51.3101L17.0171 51.2488L16.9917 51.1882L16.9668 51.127L16.942 51.0657L16.9217 51.0143L16.3727 51.2273L16.3947 51.2833L16.4207 51.3486L16.4472 51.4138L16.4743 51.4791L16.5021 51.5437L16.5298 51.6083L16.5587 51.6736L16.5882 51.7382L16.6182 51.8028L16.6482 51.867L16.6788 51.9311L16.71 51.9952L16.7417 52.0593L16.7741 52.1228L16.8065 52.1863L16.8393 52.2492L16.8735 52.3121L16.9076 52.3745L16.9422 52.4373L16.9775 52.4997L17.0132 52.5621L17.0496 52.6238L17.086 52.6856L17.1235 52.7473L17.161 52.8086L17.1985 52.8692L17.2371 52.9305L17.2757 52.9911L17.315 53.0517L17.3548 53.1117L17.3952 53.1712L17.4362 53.2307L17.4778 53.2902L17.5195 53.3491L17.5622 53.408L17.605 53.4663L17.6482 53.5246L17.6921 53.5823L17.736 53.6401L17.7805 53.6972L17.8255 53.7543L17.8711 53.8115L17.896 53.8415L18.3532 53.4697H18.3543ZM16.455 49.3695C16.2846 48.4342 16.257 47.4913 16.4625 46.559L15.8868 46.432C15.6617 47.4267 15.6928 48.4775 15.8753 49.4757L16.455 49.369V49.3695ZM17.0213 44.9591C17.4215 44.1098 18.0167 43.2928 18.6091 42.5683L18.1547 42.1931C17.5358 42.9407 16.906 43.8223 16.4913 44.7017L17.0213 44.9591ZM19.7683 41.2588L19.7723 41.2548L19.8226 41.2017L19.8728 41.1486L19.9236 41.0955L19.975 41.0417L20.0263 40.988L20.0777 40.9342L20.1297 40.8805L20.1822 40.8262L20.2347 40.772L20.2872 40.7177L20.3403 40.6635L20.3941 40.6086L20.4478 40.5537L20.5021 40.4988L20.5563 40.444L20.6112 40.3886L20.6666 40.3326L20.722 40.2766L20.7773 40.2212L20.8333 40.1652L20.8893 40.1092L20.9465 40.0526L21.0036 39.996L21.0607 39.9393L21.1185 39.8822L21.1762 39.8251L21.2345 39.768L21.2928 39.7102L21.3517 39.6525L21.4106 39.5947L21.4701 39.5365L21.5296 39.4782L21.5896 39.42L21.6496 39.3611L21.7102 39.3022L21.7708 39.2433L21.8321 39.1838L21.8361 39.1803L21.425 38.7577L21.421 38.7617L21.3597 38.8212L21.2985 38.8807L21.2378 38.9396L21.1772 38.9991L21.1172 39.0573L21.0572 39.1162L20.9977 39.1745L20.9382 39.2327L20.8793 39.291L20.8205 39.3487L20.7616 39.4065L20.7032 39.4642L20.6455 39.5213L20.5877 39.5791L20.5306 39.6362L20.4735 39.6928L20.4163 39.75L20.3603 39.8066L20.3043 39.8626L20.2483 39.9192L20.193 39.9752L20.1376 40.0312L20.0827 40.0872L20.0278 40.1426L19.9736 40.198L19.9193 40.2533L19.8651 40.3087L19.8113 40.3636L19.7582 40.4185L19.7051 40.4733L19.6526 40.5282L19.6001 40.5831L19.5481 40.6373L19.4967 40.6911L19.4447 40.7453L19.3933 40.7996L19.3426 40.8533L19.3386 40.858L19.7681 41.2616V41.2588H19.7683Z" fill="white" />
</svg>
