<svg xmlns="http://www.w3.org/2000/svg" xmlns:xlink="http://www.w3.org/1999/xlink" width="334" height="60" viewBox="0 0 334 60"><defs><path id="u312a" d="M502.85 288.561c6.526 0 9.274-2.087 9.274-6.782 0-2.782-1.03-4.521-2.748-5.564-1.717-1.044-4.121-1.392-7.041-1.392h-3.263v13.738zM491 295.169v-43.996h27.479l-2.061 6.435h-17.346v10.433h3.091c4.809 0 8.76.522 11.85 2.26 3.95 2.088 6.183 5.74 6.183 11.13 0 8-4.637 13.738-17.517 13.738zm34.52-31.301h7.729v13.911c0 2.435-.172 4.87-.344 6.782h.172c.859-1.391 2.404-3.999 4.122-6.608l9.79-14.26h7.556v31.302h-7.728v-13.912c0-2.434.171-4.868.343-6.781h-.172c-.858 1.391-2.232 4-4.121 6.608l-9.79 14.259h-7.557zm42.25 6.434h-9.447v-6.608h28.682l-2.061 6.608h-9.275v24.867h-7.9zm21.81 40.691v-46.256c3.436-1.043 7.557-1.912 11.851-1.912 11.163 0 17.003 6.433 17.003 16.52 0 9.738-6.355 16.52-16.144 16.52-1.718 0-3.263-.174-4.81-.696v15.824zm12.023-21.736c5.839 0 8.759-3.826 8.759-9.913 0-6.781-3.607-9.911-9.274-9.911-1.374 0-2.405.173-3.607.521v18.433c1.374.522 2.576.87 4.122.87zm21.468-25.39h7.728v13.912c0 2.435-.172 4.87-.343 6.782h.171c.86-1.391 2.405-3.999 4.122-6.608l9.79-14.26h7.556v31.302h-7.728v-13.912c0-2.434.172-4.868.343-6.781h-.171c-.86 1.391-2.233 4-4.122 6.608l-9.79 14.259h-7.556zm35.207-.173h7.9v12.347h3.607c3.778 0 3.778-6.608 6.354-10.434 1.203-1.74 2.92-2.782 5.668-2.782.859 0 2.404.174 3.263.521v6.782c-.515-.348-1.202-.348-1.717-.348-1.03 0-1.718.348-2.233 1.043-1.546 2.261-1.89 6.783-4.465 8.348v.173c1.545.522 2.576 1.74 3.606 3.826l5.668 11.999h-8.416l-3.95-10.086c-1.03-2.087-1.889-2.956-2.748-2.956h-4.637v13.042h-7.9zm29.54 15.998c0-9.912 7.213-16.867 16.487-16.867 3.95 0 6.698 1.043 8.416 2.086v6.782c-2.233-1.565-4.466-2.435-7.557-2.435-5.84 0-9.274 4.522-9.274 10.26 0 6.434 3.435 9.913 8.759 9.913 2.92 0 4.98-.87 7.213-2.088l2.233 5.391c-2.405 1.74-6.355 3.13-10.648 3.13-10.133 0-15.63-7.129-15.63-16.172z"/><path id="u312b" d="M740.028 263.346c0-4-3.263-5.565-6.698-5.565-4.465 0-8.072 1.392-11.163 2.957l-2.061-6.26c3.435-1.74 8.587-3.478 14.426-3.478 9.446 0 13.911 4.868 13.911 11.476 0 12.347-16.83 14.782-19.578 25.91h19.922v6.783H718.56c1.717-22.085 21.468-22.78 21.468-31.823zm9.618 15.825L771.114 251h5.667v26.78h6.526v6.608h-6.526v10.78h-7.728v-10.78h-19.407zm14.254-1.218h5.153v-6.26c0-3.478.343-7.303.343-8.52l-10.991 14.954c1.03 0 3.95-.174 5.495-.174zm28.396-9.393c0-8.988 7.35-16.325 16.352-16.325 9.003 0 16.352 7.337 16.352 16.325s-7.35 16.325-16.352 16.325c-9.003 0-16.168-7.337-16.352-16.325zm2.891.221c0 7.542 6.122 13.656 13.672 13.656 7.551 0 13.672-6.114 13.672-13.656 0-7.542-6.12-13.656-13.672-13.656-7.55 0-13.672 6.114-13.672 13.656zm22.919 2.39h-10.648V260.39h2.233v8.52h8.415z"/></defs><g><g transform="translate(-491 -251)"><use fill="#fff" xlink:href="#u312a"/></g><g transform="translate(-491 -251)"><use fill="#ffa800" xlink:href="#u312b"/></g></g></svg>