<svg xmlns="http://www.w3.org/2000/svg" xmlns:xlink="http://www.w3.org/1999/xlink" width="15" height="16" viewBox="0 0 15 16"><defs><path id="a30ia" d="M186.015 2947.83c0 .836-.12 1.705-.363 2.607-.242.9-.537 1.632-.887 2.195h-4.485l-.138-.715c-.16.11-.317.214-.473.312-.156.097-.33.18-.52.247-.214.08-.413.137-.597.174a4.073 4.073 0 0 1-.754.055c-.465 0-.9-.104-1.305-.312a3.042 3.042 0 0 1-1.048-.898c-.288-.378-.516-.863-.684-1.453a6.956 6.956 0 0 1-.253-1.92c0-.708.104-1.353.312-1.933.209-.58.488-1.082.837-1.503.33-.385.721-.69 1.172-.917.45-.226.92-.339 1.41-.339.393 0 .742.08 1.048.238a2.9 2.9 0 0 1 .708.486v-.56l2.031-.008v7.405h1.379a7.15 7.15 0 0 0 .437-1.43c.113-.55.17-1.108.17-1.677 0-1.001-.135-1.879-.405-2.63-.27-.751-.646-1.381-1.13-1.888a4.587 4.587 0 0 0-1.724-1.141 6.026 6.026 0 0 0-2.137-.37 5.19 5.19 0 0 0-2.054.411 5.666 5.666 0 0 0-1.788 1.228c-.52.526-.939 1.173-1.254 1.943-.316.77-.474 1.623-.474 2.557 0 .996.149 1.882.446 2.658.297.776.706 1.427 1.227 1.952.503.52 1.088.912 1.756 1.178a5.616 5.616 0 0 0 2.095.399c.515 0 1.074-.046 1.678-.138.603-.091 1.16-.213 1.668-.366v1.952c-.558.128-1.095.223-1.613.284-.518.06-1.098.091-1.742.091a7.766 7.766 0 0 1-3.02-.581 6.98 6.98 0 0 1-2.393-1.636c-.675-.71-1.2-1.558-1.577-2.549-.377-.99-.565-2.077-.565-3.262 0-1.124.196-2.172.588-3.144a8.075 8.075 0 0 1 1.618-2.547 7.363 7.363 0 0 1 2.417-1.682 7.364 7.364 0 0 1 2.978-.61 7.53 7.53 0 0 1 2.932.569c.907.379 1.688.91 2.344 1.594a7.317 7.317 0 0 1 1.567 2.46c.377.957.565 2.028.565 3.213zm-6.066 2.373v-4.619a3.67 3.67 0 0 0-.694-.28 2.729 2.729 0 0 0-.721-.087c-.595 0-1.051.263-1.37.788-.318.526-.478 1.222-.478 2.09 0 .96.134 1.673.4 2.14.267.467.703.701 1.31.701.318 0 .596-.063.832-.188.235-.125.476-.307.721-.545z"/></defs><g><g transform="translate(-171 -2940)"><use fill="#fff" xlink:href="#a30ia"/></g></g></svg>