<svg xmlns="http://www.w3.org/2000/svg" xmlns:xlink="http://www.w3.org/1999/xlink" width="116" height="16" viewBox="0 0 116 16"><defs><path id="wo47a" d="M1316.3 102.805c-.541 0-.996.09-1.365.278a2.176 2.176 0 0 0-.892.839c-.23.375-.404.847-.526 1.416l-1.204 5.594h-1.489l1.276-5.964c.162-.767.41-1.398.75-1.896a3.042 3.042 0 0 1 1.347-1.106c.56-.24 1.255-.358 2.085-.358h1.027l-.248 1.197zm-65.132-.555c.106.197.159.423.159.678a2.418 2.418 0 0 1-.053.44l-1.453 6.772c-.154.715-.354 1.323-.605 1.821-.251.499-.567.9-.951 1.207-.384.306-.85.531-1.403.67-.23.058-.478.105-.744.139a9.22 9.22 0 0 1-1.205.068h-4.713l.222-1.008.203-.927h4.235c.301.003.585-.032.847-.102a1.745 1.745 0 0 0 .697-.364c.204-.173.366-.41.493-.712h-2.64c-.599-.003-1.107-.085-1.517-.25a2.405 2.405 0 0 1-.99-.698 2.742 2.742 0 0 1-.537-1.072 5.25 5.25 0 0 1-.162-1.376c0-.254.014-.518.04-.788.03-.273.075-.548.137-.83.147-.704.333-1.325.56-1.861.228-.537.526-.985.89-1.349.363-.363.818-.636 1.37-.821.552-.184 1.223-.279 2.017-.279h3.81c.324.004.593.062.808.174.216.114.378.27.485.469zm-2.818 1.804c0-.155-.047-.267-.142-.332-.097-.061-.25-.093-.46-.09h-1.294c-.117 0-.23.007-.336.019-.268.029-.5.092-.697.189a1.82 1.82 0 0 0-.676.569 3.121 3.121 0 0 0-.422.84c-.11.318-.201.657-.278 1.021-.044.22-.083.434-.112.645-.03.208-.048.41-.048.604-.003.267.036.504.119.713a.985.985 0 0 0 .43.492c.204.12.488.182.851.184h2.038l.992-4.573c.009-.052.018-.103.024-.147a.719.719 0 0 0 .011-.134zm77.925-2.446l-1.666 7.794a3.048 3.048 0 0 1-.286.835c-.124.226-.304.399-.538.516-.236.117-.552.179-.948.179h-3.295c-.582 0-1.078-.085-1.495-.256-.413-.169-.729-.419-.95-.75a1.843 1.843 0 0 1-.062-.1c-.18-.313-.272-.69-.275-1.128 0-.123.009-.25.024-.382.017-.131.038-.27.065-.41l.186-.87 1.16-5.428h1.488l-1.293 6.034c-.027.141-.047.273-.065.399a3.09 3.09 0 0 0-.024.358c-.003.275.048.515.148.716.1.198.26.35.484.456.225.109.523.165.892.165h2.676a.64.64 0 0 0 .428-.121c.112-.084.192-.246.245-.478l1.612-7.529zm-85.853 4.18c-.072.27-.17.502-.29.693-.147.235-.345.41-.596.528-.251.117-.567.176-.948.176h-5.298a3.233 3.233 0 0 0-.07.668c-.004.24.043.443.144.607.1.165.266.29.496.375.23.083.543.126.936.126h4.571l-.425 1.97h-5.315c-.753 0-1.37-.102-1.849-.307-.478-.208-.83-.521-1.057-.944-.22-.405-.331-.914-.337-1.528v-.11c.002-.203.017-.425.039-.67a14.501 14.501 0 0 1 .28-1.666c.169-.738.355-1.359.561-1.86.207-.505.449-.912.733-1.222.283-.312.62-.546 1.015-.71a5.063 5.063 0 0 1 1.403-.329c.397-.043.843-.068 1.338-.078.182-.003.371-.005.567-.004.661-.003 1.258.041 1.79.13.53.09.986.24 1.36.454a2.174 2.174 0 0 1 .952 1.032c.145.333.218.731.221 1.198 0 .185-.018.388-.047.602a9.851 9.851 0 0 1-.174.87zm-2.614-1.312a.756.756 0 0 0-.16-.475 1.105 1.105 0 0 0-.41-.31 2.311 2.311 0 0 0-.558-.168 3.544 3.544 0 0 0-.608-.05c-.11 0-.217.002-.32.008-.335.019-.625.07-.867.156a1.545 1.545 0 0 0-.756.57c-.19.263-.334.624-.432 1.078h3.438a.687.687 0 0 0 .375-.094.508.508 0 0 0 .183-.223c.038-.085.065-.167.08-.246.009-.044.017-.087.023-.129a.571.571 0 0 0 .012-.117zm-7.424-4.551c-.001.15-.019.302-.053.452l-2.268 10.555h-3.19l1.932-8.531a.419.419 0 0 0 .015-.095c.003-.029.003-.056.003-.081a.284.284 0 0 0-.035-.159c-.024-.035-.054-.053-.09-.053-.043.003-.097.041-.156.117-.062.08-.127.18-.197.306l-4.058 7.07a7.051 7.051 0 0 1-.41.646 2.379 2.379 0 0 1-.476.492 1.897 1.897 0 0 1-.635.317c-.245.073-.54.111-.889.111-.35 0-.634-.038-.853-.111a1.12 1.12 0 0 1-.502-.317 1.279 1.279 0 0 1-.263-.492 4.064 4.064 0 0 1-.136-.645l-1.027-7.07a1.64 1.64 0 0 0-.062-.292c-.024-.085-.062-.129-.115-.132a.189.189 0 0 0-.145.08.633.633 0 0 0-.083.166c-.02.062-.032.11-.038.141l-1.737 8.532h-3.189l2.268-10.555c.092-.41.245-.741.452-.994.21-.25.449-.445.72-.577a3.07 3.07 0 0 1 .83-.263c.28-.048.54-.068.78-.065.416-.003.788.05 1.116.155.328.109.597.296.81.56.215.266.356.63.43 1.097l1.063 7.106c.012.08.027.156.048.235.02.076.05.14.082.193.033.053.071.08.119.082.047-.003.097-.03.144-.082.05-.053.1-.117.148-.193.047-.08.091-.156.133-.234l4.057-7.107c.266-.461.567-.825.895-1.088.33-.264.685-.452 1.063-.563.375-.111.77-.164 1.178-.16.564.002 1.016.067 1.359.194.34.13.587.3.738.517.146.204.22.43.224.676v.036zm31.202 4.64l-.975 4.608c-.08.381-.203.704-.375.965a1.63 1.63 0 0 1-.69.591c-.29.135-.656.203-1.096.203h-4.908c-.46-.003-.85-.097-1.17-.285a1.817 1.817 0 0 1-.726-.791c-.165-.343-.248-.745-.248-1.211a6.4 6.4 0 0 1 .024-.507c.017-.188.038-.37.065-.548.1-.59.274-1.067.525-1.434.254-.363.582-.63.986-.797.405-.17.886-.253 1.447-.25h4.27l.089-.404c.009-.062.018-.114.024-.165a.84.84 0 0 0 .012-.152c0-.264-.086-.466-.257-.604-.169-.135-.414-.205-.736-.205h-4.748l.425-1.97h5.794c.526.003.963.102 1.308.299.346.193.606.457.774.792.1.197.17.408.212.634.03.161.045.33.045.509 0 .111-.006.225-.015.34a4.41 4.41 0 0 1-.056.381zm-3.278 2.444h-2.959a1.472 1.472 0 0 0-.464.059.722.722 0 0 0-.336.232 1.318 1.318 0 0 0-.228.483c-.026.1-.047.208-.065.32a2.26 2.26 0 0 0-.023.278c0 .206.053.364.162.478.107.115.272.17.493.173h2.357c.218.003.387-.047.508-.143.118-.097.204-.256.254-.473zm39.077-3.37l-1.231 5.763a3.048 3.048 0 0 1-.287.835c-.124.226-.304.399-.537.516-.236.117-.552.179-.948.179h-3.295c-.582 0-1.078-.085-1.495-.256-.413-.169-.73-.419-.95-.75-.222-.331-.334-.741-.337-1.228 0-.123.009-.25.023-.382.018-.131.039-.27.065-.41l1.347-6.298h1.488l-1.293 6.034c-.027.141-.047.273-.065.399a3.036 3.036 0 0 0-.024.358c-.003.275.048.515.148.716.1.198.26.35.484.456.225.109.523.165.892.165h2.675a.64.64 0 0 0 .429-.121c.112-.084.192-.246.245-.478l1.612-7.529h1.488zm-20.136-.834c-.54 0-.995.09-1.365.278a2.174 2.174 0 0 0-.891.839c-.23.375-.405.847-.526 1.416l-1.205 5.594h-1.488l1.275-5.964c.163-.767.41-1.398.75-1.896a3.044 3.044 0 0 1 1.347-1.106c.561-.24 1.255-.358 2.085-.358h1.028l-.248 1.197zm9.753.068c.314.471.47 1.09.47 1.85a7.615 7.615 0 0 1-.195 1.688c-.19.88-.431 1.619-.732 2.214-.304.597-.677 1.072-1.125 1.425-.45.354-.987.606-1.613.762a8.137 8.137 0 0 1-1.35.198c-.27.02-.553.029-.85.027-.921.003-1.692-.108-2.309-.336-.614-.226-1.078-.581-1.388-1.062a2.741 2.741 0 0 1-.059-.097c-.27-.47-.407-1.062-.407-1.777a7.704 7.704 0 0 1 .194-1.706c.065-.3.136-.582.213-.848.149-.511.322-.96.52-1.347.298-.59.67-1.056 1.116-1.402.446-.346.983-.592 1.606-.742a8.09 8.09 0 0 1 1.365-.193c.265-.017.542-.025.832-.024.922-.003 1.693.105 2.313.326.62.22 1.086.568 1.4 1.044zm-1.09 1.867c.004-.496-.094-.894-.283-1.193-.192-.3-.487-.517-.883-.652-.398-.134-.906-.198-1.526-.195-.27-.002-.524.01-.762.034-.289.03-.554.08-.795.147a2.917 2.917 0 0 0-1.14.595c-.316.276-.578.64-.794 1.094-.215.452-.393 1.008-.531 1.665-.062.29-.11.56-.145.807-.033.249-.05.477-.05.689 0 .5.094.908.283 1.22.192.31.487.535.886.679.396.144.904.214 1.524.211.27.001.524-.011.762-.037.289-.032.554-.084.797-.157.443-.128.821-.336 1.137-.618.316-.284.582-.657.794-1.116.216-.461.393-1.021.532-1.678.062-.29.112-.56.145-.806.032-.25.05-.478.05-.689zm20.764-1.733c.218.449.324.985.321 1.61 0 .545-.07 1.143-.212 1.794-.15.727-.34 1.368-.573 1.932a4.514 4.514 0 0 1-.892 1.416c-.363.384-.82.677-1.373.873-.444.161-.965.257-1.565.288a8.21 8.21 0 0 1-.452.012h-2.87l-.638 2.99h-1.47l.433-2.045 1.87-8.808c.076-.352.189-.633.34-.848.153-.213.354-.372.602-.469.248-.096.555-.146.918-.144h2.64c.777.004 1.403.124 1.881.367.475.24.824.583 1.04 1.032zm-1.238 1.557c.003-.367-.056-.68-.177-.942a1.252 1.252 0 0 0-.626-.603c-.295-.14-.7-.214-1.217-.214h-2.055a.729.729 0 0 0-.437.114c-.112.08-.192.223-.236.431l-1.365 6.386h2.605c.158-.001.308-.009.452-.023.364-.037.682-.117.954-.238.378-.173.685-.416.927-.73a3.88 3.88 0 0 0 .585-1.108c.15-.425.274-.894.377-1.402.071-.31.125-.607.16-.888.036-.285.053-.546.053-.783zm-33.971-2.468c.168.175.25.413.254.709 0 .123-.018.264-.054.422l-1.47 6.808a8.794 8.794 0 0 1-.543 1.761 3.633 3.633 0 0 1-.863 1.223c-.354.32-.8.554-1.337.71-.138.039-.284.073-.438.102a8.315 8.315 0 0 1-1.532.126h-3.916l.044-.214.204-.981h3.916a3.546 3.546 0 0 0 1.284-.222c.327-.126.613-.311.863-.555.271-.27.478-.623.617-1.053h-2.87c-.795-.003-1.433-.12-1.917-.352-.484-.232-.839-.569-1.057-1.009-.219-.439-.325-.97-.322-1.594 0-.282.02-.58.062-.895a13.557 13.557 0 0 1 .6-2.568c.168-.475.372-.892.614-1.252.242-.363.537-.665.885-.911a3.848 3.848 0 0 1 1.253-.555 6.178 6.178 0 0 1 1.272-.178c.14-.006.285-.01.434-.01h2.18c.434-.002.806.036 1.116.112.313.076.552.2.72.376zm-1.323 1.131c0-.141-.042-.246-.13-.317-.086-.07-.228-.105-.42-.105h-2.108c-.164 0-.32.007-.47.02a3.373 3.373 0 0 0-.942.211c-.38.156-.694.379-.942.677-.248.297-.451.66-.608 1.088-.16.428-.292.918-.405 1.47-.07.333-.126.644-.168.934a5.572 5.572 0 0 0-.062.789c-.003.381.06.7.192.958.133.258.351.455.662.587.307.13.726.197 1.255.197h2.781l1.347-6.298a.421.421 0 0 0 .015-.105c.003-.035.003-.07.003-.106zm37.604 5.805h1.613l-.408 1.9h-1.612z"/></defs><g><g transform="translate(-1211 -98)"><use fill="#fff" xlink:href="#wo47a"/></g></g></svg>