<svg xmlns="http://www.w3.org/2000/svg" xmlns:xlink="http://www.w3.org/1999/xlink"><defs><path id="4p8la" d="M252.99 261.85l.732-.722.152.15 7.404-7.29.732.722-7.403 7.289 7.403 7.289-.732.721-7.404-7.289-.152.15-.732-.721.152-.15z"/><path id="j0e8a" d="M786.328 1468.39c.01-.177.039-.334.085-.472a1 1 0 0 1 .997-.918H792a1 1 0 0 1 1 1v.81a1 1 0 0 1-1 1h-2.7c-.017.108-.036.215-.05.323l-1.339 9.999c-.17 1.27-.317 2.543-.522 3.807-.169 1.038-.805 1.553-1.82 1.554-5.714.004-11.428.007-17.142.007-.892 0-1.465-.415-1.752-1.265-1.17-3.467-2.346-6.933-3.495-10.408-.14-.424-.184-.897-.18-1.346.006-.62.385-1.055.99-1.204a3.89 3.89 0 0 1 .92-.091c6.861-.005 13.723-.004 20.585-.004h.494c.121-.955.29-1.87.339-2.791zm-18.988 8.495h17.94l.368-2.902H766.5l.84 2.902zm1.557 5.21c.019.062.12.112.194.14.06.024.136.006.205.006h15.315l.347-2.73h-16.832c.26.88.51 1.733.77 2.584zm2.93 4.349a2.785 2.785 0 0 1 2.776 2.778 2.793 2.793 0 0 1-2.78 2.779 2.776 2.776 0 0 1-2.786-2.8 2.768 2.768 0 0 1 2.79-2.757zm12.155 0a2.784 2.784 0 0 1 2.8 2.754c.018 1.532-1.249 2.804-2.79 2.803a2.78 2.78 0 0 1-2.778-2.776 2.77 2.77 0 0 1 2.768-2.781z"/>
    <style>
      .cls-1 {
        fill: #fff;
        fill-opacity: 0;
        stroke: #fff;
        stroke-linejoin: round;
        stroke-width: 3px;
        fill-rule: evenodd;
      }
    </style>
  <path id="n0pua" d="M763.995 1311.995l1.645 4.977 5.354-.01-4.337 3.066 1.664 4.97-4.326-3.082-4.326 3.082 1.665-4.97-4.338-3.066 5.354.01z"/><path id="lq00a" d="M453.808 1318.596l-.84-2.252h-.091l.292 2.215v6.335h-2.172v-12.907h1.77l3.668 6.444.416 1.174v-7.527h8.525l1.24 7.05.183 2.306h.073l.2-2.344 1.716-7.012h1.606l1.66 7.05.2 2.306h.074l.2-2.344 1.132-7.012h2.335l-2.864 12.908h-1.624l-1.789-7.067-.237-1.996h-.091l-.22 2.014-1.787 7.049h-1.697l-2.449-11.103v.319h-4.028v3.149h3.645v2.124h-3.645v3.295h4.101v2.124h-4.101v.092h-1.77l-.052-.092h-.536v-.943z"/><path id="9ex9a" d="M605.054 1314.477c.062-.116.117-.227.179-.334.32-.562.698-1.077 1.205-1.488a3.552 3.552 0 0 1 1.97-.787c.58-.051 1.144.01 1.693.2.454.158.864.392 1.232.7a3.908 3.908 0 0 1 1.392 2.63c.047.453.01.896-.123 1.33-.1.327-.246.632-.426.922-.332.535-.753.997-1.196 1.44l-2.19 2.187-2.087 2.083-1.589 1.591c-.006.006-.013.012-.018.019-.03.038-.053.04-.092.001-.63-.633-1.263-1.263-1.895-1.894l-1.511-1.511-1.677-1.673c-.323-.322-.647-.643-.966-.968a9.068 9.068 0 0 1-.83-.94 4.089 4.089 0 0 1-.564-1.01 3.184 3.184 0 0 1-.18-.816 3.87 3.87 0 0 1 .285-1.89c.208-.5.508-.938.899-1.312a3.876 3.876 0 0 1 1.95-1.026 4.003 4.003 0 0 1 1.989.096c.63.193 1.154.553 1.598 1.035.382.415.681.886.934 1.388l.018.027z"/><path id="wwaka" d="M936.585 1321.762c0-1.049 0-2.097-.002-3.146 0-.072.015-.093.085-.093 1.658.003 3.315.003 4.973 0 .068 0 .083.02.082.09v5.75c0 .184-.004.368 0 .551.002.068-.017.085-.08.085-1.155-.002-2.31-.001-3.466-.001-.51 0-1.02-.003-1.529.001-.068 0-.064-.034-.064-.082v-3.155zm10.799.001v3.163c.001.054-.01.073-.065.073-1.655-.002-3.31-.002-4.965 0-.078 0-.095-.023-.094-.101.002-1.92.001-3.839.001-5.758 0-.181.002-.362 0-.543-.001-.054.013-.074.067-.073.16.004.322.001.482.002l4.355.001c.053 0 .106.003.158-.003.053-.005.063.019.062.069-.002.207 0 .415 0 .622v2.548h-.001zm-9.274-6.666l-.032-.015a.295.295 0 0 0-.117-.066.144.144 0 0 0-.062-.041.012.012 0 0 0-.013-.006.067.067 0 0 0-.047-.03 1.893 1.893 0 0 1-.525-.541c-.373-.604-.285-1.497.2-1.964.225-.216.498-.322.792-.378a2.78 2.78 0 0 1 1.16.01 3.442 3.442 0 0 1 1.446.73c.44.368.783.82 1.023 1.358l.033.07.115-.236a3.667 3.667 0 0 1 1.69-1.674c.423-.209.87-.324 1.34-.312.318.008.634.047.933.182.38.17.632.462.743.883.144.543.058 1.044-.275 1.487-.198.264-.464.436-.752.57a4.977 4.977 0 0 1-1.174.356c-.63.122-1.265.205-1.901.267a7.918 7.918 0 0 1-1.632-.02c-.344-.038-.687-.086-1.03-.131-.03-.004-.06-.002-.09-.003-.081-.047-.17-.046-.257-.05-.067-.021-.136-.023-.205-.033a.18.18 0 0 0-.127-.027 1.569 1.569 0 0 0-.03-.004c-.013-.013-.029-.014-.045-.01l-.03-.005c-.078-.029-.16-.042-.242-.056l-.03-.005c-.027-.019-.059-.023-.09-.028l-.052-.01a.535.535 0 0 1-.023-.009c-.006 0-.01-.002-.016-.003-.008-.01-.017-.015-.029-.01l-.02-.005-.147-.047-.006-.003h-.007c-.008-.012-.019-.013-.031-.01l-.024-.008a.142.142 0 0 0-.083-.028l-.003-.004h-.005l-.323-.14zm-.15-.08zm2.095-.08l.026.002c.01.011.02.013.033.01.147.02.293.043.44.062.324.043.648.083.973.103.059.004.077-.01.06-.074-.14-.542-.374-1.029-.746-1.436a2.942 2.942 0 0 0-1.372-.868 2.166 2.166 0 0 0-1.028-.043c-.187.037-.369.086-.514.225-.244.233-.302.726-.132 1.059.13.254.344.403.579.523.295.152.611.238.93.307.188.04.375.09.567.1a.53.53 0 0 0 .184.03zm5.063-2.286c-.427 0-.816.1-1.203.313-.803.441-1.32 1.13-1.555 2.055-.025.098-.023.1.076.093.295-.02.59-.054.883-.093.49-.066.98-.128 1.462-.247.338-.083.669-.187.97-.378.348-.22.523-.54.48-.977-.03-.315-.177-.54-.466-.65a2.142 2.142 0 0 0-.647-.116zm.017 5.306c-.93 0-1.859-.001-2.788.001-.069 0-.087-.02-.087-.092.003-.578.003-1.155 0-1.733 0-.071.019-.089.085-.088.585.003 1.17 0 1.755.002l1.219.003c.861 0 1.723-.002 2.584-.004.096 0 .096 0 .096.103 0 .575-.001 1.15.001 1.725 0 .066-.016.084-.079.084-.929-.002-1.858-.001-2.786-.001zm-5.608-1.914c.052 0 .105.003.158.003.65 0 1.3.002 1.951-.001.071 0 .088.022.088.094-.003.578-.003 1.156 0 1.734 0 .064-.015.085-.079.085-1.404-.002-2.807-.003-4.211-.003-.45 0-.9 0-1.349.003-.063 0-.085-.011-.085-.086.003-.577.004-1.155 0-1.733 0-.08.023-.094.093-.094.907.002 1.813.002 2.72.001.178 0 .355.009.533-.005l.027.008c.038.022.073-.004.109-.008.014.007.03.01.045.002z"/><path id="uv9ha" d="M1320.5 29a5.5 5.5 0 1 1 0 11 5.5 5.5 0 0 1 0-11zm-4.5 5.5a4.5 4.5 0 1 0 9 0 4.5 4.5 0 0 0-9 0zm-.354 4.145l.707.707-4 4-.707-.707z"/><path id="ks93a" d="M185 153a9 9 0 1 1 0 18 9 9 0 0 1 0-18zm-8 9a8 8 0 1 0 16 0 8 8 0 0 0-16 0zm-.354 7.645l.707.707-4 4-.707-.707z"/></defs><symbol id="arrow-left-icon" viewBox="0 0 9 16"><g><g transform="translate(-253 -254)"><use fill="#fff" xlink:href="#4p8la"/></g></g></symbol><symbol id="cancel-search" viewBox="0 0 64 64">
  <g>
    <path fill="#1D1D1B" d="M28.941,31.786L0.613,60.114c-0.787,0.787-0.787,2.062,0,2.849c0.393,0.394,0.909,0.59,1.424,0.59   c0.516,0,1.031-0.196,1.424-0.59l28.541-28.541l28.541,28.541c0.394,0.394,0.909,0.59,1.424,0.59c0.515,0,1.031-0.196,1.424-0.59   c0.787-0.787,0.787-2.062,0-2.849L35.064,31.786L63.41,3.438c0.787-0.787,0.787-2.062,0-2.849c-0.787-0.786-2.062-0.786-2.848,0   L32.003,29.15L3.441,0.59c-0.787-0.786-2.061-0.786-2.848,0c-0.787,0.787-0.787,2.062,0,2.849L28.941,31.786z"/>
  </g>
</symbol><symbol id="cart" viewBox="0 0 30 25"><g><g transform="translate(-763 -1467)"><use fill="#fff" xlink:href="#j0e8a"/></g></g></symbol><symbol id="favorite" viewBox="0 0 34 29">
  
  <path id="&#x424;&#x438;&#x433;&#x443;&#x440;&#x430;_1455_&#x43A;&#x43E;&#x43F;&#x438;&#x44F;" data-name="&#x424;&#x438;&#x433;&#x443;&#x440;&#x430; 1455 &#x43A;&#x43E;&#x43F;&#x438;&#x44F;" class="cls-1" d="M847.483,1472.2c0.125-.23.237-0.44,0.36-0.66a10.308,10.308,0,0,1,2.43-2.94,7.261,7.261,0,0,1,3.973-1.55,8.389,8.389,0,0,1,3.413.39,7.875,7.875,0,0,1,2.484,1.39,7.719,7.719,0,0,1,2.3,3.13,7.627,7.627,0,0,1,.5,2.07,6.391,6.391,0,0,1-.248,2.62,7.5,7.5,0,0,1-.858,1.82,16.23,16.23,0,0,1-2.412,2.85l-4.414,4.32c-1.4,1.37-2.807,2.75-4.209,4.12q-1.6,1.575-3.2,3.14a0.184,0.184,0,0,1-.037.04c-0.061.08-.106,0.08-0.185,0-1.271-1.25-2.547-2.49-3.821-3.74-1.016-1-2.031-1.99-3.047-2.99l-3.381-3.3c-0.65-.64-1.3-1.27-1.947-1.91a18.857,18.857,0,0,1-1.673-1.86,8.021,8.021,0,0,1-1.139-2,6.159,6.159,0,0,1-.362-1.61,7.54,7.54,0,0,1,.575-3.74,7.653,7.653,0,0,1,1.812-2.59,7.911,7.911,0,0,1,3.931-2.03,8.38,8.38,0,0,1,4.011.19,7.237,7.237,0,0,1,3.222,2.05,11.926,11.926,0,0,1,1.884,2.74A0.539,0.539,0,0,0,847.483,1472.2Z" transform="translate(-830.469 -1465.5)"/>
</symbol><symbol id="leader" viewBox="0 0 14 13"><g><g transform="translate(-757 -1312)"><use xlink:href="#n0pua"/></g></g></symbol><symbol id="new" viewBox="0 0 25 13"><g><g transform="translate(-451 -1312)"><use xlink:href="#lq00a"/></g></g></symbol><symbol id="popular" viewBox="0 0 16 14"><g><g transform="translate(-597 -1311)"><use xlink:href="#9ex9a"/></g></g></symbol><symbol id="sale" viewBox="0 0 12 13"><g><g transform="translate(-936 -1312)"><use xlink:href="#wwaka"/></g></g></symbol><symbol id="search-icon" viewBox="0 0 15 15"><g><g transform="translate(-1311 -29)"><use xlink:href="#uv9ha"/></g></g></symbol><symbol id="search-orange-icon" viewBox="0 0 22 22"><g><g transform="translate(-172 -153)"><use fill="#ffa800" xlink:href="#ks93a"/></g></g></symbol></svg>