<svg id="SvgjsSvg1032" xmlns="http://www.w3.org/2000/svg" version="1.1" xmlns:xlink="http://www.w3.org/1999/xlink" xmlns:svgjs="http://svgjs.com/svgjs" width="76" height="76" viewBox="0 0 76 76"><title>Прямоугольник, скругл. углы 6 копия 6</title><desc>Created with Avocode.</desc><defs id="SvgjsDefs1033"><linearGradient id="SvgjsLinearGradient1036" gradientUnits="userSpaceOnUse" x1="918" y1="858" x2="994" y2="858"><stop id="SvgjsStop1037" stop-opacity="1" stop-color="#e13126" offset="0"></stop><stop id="SvgjsStop1038" stop-opacity="1" stop-color="#f9a64d" offset="1"></stop></linearGradient></defs><path id="SvgjsPath1034" d="M956 820C976.987 820 994 837.013 994 858C994 878.987 976.987 896 956 896C935.013 896 918 878.987 918 858C918 837.013 935.013 820 956 820ZM922 858C922 876.777 937.222 892 956 892C974.778 892 990 876.777 990 858C990 839.222 974.778 824 956 824C937.222 824 922 839.222 922 858ZM951.414 839.614L968.385 856.585C969.1659999999999 857.366 969.1659999999999 858.6320000000001 968.385 859.414C968.38497 859.41403 968.38494 859.41406 968.38491 859.41409L951.414 876.384C950.633 877.165 949.367 877.165 948.586 876.384C947.8050000000001 875.6030000000001 947.8050000000001 874.337 948.586 873.556L964.14158 857.9995L948.586 842.443C947.8050000000001 841.662 947.8050000000001 840.396 948.586 839.614C949.367 838.8340000000001 950.633 838.8340000000001 951.414 839.614Z " fill="#ffffff" fill-opacity="1" transform="matrix(1,0,0,1,-918,-820)"></path><path id="SvgjsPath1035" d="M956 820C976.987 820 994 837.013 994 858C994 878.987 976.987 896 956 896C935.013 896 918 878.987 918 858C918 837.013 935.013 820 956 820ZM922 858C922 876.777 937.222 892 956 892C974.778 892 990 876.777 990 858C990 839.222 974.778 824 956 824C937.222 824 922 839.222 922 858ZM951.414 839.614L968.385 856.585C969.1659999999999 857.366 969.1659999999999 858.6320000000001 968.385 859.414C968.38497 859.41403 968.38494 859.41406 968.38491 859.41409L951.414 876.384C950.633 877.165 949.367 877.165 948.586 876.384C947.8050000000001 875.6030000000001 947.8050000000001 874.337 948.586 873.556L964.14158 857.9995L948.586 842.443C947.8050000000001 841.662 947.8050000000001 840.396 948.586 839.614C949.367 838.8340000000001 950.633 838.8340000000001 951.414 839.614Z " fill="url(#SvgjsLinearGradient1036)" transform="matrix(1,0,0,1,-918,-820)"></path></svg>