<svg xmlns="http://www.w3.org/2000/svg" xmlns:xlink="http://www.w3.org/1999/xlink" preserveAspectRatio="xMidYMid" width="38" height="38" viewBox="0 0 38 38">
  <defs>
    <style>
      .cls-1 {
        fill: #fff;
        fill-rule: evenodd;
      }
    </style>
  </defs>
  <path d="M19.000,38.000 C8.507,38.000 -0.000,29.493 -0.000,19.000 C-0.000,8.507 8.507,-0.000 19.000,-0.000 C29.493,-0.000 38.000,8.507 38.000,19.000 C38.000,29.493 29.493,38.000 19.000,38.000 ZM19.000,4.000 C10.716,4.000 4.000,10.716 4.000,19.000 C4.000,27.284 10.716,34.000 19.000,34.000 C27.284,34.000 34.000,27.284 34.000,19.000 C34.000,10.716 27.284,4.000 19.000,4.000 ZM20.826,25.421 C20.051,26.173 18.794,26.173 18.019,25.421 L10.596,18.255 C9.821,17.504 9.821,16.285 10.596,15.533 C11.371,14.782 12.628,14.782 13.403,15.533 L19.422,21.344 L25.441,15.533 C26.216,14.782 27.473,14.782 28.249,15.533 L28.539,15.251 C29.315,16.003 29.024,17.504 28.249,18.255 L20.826,25.421 Z" class="cls-1"/>
</svg>
