<svg id="SvgjsSvg1059" xmlns="http://www.w3.org/2000/svg" version="1.1" xmlns:xlink="http://www.w3.org/1999/xlink" xmlns:svgjs="http://svgjs.com/svgjs" width="23" height="16" viewBox="0 0 23 16"><title>Прямоугольник, скругл. углы 6 копия 5</title><desc>Created with Avocode.</desc><defs id="SvgjsDefs1060"><linearGradient id="SvgjsLinearGradient1063" gradientUnits="userSpaceOnUse" x1="171.01475000000002" y1="4120.49" x2="193.99577972038693" y2="4120.49"><stop id="SvgjsStop1064" stop-opacity="1" stop-color="#e13126" offset="0"></stop><stop id="SvgjsStop1065" stop-opacity="1" stop-color="#f9a64d" offset="1"></stop></linearGradient></defs><path id="SvgjsPath1061" d="M174.404 4117.56L180.41321 4123.34899L190.441 4113.56C191.217 4112.81 192.473 4112.81 193.249 4113.56L193.54 4113.280000000001C194.315 4114.030000000001 194.024 4115.530000000001 193.249 4116.280000000001L181.83705 4127.4092200000005C181.83338 4127.4128200000005 181.8297 4127.4164200000005 181.826 4127.42C181.051 4128.17 179.79399999999998 4128.17 179.019 4127.42L171.596 4120.28C170.821 4119.53 170.821 4118.3099999999995 171.596 4117.5599999999995C172.371 4116.8099999999995 173.62800000000001 4116.8099999999995 174.404 4117.5599999999995Z " fill="#ffffff" fill-opacity="1" transform="matrix(1,0,0,1,-171,-4112)"></path><path id="SvgjsPath1062" d="M174.404 4117.56L180.41321 4123.34899L190.441 4113.56C191.217 4112.81 192.473 4112.81 193.249 4113.56L193.54 4113.280000000001C194.315 4114.030000000001 194.024 4115.530000000001 193.249 4116.280000000001L181.83705 4127.4092200000005C181.83338 4127.4128200000005 181.8297 4127.4164200000005 181.826 4127.42C181.051 4128.17 179.79399999999998 4128.17 179.019 4127.42L171.596 4120.28C170.821 4119.53 170.821 4118.3099999999995 171.596 4117.5599999999995C172.371 4116.8099999999995 173.62800000000001 4116.8099999999995 174.404 4117.5599999999995Z " fill="url(#SvgjsLinearGradient1063)" transform="matrix(1,0,0,1,-171,-4112)"></path></svg>