<svg id="SvgjsSvg1208" xmlns="http://www.w3.org/2000/svg" version="1.1" xmlns:xlink="http://www.w3.org/1999/xlink" xmlns:svgjs="http://svgjs.com/svgjs" width="160" height="81" viewBox="0 0 160 81"><title>Фигура 1</title><desc>Created with Avocode.</desc><defs id="SvgjsDefs1209"></defs><path id="SvgjsPath1210" d="M715.171 5246.48L706.1590000000001 5246.48L706.1590000000001 5244.0599999999995C706.4600000000002 5244.23 706.6300000000001 5244.349999999999 706.6340000000001 5244.349999999999C706.8660000000001 5244.5199999999995 707.1350000000001 5244.599999999999 707.4000000000001 5244.599999999999C707.8100000000001 5244.599999999999 708.214 5244.41 708.4710000000001 5244.049999999999C708.8950000000001 5243.459999999999 708.7650000000001 5242.639999999999 708.1770000000001 5242.209999999999C708.1340000000001 5242.179999999999 707.0970000000001 5241.429999999999 705.3530000000002 5240.7699999999995C704.2120000000002 5240.33 702.5230000000001 5239.919999999999 700.8860000000002 5239.639999999999L700.8860000000002 5228.98C701.0180000000001 5228.99 701.1410000000002 5229 701.2820000000002 5229C704.0250000000002 5229 706.0160000000002 5226.71 706.0160000000002 5223.56C706.0160000000002 5223.43 706.0060000000002 5223.3 705.9990000000001 5223.17L712.1250000000001 5223.17C712.1300000000001 5223.17 712.1340000000001 5223.17 712.1390000000001 5223.17C712.5610000000001 5223.16 712.9750000000001 5222.96 713.2220000000001 5222.58C713.613 5221.98 713.445 5221.17 712.849 5220.78L682.849 5201.05L652.8480000000001 5220.78C652.2520000000001 5221.17 652.0840000000001 5221.98 652.475 5222.58C652.722 5222.96 653.136 5223.16 653.558 5223.17C653.563 5223.17 653.568 5223.17 653.572 5223.17L659.698 5223.17C659.691 5223.3 659.6809999999999 5223.43 659.6809999999999 5223.56C659.6809999999999 5226.71 661.6719999999999 5229 664.415 5229C664.5559999999999 5229 664.679 5228.99 664.8109999999999 5228.98L664.8109999999999 5239.639999999999C663.174 5239.919999999999 661.4849999999999 5240.329999999999 660.3449999999999 5240.7699999999995C658.5999999999999 5241.429999999999 657.5629999999999 5242.179999999999 657.5199999999999 5242.209999999999C656.9319999999999 5242.639999999999 656.8019999999999 5243.459999999999 657.2259999999999 5244.049999999999C657.4829999999998 5244.409999999999 657.8869999999998 5244.599999999999 658.2969999999999 5244.599999999999C658.5629999999999 5244.599999999999 658.8309999999999 5244.5199999999995 659.0629999999999 5244.349999999999C659.0669999999999 5244.349999999999 659.2369999999999 5244.23 659.5379999999999 5244.0599999999995L659.5379999999999 5246.48L650.5259999999998 5246.48C649.8139999999999 5246.48 649.2299999999998 5247.07 649.2299999999998 5247.78C649.2299999999998 5248.5 649.8139999999997 5249.08 650.5259999999998 5249.08L660.8339999999998 5249.08C661.1019999999999 5249.08 661.3509999999999 5249 661.5579999999999 5248.86C661.7649999999999 5248.719999999999 661.9289999999999 5248.5199999999995 662.0279999999999 5248.29C662.0939999999999 5248.13 662.1299999999999 5247.96 662.1299999999999 5247.78L662.1299999999999 5242.96C662.9149999999998 5242.72 663.8609999999999 5242.5 664.8109999999999 5242.33L664.8109999999999 5247.78C664.8109999999999 5247.96 664.848 5248.13 664.9129999999999 5248.29C665.012 5248.5199999999995 665.1769999999999 5248.72 665.3839999999999 5248.86C665.5909999999999 5249 665.8399999999999 5249.08 666.1069999999999 5249.08L671.3189999999998 5249.08C671.5859999999999 5249.08 671.8349999999998 5249 672.0419999999998 5248.86C672.2489999999998 5248.719999999999 672.4139999999998 5248.5199999999995 672.5129999999998 5248.29C672.5789999999998 5248.13 672.6149999999998 5247.96 672.6149999999998 5247.78L672.6149999999998 5241.32C674.9639999999998 5240.53 676.2539999999998 5238.99 676.2539999999998 5236.849999999999C676.2539999999998 5234.209999999999 674.2199999999998 5232.919999999999 672.6149999999998 5232.45L672.6149999999998 5226.3099999999995C672.6169999999997 5226.2 672.6189999999998 5226.099999999999 672.6199999999998 5225.99L672.6369999999998 5224.55C672.6369999999998 5224.5 672.6289999999998 5224.46 672.6249999999999 5224.41C672.6269999999998 5224.389999999999 672.6329999999999 5224.38 672.6339999999999 5224.36C672.6349999999999 5224.339999999999 672.805 5222.339999999999 674.0859999999999 5220.2699999999995C674.9859999999999 5218.8099999999995 677.6429999999999 5215.419999999999 682.8489999999999 5215.419999999999C688.054 5215.419999999999 690.7109999999999 5218.8099999999995 691.6109999999999 5220.2699999999995C692.8919999999998 5222.339999999999 693.0619999999999 5224.339999999999 693.0629999999999 5224.36C693.0649999999998 5224.38 693.0699999999998 5224.389999999999 693.0719999999999 5224.41C693.0679999999999 5224.46 693.06 5224.5 693.06 5224.55L693.077 5225.99C693.078 5226.099999999999 693.08 5226.2 693.082 5226.3099999999995L693.082 5232.45C691.477 5232.92 689.443 5234.21 689.443 5236.849999999999C689.443 5238.99 690.733 5240.53 693.082 5241.32L693.082 5247.78C693.082 5247.96 693.119 5248.13 693.184 5248.29C693.283 5248.5199999999995 693.448 5248.72 693.655 5248.86C693.862 5249 694.111 5249.08 694.3779999999999 5249.08L699.5899999999999 5249.08C699.857 5249.08 700.1059999999999 5249 700.3129999999999 5248.86C700.5199999999999 5248.719999999999 700.6849999999998 5248.5199999999995 700.7839999999999 5248.29C700.8499999999999 5248.13 700.8859999999999 5247.96 700.8859999999999 5247.78L700.8859999999999 5242.33C701.8359999999999 5242.5 702.7819999999998 5242.72 703.5669999999999 5242.96L703.5669999999999 5247.78C703.5669999999999 5247.96 703.6029999999998 5248.13 703.6689999999999 5248.29C703.7679999999999 5248.5199999999995 703.9329999999999 5248.72 704.1389999999999 5248.86C704.3459999999999 5249 704.5959999999999 5249.08 704.8629999999999 5249.08L715.1709999999999 5249.08C715.8839999999999 5249.08 716.467 5248.5 716.467 5247.78C716.467 5247.07 715.884 5246.48 715.1709999999999 5246.48ZM690.972 5210.93C690.581 5210.93 690.121 5210.950000000001 689.6279999999999 5210.9800000000005C688.4379999999999 5211.06 686.444 5211.17 685.843 5210.610000000001C685.788 5210.55 685.6429999999999 5210.420000000001 685.6429999999999 5209.960000000001C685.6429999999999 5209.570000000001 685.8509999999999 5209.370000000001 686.261 5209.370000000001C686.295 5209.390000000001 686.4019999999999 5209.4800000000005 686.4549999999999 5209.550000000001C686.871 5210.140000000001 687.6869999999999 5210.300000000001 688.2779999999999 5209.890000000001C688.8689999999999 5209.490000000002 689.0419999999999 5208.700000000002 688.6549999999999 5208.100000000001C688.6339999999999 5208.060000000001 688.5709999999999 5207.970000000001 688.4759999999999 5207.8600000000015L707.7959999999999 5220.5700000000015L705.3269999999999 5220.5700000000015C705.0909999999999 5220.090000000002 704.8009999999999 5219.6500000000015 704.4539999999998 5219.250000000002C703.6319999999998 5218.310000000002 702.1209999999999 5217.190000000001 699.5899999999998 5217.190000000001C698.6149999999998 5217.190000000001 697.7359999999998 5217.340000000001 696.9559999999998 5217.640000000001C696.9719999999998 5217.390000000001 696.9919999999997 5217.1500000000015 696.9919999999997 5216.890000000001C696.9919999999997 5214.080000000001 694.4179999999998 5210.930000000001 690.9719999999998 5210.930000000001ZM679.854 5210.61C679.253 5211.17 677.26 5211.0599999999995 676.0690000000001 5210.98C675.576 5210.95 675.1170000000001 5210.929999999999 674.725 5210.929999999999C671.28 5210.929999999999 668.705 5214.079999999999 668.705 5216.889999999999C668.705 5217.15 668.725 5217.389999999999 668.741 5217.639999999999C667.961 5217.339999999999 667.082 5217.19 666.107 5217.19C663.577 5217.19 662.0649999999999 5218.3099999999995 661.2429999999999 5219.25C660.896 5219.65 660.606 5220.09 660.371 5220.57L657.901 5220.57L677.221 5207.86C677.126 5207.969999999999 677.063 5208.0599999999995 677.043 5208.099999999999C676.655 5208.7 676.828 5209.49 677.42 5209.889999999999C678.01 5210.299999999999 678.8259999999999 5210.139999999999 679.242 5209.549999999999C679.295 5209.48 679.4019999999999 5209.389999999999 679.4359999999999 5209.369999999999C679.8459999999999 5209.369999999999 680.054 5209.569999999999 680.054 5209.959999999999C680.054 5210.419999999999 679.909 5210.549999999999 679.8539999999999 5210.609999999999ZM670.023 5239.19C669.361 5239.259999999999 668.735 5239.28 668.2810000000001 5239.28C668.013 5239.28 667.7170000000001 5239.3 667.403 5239.32L667.403 5228.179999999999C667.789 5227.9 668.061 5227.579999999999 668.248 5227.289999999999C669.45 5225.399999999999 668.346 5222.889999999999 668.216 5222.609999999999C667.909 5221.949999999999 667.125 5221.659999999999 666.465 5221.969999999998C665.8050000000001 5222.279999999999 665.519 5223.059999999999 665.827 5223.729999999999C666.056 5224.219999999998 666.35 5225.359999999999 666.026 5225.869999999999C665.756 5226.289999999999 664.901 5226.359999999999 664.415 5226.359999999999C662.9739999999999 5226.359999999999 662.317 5224.899999999999 662.317 5223.559999999999C662.317 5222.589999999998 662.648 5221.649999999999 663.225 5220.989999999999C663.898 5220.219999999998 664.868 5219.829999999999 666.107 5219.829999999999C667.338 5219.829999999999 668.249 5220.159999999999 668.8919999999999 5220.839999999999C669.1429999999999 5221.099999999999 669.3349999999999 5221.4 669.486 5221.709999999999C669.734 5222.7699999999995 669.941 5223.8099999999995 669.941 5225.039999999999C669.941 5225.929999999999 669.943 5226.519999999999 669.945 5226.899999999999C669.947 5227.089999999998 669.95 5227.399999999999 670.023 5227.709999999999ZM682.849 5212.78C682.269 5212.78 681.7220000000001 5212.82 681.192 5212.889999999999C681.355 5212.78 681.517 5212.669999999999 681.662 5212.53C682.1310000000001 5212.09 682.69 5211.28 682.69 5209.96C682.69 5207.86 681.014 5206.7300000000005 679.436 5206.7300000000005C679.2080000000001 5206.7300000000005 679 5206.77 678.803 5206.820000000001L682.849 5204.160000000001L686.894 5206.820000000001C686.697 5206.77 686.489 5206.7300000000005 686.261 5206.7300000000005C684.684 5206.7300000000005 683.007 5207.860000000001 683.007 5209.96C683.007 5211.28 683.5659999999999 5212.09 684.035 5212.53C684.18 5212.67 684.342 5212.78 684.505 5212.889999999999C683.975 5212.82 683.429 5212.78 682.849 5212.78ZM671.846 5218.87C671.768 5219 671.695 5219.12 671.623 5219.25C671.4620000000001 5218.49 671.341 5217.72 671.341 5216.89C671.341 5215.570000000001 672.691 5213.570000000001 674.725 5213.570000000001C675.071 5213.570000000001 675.477 5213.6 675.913 5213.620000000001C676.569 5213.660000000001 677.279 5213.700000000001 677.988 5213.6900000000005C674.5880000000001 5215.040000000001 672.653 5217.570000000001 671.846 5218.870000000001ZM694.074 5219.25C694.002 5219.12 693.929 5219 693.851 5218.87C693.044 5217.57 691.109 5215.04 687.709 5213.69C688.4179999999999 5213.7 689.1279999999999 5213.66 689.784 5213.62C690.22 5213.599999999999 690.626 5213.57 690.972 5213.57C693.006 5213.57 694.356 5215.57 694.356 5216.889999999999C694.356 5217.719999999999 694.235 5218.49 694.074 5219.249999999999ZM670.023 5246.48L667.403 5246.48L667.403 5241.969999999999C667.7230000000001 5241.94 668.0210000000001 5241.929999999999 668.2810000000001 5241.929999999999C668.8940000000001 5241.929999999999 669.474 5241.9 670.023 5241.849999999999ZM698.294 5246.48L695.674 5246.48L695.674 5241.849999999999C696.223 5241.9 696.803 5241.929999999999 697.417 5241.929999999999C697.677 5241.929999999999 697.975 5241.94 698.294 5241.969999999999ZM693.082 5238.44C692.485 5238.08 692.079 5237.57 692.079 5236.849999999999C692.079 5236.049999999999 692.5619999999999 5235.57 693.082 5235.28ZM673.618 5236.85C673.618 5237.570000000001 673.2120000000001 5238.08 672.615 5238.4400000000005L672.615 5235.280000000001C673.135 5235.570000000001 673.618 5236.050000000001 673.618 5236.85ZM699.671 5225.87C699.3470000000001 5225.36 699.6410000000001 5224.22 699.8710000000001 5223.73C700.1780000000001 5223.0599999999995 699.892 5222.28 699.2320000000001 5221.969999999999C698.5720000000001 5221.659999999999 697.7880000000001 5221.949999999999 697.4810000000001 5222.61C697.3510000000001 5222.889999999999 696.2470000000001 5225.4 697.4490000000001 5227.29C697.6370000000001 5227.58 697.908 5227.9 698.2940000000001 5228.18L698.2940000000001 5239.320000000001C697.9800000000001 5239.3 697.6850000000001 5239.280000000001 697.4170000000001 5239.280000000001C696.9620000000001 5239.280000000001 696.3360000000001 5239.26 695.6740000000001 5239.1900000000005L695.6740000000001 5227.710000000001C695.748 5227.400000000001 695.7510000000001 5227.090000000001 695.7520000000001 5226.900000000001C695.754 5226.52 695.7560000000001 5225.93 695.7560000000001 5225.040000000001C695.7560000000001 5223.810000000001 695.9630000000001 5222.77 696.2110000000001 5221.710000000001C696.3620000000001 5221.400000000001 696.5540000000001 5221.100000000001 696.8050000000002 5220.840000000001C697.4480000000002 5220.160000000001 698.3590000000002 5219.830000000001 699.5900000000001 5219.830000000001C700.8290000000002 5219.830000000001 701.7990000000001 5220.220000000001 702.4720000000001 5220.990000000001C703.0490000000001 5221.650000000001 703.3800000000001 5222.590000000001 703.3800000000001 5223.56C703.3800000000001 5224.900000000001 702.7240000000002 5226.360000000001 701.2820000000002 5226.360000000001C700.7960000000002 5226.360000000001 699.9410000000001 5226.290000000001 699.6710000000002 5225.870000000001Z " fill="#ffffff" fill-opacity="1" transform="matrix(1,0,0,1,-603,-5201)"></path><path id="SvgjsPath1211" d="M726.629 5272.07C726.99 5272.07 727.331 5272.009999999999 727.653 5271.889999999999C727.974 5271.789999999999 728.255 5271.629999999999 728.5160000000001 5271.429999999999C728.777 5271.23 728.998 5270.99 729.1790000000001 5270.719999999999C729.3600000000001 5270.44 729.5000000000001 5270.139999999999 729.5810000000001 5269.799999999999C729.6010000000001 5269.699999999999 729.6610000000002 5269.489999999999 729.7410000000001 5269.19C729.8220000000001 5268.889999999999 729.902 5268.53 730.0020000000001 5268.08C730.123 5267.66 730.2230000000001 5267.2 730.364 5266.67C730.484 5266.17 730.625 5265.65 730.745 5265.12C731.047 5263.91 731.388 5262.54 731.75 5261.05L732.834 5261.05L732.834 5259.16L728.7769999999999 5259.16L728.7769999999999 5261.05L729.7209999999999 5261.05L728.2749999999999 5266.900000000001L726.6289999999999 5266.900000000001L725.1829999999999 5261.05L726.1059999999999 5261.05L726.1059999999999 5259.16L722.0499999999998 5259.16L722.0499999999998 5261.05L723.1339999999998 5261.05L725.0219999999998 5268.63L727.9139999999999 5268.63C727.9139999999999 5268.71 727.9139999999999 5268.77 727.9139999999999 5268.83C727.8939999999999 5268.93 727.8539999999999 5269.09 727.7729999999999 5269.25C727.6929999999999 5269.47 727.5319999999999 5269.66 727.3309999999999 5269.8C727.1309999999999 5269.9400000000005 726.8899999999999 5270.02 726.6289999999999 5270.02L725.1829999999999 5270.02L725.1829999999999 5271.910000000001ZM659.091 5257.61L660.336 5257.61L660.336 5259.759999999999C659.975 5259.5599999999995 659.553 5259.379999999999 659.091 5259.239999999999C658.629 5259.0999999999985 658.147 5259.019999999999 657.645 5259.019999999999C657.002 5259.019999999999 656.4 5259.119999999999 655.817 5259.339999999998C655.235 5259.559999999999 654.7330000000001 5259.859999999999 654.291 5260.289999999998C653.849 5260.709999999998 653.508 5261.229999999998 653.2470000000001 5261.819999999998C652.9860000000001 5262.419999999998 652.845 5263.129999999998 652.845 5263.909999999998C652.845 5264.6799999999985 652.986 5265.359999999998 653.287 5265.969999999998C653.5880000000001 5266.549999999998 653.95 5267.059999999999 654.412 5267.479999999999C654.874 5267.899999999999 655.3960000000001 5268.209999999998 655.9580000000001 5268.4299999999985C656.5200000000001 5268.649999999999 657.0830000000001 5268.749999999998 657.6450000000001 5268.749999999998C658.3080000000001 5268.749999999998 658.8700000000001 5268.649999999998 659.3520000000001 5268.4299999999985C659.8140000000001 5268.229999999999 660.195 5267.999999999998 660.4970000000001 5267.759999999998L660.657 5268.629999999998L663.4490000000001 5268.629999999998L663.4490000000001 5266.749999999998L662.224 5266.749999999998L662.224 5255.729999999998L659.091 5255.729999999998ZM616.817 5269.31L616.817 5271.25C617.058 5271.43 617.339 5271.59 617.681 5271.73C618.042 5271.849999999999 618.404 5271.969999999999 618.7850000000001 5272.049999999999C619.1870000000001 5272.15 619.589 5272.209999999999 620.0100000000001 5272.259999999999C620.4120000000001 5272.299999999999 620.8130000000001 5272.32 621.195 5272.32C621.8580000000001 5272.32 622.44 5272.259999999999 622.9820000000001 5272.11C623.5250000000001 5271.969999999999 623.9870000000001 5271.75 624.368 5271.469999999999C624.75 5271.169999999999 625.051 5270.78 625.272 5270.299999999999C625.493 5269.839999999999 625.5930000000001 5269.2699999999995 625.5930000000001 5268.61L625.5930000000001 5259.16L624.027 5259.16L623.926 5259.84C623.605 5259.64 623.183 5259.4400000000005 622.6610000000001 5259.26C622.1590000000001 5259.08 621.557 5258.9800000000005 620.854 5258.9800000000005C620.311 5258.9800000000005 619.749 5259.1 619.187 5259.320000000001C618.645 5259.540000000001 618.143 5259.860000000001 617.701 5260.27C617.259 5260.6900000000005 616.897 5261.21 616.636 5261.820000000001C616.355 5262.420000000001 616.2149999999999 5263.110000000001 616.2149999999999 5263.870000000001C616.2149999999999 5264.620000000001 616.3549999999999 5265.300000000001 616.636 5265.910000000001C616.918 5266.510000000001 617.299 5267.02 617.781 5267.4400000000005C618.2629999999999 5267.860000000001 618.8249999999999 5268.210000000001 619.468 5268.43C620.091 5268.67 620.7729999999999 5268.77 621.476 5268.77C621.858 5268.77 622.219 5268.7300000000005 622.601 5268.63C622.982 5268.51 623.364 5268.37 623.705 5268.14L623.705 5268.63C623.705 5268.89 623.6650000000001 5269.150000000001 623.585 5269.37C623.484 5269.62 623.344 5269.8 623.143 5269.98C622.942 5270.139999999999 622.681 5270.28 622.38 5270.36C622.059 5270.46 621.657 5270.5 621.195 5270.5C620.773 5270.5 620.311 5270.46 619.87 5270.38C619.428 5270.3 619.006 5270.18 618.645 5270.04L618.544 5269.31ZM603 5263.87C603 5264.62 603.141 5265.3 603.442 5265.91C603.743 5266.51 604.125 5267.0199999999995 604.627 5267.44C605.1089999999999 5267.86 605.6709999999999 5268.21 606.314 5268.429999999999C606.957 5268.669999999999 607.6189999999999 5268.7699999999995 608.302 5268.7699999999995C609.025 5268.7699999999995 609.688 5268.669999999999 610.33 5268.429999999999C610.9730000000001 5268.209999999999 611.5350000000001 5267.86 612.017 5267.44C612.499 5267.0199999999995 612.8810000000001 5266.509999999999 613.162 5265.91C613.443 5265.3 613.5840000000001 5264.62 613.5840000000001 5263.87C613.5840000000001 5263.11 613.4430000000001 5262.42 613.162 5261.82C612.8810000000001 5261.21 612.499 5260.69 612.017 5260.2699999999995C611.5350000000001 5259.86 610.9730000000001 5259.54 610.33 5259.32C609.688 5259.099999999999 609.0250000000001 5258.98 608.302 5258.98C607.619 5258.98 606.957 5259.099999999999 606.314 5259.32C605.6709999999999 5259.54 605.1089999999999 5259.86 604.627 5260.2699999999995C604.125 5260.69 603.7429999999999 5261.209999999999 603.442 5261.82C603.141 5262.42 603 5263.11 603 5263.87ZM709.659 5263.87C709.659 5264.62 709.799 5265.3 710.101 5265.91C710.382 5266.51 710.783 5267.0199999999995 711.285 5267.44C711.7669999999999 5267.86 712.3299999999999 5268.21 712.972 5268.429999999999C713.615 5268.669999999999 714.278 5268.7699999999995 714.961 5268.7699999999995C715.684 5268.7699999999995 716.346 5268.669999999999 716.989 5268.429999999999C717.6320000000001 5268.209999999999 718.1940000000001 5267.86 718.676 5267.44C719.138 5267.0199999999995 719.519 5266.509999999999 719.821 5265.91C720.102 5265.3 720.2420000000001 5264.62 720.2420000000001 5263.87C720.2420000000001 5263.11 720.1020000000001 5262.42 719.821 5261.82C719.519 5261.21 719.138 5260.69 718.676 5260.2699999999995C718.1940000000001 5259.86 717.6320000000001 5259.54 716.989 5259.32C716.346 5259.099999999999 715.6840000000001 5258.98 714.961 5258.98C714.278 5258.98 713.615 5259.099999999999 712.972 5259.32C712.3299999999999 5259.54 711.7669999999999 5259.86 711.285 5260.2699999999995C710.783 5260.69 710.382 5261.209999999999 710.101 5261.82C709.799 5262.42 709.659 5263.11 709.659 5263.87ZM650.255 5268.63L650.255 5266.75L649.03 5266.75L649.03 5262.87C649.03 5262.14 648.929 5261.5199999999995 648.7479999999999 5261.03C648.568 5260.53 648.3069999999999 5260.13 647.9449999999999 5259.82C647.6039999999999 5259.5199999999995 647.1619999999999 5259.32 646.6199999999999 5259.179999999999C646.0769999999999 5259.0599999999995 645.4549999999999 5258.98 644.7319999999999 5258.98C644.3499999999999 5258.98 643.9489999999998 5259.0199999999995 643.5669999999999 5259.08C643.1649999999998 5259.14 642.7839999999999 5259.22 642.4019999999999 5259.32C642.0409999999999 5259.44 641.679 5259.5599999999995 641.358 5259.719999999999C641.0169999999999 5259.86 640.7349999999999 5260.039999999999 640.4939999999999 5260.209999999999L640.4939999999999 5262.299999999999L642.2219999999999 5262.299999999999L642.3419999999999 5261.209999999999C642.6629999999999 5261.049999999999 643.0449999999998 5260.949999999999 643.4669999999999 5260.909999999999C643.8679999999998 5260.8499999999985 644.2899999999998 5260.829999999999 644.7319999999999 5260.829999999999C645.2139999999998 5260.829999999999 645.6159999999999 5260.869999999999 645.9169999999998 5260.929999999999C646.2379999999998 5261.009999999999 646.4789999999998 5261.129999999999 646.6599999999999 5261.289999999999C646.8199999999998 5261.439999999999 646.9609999999999 5261.639999999999 647.0209999999998 5261.879999999999C647.0819999999999 5262.119999999999 647.1219999999998 5262.4 647.1419999999998 5262.719999999999L643.0049999999999 5262.719999999999C642.6229999999999 5262.719999999999 642.2219999999999 5262.8099999999995 641.8399999999999 5262.949999999999C641.478 5263.069999999999 641.137 5263.269999999999 640.8359999999999 5263.529999999999C640.5349999999999 5263.789999999999 640.2939999999999 5264.089999999999 640.1129999999999 5264.459999999999C639.9319999999999 5264.819999999999 639.832 5265.219999999999 639.832 5265.669999999999C639.832 5266.009999999999 639.8919999999999 5266.349999999999 639.992 5266.709999999999C640.093 5267.079999999999 640.274 5267.399999999999 640.555 5267.699999999999C640.8359999999999 5267.999999999999 641.2379999999999 5268.269999999999 641.7189999999999 5268.449999999999C642.222 5268.649999999999 642.8639999999999 5268.749999999999 643.6469999999999 5268.749999999999C644.4309999999999 5268.749999999999 645.1339999999999 5268.609999999999 645.756 5268.329999999999C646.379 5268.039999999999 646.901 5267.679999999999 647.302 5267.259999999999L647.604 5268.629999999999ZM676.061 5268.63L676.061 5266.75L674.836 5266.75L674.836 5262.87C674.836 5262.14 674.735 5261.5199999999995 674.554 5261.03C674.394 5260.53 674.1129999999999 5260.13 673.771 5259.82C673.41 5259.5199999999995 672.968 5259.32 672.4259999999999 5259.179999999999C671.9039999999999 5259.0599999999995 671.261 5258.98 670.5379999999999 5258.98C670.156 5258.98 669.7749999999999 5259.0199999999995 669.3729999999999 5259.08C668.972 5259.14 668.5899999999999 5259.22 668.208 5259.32C667.847 5259.44 667.485 5259.5599999999995 667.164 5259.719999999999C666.843 5259.86 666.542 5260.039999999999 666.3009999999999 5260.209999999999L666.3009999999999 5262.299999999999L668.0279999999999 5262.299999999999L668.1479999999999 5261.209999999999C668.4899999999999 5261.049999999999 668.8509999999999 5260.949999999999 669.2729999999999 5260.909999999999C669.6739999999999 5260.8499999999985 670.1159999999999 5260.829999999999 670.5379999999999 5260.829999999999C671.0199999999999 5260.829999999999 671.4219999999999 5260.869999999999 671.7229999999998 5260.929999999999C672.0439999999999 5261.009999999999 672.2849999999999 5261.129999999999 672.4659999999999 5261.289999999999C672.6469999999999 5261.439999999999 672.7669999999999 5261.639999999999 672.8269999999999 5261.879999999999C672.8879999999999 5262.119999999999 672.9279999999999 5262.4 672.9479999999999 5262.719999999999L668.8109999999999 5262.719999999999C668.429 5262.719999999999 668.0279999999999 5262.8099999999995 667.6659999999999 5262.949999999999C667.285 5263.069999999999 666.943 5263.269999999999 666.6419999999999 5263.529999999999C666.3409999999999 5263.789999999999 666.0999999999999 5264.089999999999 665.919 5264.459999999999C665.7379999999999 5264.819999999999 665.658 5265.219999999999 665.658 5265.669999999999C665.658 5266.009999999999 665.698 5266.349999999999 665.798 5266.709999999999C665.899 5267.079999999999 666.1 5267.399999999999 666.381 5267.699999999999C666.6619999999999 5267.999999999999 667.044 5268.269999999999 667.526 5268.449999999999C668.0279999999999 5268.649999999999 668.67 5268.749999999999 669.453 5268.749999999999C670.237 5268.749999999999 670.9399999999999 5268.609999999999 671.562 5268.329999999999C672.1850000000001 5268.039999999999 672.707 5267.679999999999 673.1080000000001 5267.259999999999L673.4100000000001 5268.629999999999ZM687.95 5265.63C687.95 5265.16 687.849 5264.78 687.6880000000001 5264.46C687.5080000000002 5264.12 687.2060000000001 5263.85 686.8050000000001 5263.63C686.403 5263.41 685.8810000000001 5263.2300000000005 685.238 5263.09C684.6160000000001 5262.93 683.8330000000001 5262.81 682.9290000000001 5262.7C681.3420000000001 5262.5 680.5390000000001 5262.16 680.5390000000001 5261.639999999999C680.5390000000001 5261.5199999999995 680.599 5261.389999999999 680.7200000000001 5261.289999999999C680.8400000000001 5261.169999999999 681.0010000000001 5261.089999999999 681.2220000000001 5261.009999999999C681.4430000000001 5260.949999999999 681.6840000000001 5260.889999999999 681.9650000000001 5260.849999999999C682.2460000000001 5260.8099999999995 682.5670000000001 5260.789999999999 682.8890000000001 5260.789999999999C683.3510000000001 5260.789999999999 683.7920000000001 5260.829999999999 684.2540000000001 5260.909999999999C684.7160000000001 5260.969999999999 685.1380000000001 5261.089999999999 685.4990000000001 5261.249999999999L685.7200000000001 5262.139999999999L687.2870000000001 5262.139999999999L687.2870000000001 5260.07C687.0460000000002 5259.9 686.7450000000001 5259.759999999999 686.4030000000001 5259.62C686.0620000000001 5259.5 685.7000000000002 5259.38 685.2990000000001 5259.28C684.9170000000001 5259.2 684.5150000000001 5259.12 684.094 5259.0599999999995C683.672 5259.0199999999995 683.2900000000001 5258.98 682.889 5258.98C682.447 5258.98 681.985 5259.04 681.4830000000001 5259.12C680.961 5259.22 680.499 5259.36 680.057 5259.58C679.635 5259.8 679.274 5260.11 678.9730000000001 5260.49C678.691 5260.849999999999 678.551 5261.33 678.551 5261.92C678.551 5262.32 678.6510000000001 5262.68 678.8720000000001 5262.97C679.0930000000001 5263.27 679.3940000000001 5263.530000000001 679.7760000000001 5263.7300000000005C680.157 5263.950000000001 680.619 5264.120000000001 681.162 5264.26C681.7040000000001 5264.38 682.306 5264.4800000000005 682.9490000000001 5264.56C684.0740000000001 5264.68 684.8570000000001 5264.84 685.3190000000001 5265.02C685.7810000000001 5265.200000000001 686.0020000000001 5265.400000000001 686.0020000000001 5265.67C686.0020000000001 5266.05 685.7400000000001 5266.33 685.1980000000001 5266.55C684.6560000000001 5266.77 683.9130000000001 5266.900000000001 682.9490000000001 5266.900000000001C682.6080000000001 5266.900000000001 682.2660000000001 5266.860000000001 681.9050000000001 5266.77C681.5430000000001 5266.6900000000005 681.2020000000001 5266.59 680.8600000000001 5266.47C680.5390000000001 5266.37 680.2580000000002 5266.2300000000005 679.9970000000001 5266.09C679.7360000000001 5265.95 679.5350000000001 5265.79 679.374 5265.650000000001L678.33 5267.18C678.571 5267.42 678.8520000000001 5267.62 679.214 5267.820000000001C679.5550000000001 5268.000000000001 679.917 5268.160000000001 680.3380000000001 5268.31C680.7400000000001 5268.450000000001 681.162 5268.55 681.6030000000001 5268.63C682.0450000000001 5268.71 682.4870000000001 5268.75 682.9490000000001 5268.75C683.5720000000001 5268.75 684.1940000000001 5268.69 684.8170000000001 5268.59C685.4190000000001 5268.47 685.9410000000001 5268.29 686.4030000000001 5268.04C686.8650000000001 5267.78 687.2470000000002 5267.46 687.5280000000001 5267.08C687.8090000000001 5266.67 687.9500000000002 5266.19 687.9500000000002 5265.63ZM637.803 5262L637.803 5259.48C637.462 5259.32 637.06 5259.2 636.578 5259.12C636.116 5259.04 635.494 5258.98 634.751 5258.98C634.51 5258.98 634.2289999999999 5259.0199999999995 633.948 5259.08C633.6659999999999 5259.14 633.365 5259.22 633.064 5259.32C632.7429999999999 5259.44 632.4409999999999 5259.5599999999995 632.14 5259.74C631.8389999999999 5259.9 631.558 5260.08 631.297 5260.3099999999995L631.096 5259.16L628.284 5259.16L628.284 5261.05L629.529 5261.05L629.529 5266.75L628.284 5266.75L628.284 5268.63L632.662 5268.63L632.662 5266.75L631.417 5266.75L631.417 5262.06C631.738 5261.72 632.1600000000001 5261.4400000000005 632.702 5261.21C633.225 5261.01 633.787 5260.91 634.349 5260.91C634.59 5260.91 634.831 5260.91 635.072 5260.93C635.333 5260.950000000001 635.614 5260.990000000001 635.956 5261.070000000001L636.157 5262.000000000001ZM749.201 5262L749.201 5259.48C748.86 5259.32 748.458 5259.2 747.976 5259.12C747.514 5259.04 746.892 5258.98 746.129 5258.98C745.888 5258.98 745.6270000000001 5259.0199999999995 745.345 5259.08C745.0640000000001 5259.14 744.763 5259.22 744.442 5259.32C744.141 5259.44 743.839 5259.5599999999995 743.538 5259.74C743.237 5259.9 742.956 5260.08 742.695 5260.3099999999995L742.494 5259.16L739.682 5259.16L739.682 5261.05L740.927 5261.05L740.927 5266.75L739.682 5266.75L739.682 5268.63L744.0600000000001 5268.63L744.0600000000001 5266.75L742.815 5266.75L742.815 5262.06C743.1160000000001 5261.72 743.5580000000001 5261.4400000000005 744.08 5261.21C744.623 5261.01 745.1850000000001 5260.91 745.7470000000001 5260.91C745.988 5260.91 746.229 5260.91 746.47 5260.93C746.711 5260.950000000001 747.0120000000001 5260.990000000001 747.354 5261.070000000001L747.5550000000001 5262.000000000001ZM707.53 5262L707.53 5259.48C707.189 5259.32 706.7869999999999 5259.2 706.305 5259.12C705.843 5259.04 705.221 5258.98 704.457 5258.98C704.216 5258.98 703.955 5259.0199999999995 703.674 5259.08C703.393 5259.14 703.092 5259.22 702.77 5259.32C702.4689999999999 5259.44 702.168 5259.5599999999995 701.867 5259.74C701.5659999999999 5259.9 701.284 5260.08 701.0229999999999 5260.3099999999995L700.8219999999999 5259.16L698.0109999999999 5259.16L698.0109999999999 5261.05L699.2559999999999 5261.05L699.2559999999999 5266.75L698.0109999999999 5266.75L698.0109999999999 5268.63L702.3889999999999 5268.63L702.3889999999999 5266.75L701.1439999999999 5266.75L701.1439999999999 5262.06C701.4449999999999 5261.72 701.887 5261.4400000000005 702.4289999999999 5261.21C702.9509999999999 5261.01 703.5139999999999 5260.91 704.0759999999999 5260.91C704.3169999999999 5260.91 704.5579999999999 5260.91 704.7989999999999 5260.93C705.0599999999998 5260.950000000001 705.3409999999999 5260.990000000001 705.6819999999999 5261.070000000001L705.8829999999999 5262.000000000001ZM693.693 5266.86C693.512 5266.86 693.352 5266.8099999999995 693.231 5266.73C693.111 5266.65 693.01 5266.53 692.93 5266.389999999999C692.8499999999999 5266.2699999999995 692.789 5266.11 692.7489999999999 5265.95C692.709 5265.7699999999995 692.689 5265.61 692.689 5265.42L692.689 5261.05L695.019 5261.05L695.019 5259.16L692.689 5259.16L692.689 5256.82L691.1229999999999 5256.82L690.8009999999999 5259.16L689.717 5259.16L689.717 5261.05L690.8009999999999 5261.05L690.8009999999999 5265.650000000001C690.8009999999999 5266.070000000001 690.882 5266.47 691.0219999999999 5266.860000000001C691.1629999999999 5267.22 691.3439999999999 5267.540000000001 691.6049999999999 5267.84C691.8659999999999 5268.12 692.1669999999999 5268.35 692.5279999999999 5268.51C692.8699999999999 5268.67 693.2509999999999 5268.75 693.6929999999999 5268.75C693.9339999999999 5268.75 694.1549999999999 5268.73 694.3359999999999 5268.73C694.5169999999999 5268.709999999999 694.6969999999999 5268.669999999999 694.858 5268.61C694.9989999999999 5268.549999999999 695.159 5268.45 695.3399999999999 5268.349999999999C695.5009999999999 5268.23 695.7009999999999 5268.0599999999995 695.9419999999999 5267.86L694.7369999999999 5266.429999999999C694.6369999999998 5266.53 694.5569999999999 5266.589999999999 694.4759999999999 5266.65C694.4159999999999 5266.71 694.3359999999999 5266.75 694.2759999999998 5266.7699999999995C694.1949999999998 5266.8099999999995 694.1149999999999 5266.839999999999 694.0349999999999 5266.839999999999C693.9339999999999 5266.86 693.8339999999998 5266.86 693.6929999999999 5266.86ZM608.302 5260.91C608.804 5260.91 609.2660000000001 5260.97 609.668 5261.13C610.069 5261.27 610.4110000000001 5261.4800000000005 610.692 5261.74C610.993 5262 611.214 5262.3 611.375 5262.66C611.515 5263.03 611.596 5263.45 611.596 5263.87C611.596 5264.32 611.515 5264.72 611.375 5265.099999999999C611.214 5265.459999999999 610.993 5265.7699999999995 610.692 5266.03C610.4110000000001 5266.29 610.069 5266.509999999999 609.668 5266.65C609.266 5266.79 608.804 5266.86 608.302 5266.86C607.84 5266.86 607.398 5266.79 606.9970000000001 5266.65C606.575 5266.509999999999 606.234 5266.29 605.932 5266.03C605.6510000000001 5265.7699999999995 605.41 5265.46 605.25 5265.099999999999C605.089 5264.719999999999 604.988 5264.32 604.988 5263.87C604.988 5263.45 605.089 5263.03 605.25 5262.66C605.41 5262.3 605.651 5262 605.932 5261.74C606.234 5261.48 606.575 5261.2699999999995 606.9970000000001 5261.13C607.398 5260.97 607.84 5260.91 608.302 5260.91ZM714.961 5260.91C715.463 5260.91 715.9250000000001 5260.97 716.326 5261.13C716.7280000000001 5261.27 717.0690000000001 5261.4800000000005 717.35 5261.74C717.652 5262 717.873 5262.3 718.013 5262.66C718.174 5263.03 718.254 5263.45 718.254 5263.87C718.254 5264.32 718.174 5264.72 718.013 5265.099999999999C717.873 5265.459999999999 717.652 5265.7699999999995 717.35 5266.03C717.0690000000001 5266.29 716.7280000000001 5266.509999999999 716.326 5266.65C715.9250000000001 5266.79 715.463 5266.86 714.961 5266.86C714.499 5266.86 714.057 5266.79 713.635 5266.65C713.234 5266.509999999999 712.8919999999999 5266.29 712.591 5266.03C712.3100000000001 5265.7699999999995 712.069 5265.46 711.908 5265.099999999999C711.727 5264.719999999999 711.647 5264.32 711.647 5263.87C711.647 5263.45 711.7270000000001 5263.03 711.908 5262.66C712.069 5262.3 712.3100000000001 5262 712.591 5261.74C712.892 5261.48 713.234 5261.2699999999995 713.635 5261.13C714.057 5260.97 714.499 5260.91 714.961 5260.91ZM621.476 5260.91C621.898 5260.91 622.3 5260.97 622.681 5261.11C623.063 5261.25 623.404 5261.44 623.705 5261.639999999999L623.705 5266.03C623.404 5266.2699999999995 623.043 5266.469999999999 622.6610000000001 5266.61C622.2800000000001 5266.7699999999995 621.898 5266.86 621.4760000000001 5266.86C620.9740000000002 5266.86 620.5320000000002 5266.79 620.1310000000001 5266.65C619.729 5266.509999999999 619.388 5266.29 619.0860000000001 5266.03C618.8050000000002 5265.7699999999995 618.5840000000002 5265.46 618.4240000000001 5265.099999999999C618.2630000000001 5264.719999999999 618.1830000000001 5264.32 618.1830000000001 5263.87C618.1830000000001 5263.45 618.2630000000001 5263.03 618.4240000000001 5262.66C618.5840000000001 5262.3 618.8050000000001 5262 619.0860000000001 5261.74C619.3880000000001 5261.48 619.7290000000002 5261.2699999999995 620.1310000000001 5261.13C620.532 5260.97 620.974 5260.91 621.4760000000001 5260.91ZM658.107 5260.93C658.5079999999999 5260.93 658.91 5260.97 659.2919999999999 5261.05C659.6729999999999 5261.13 660.0149999999999 5261.25 660.3359999999999 5261.4400000000005L660.3359999999999 5265.910000000001C660.0349999999999 5266.170000000001 659.6929999999999 5266.370000000001 659.2919999999999 5266.550000000001C658.91 5266.730000000001 658.5079999999999 5266.840000000001 658.107 5266.840000000001C657.605 5266.840000000001 657.163 5266.750000000001 656.761 5266.6100000000015C656.36 5266.490000000002 656.0179999999999 5266.290000000002 655.717 5266.030000000002C655.436 5265.770000000001 655.215 5265.460000000002 655.054 5265.100000000001C654.894 5264.760000000001 654.833 5264.3600000000015 654.833 5263.910000000002C654.833 5263.470000000002 654.894 5263.0700000000015 655.054 5262.700000000002C655.2149999999999 5262.340000000002 655.4359999999999 5262.020000000001 655.717 5261.760000000002C656.018 5261.500000000002 656.36 5261.290000000002 656.761 5261.150000000002C657.163 5261.010000000002 657.605 5260.930000000002 658.107 5260.930000000002ZM641.92 5265.73C641.92 5265.379999999999 642.021 5265.08 642.242 5264.839999999999C642.483 5264.579999999999 642.784 5264.459999999999 643.185 5264.459999999999L647.1419999999999 5264.459999999999L647.1419999999999 5264.819999999999C647.0409999999999 5265.119999999999 646.901 5265.399999999999 646.7199999999999 5265.669999999999C646.559 5265.949999999999 646.3179999999999 5266.169999999999 646.0369999999999 5266.349999999999C645.756 5266.53 645.415 5266.69 645.0129999999999 5266.789999999999C644.632 5266.899999999999 644.1489999999999 5266.959999999999 643.627 5266.959999999999C643.045 5266.959999999999 642.603 5266.839999999999 642.322 5266.589999999999C642.061 5266.349999999999 641.92 5266.069999999999 641.92 5265.73ZM667.726 5265.73C667.726 5265.379999999999 667.827 5265.08 668.068 5264.839999999999C668.289 5264.579999999999 668.59 5264.459999999999 668.992 5264.459999999999L672.948 5264.459999999999L672.948 5264.819999999999C672.847 5265.119999999999 672.707 5265.399999999999 672.5459999999999 5265.669999999999C672.3649999999999 5265.949999999999 672.1239999999999 5266.169999999999 671.843 5266.349999999999C671.562 5266.53 671.221 5266.69 670.819 5266.789999999999C670.438 5266.899999999999 669.976 5266.959999999999 669.433 5266.959999999999C668.851 5266.959999999999 668.409 5266.839999999999 668.128 5266.589999999999C667.8670000000001 5266.349999999999 667.726 5266.069999999999 667.726 5265.73ZM734.079 5267.4C734.079 5267.599999999999 734.1189999999999 5267.78 734.1999999999999 5267.94C734.28 5268.099999999999 734.3799999999999 5268.25 734.521 5268.37C734.641 5268.49 734.8019999999999 5268.57 734.963 5268.65C735.144 5268.71 735.304 5268.75 735.485 5268.75C735.666 5268.75 735.846 5268.71 736.027 5268.65C736.188 5268.57 736.3280000000001 5268.49 736.469 5268.37C736.609 5268.25 736.71 5268.099999999999 736.7900000000001 5267.94C736.8710000000001 5267.78 736.9110000000001 5267.599999999999 736.9110000000001 5267.4C736.9110000000001 5267.219999999999 736.8710000000001 5267.04 736.7900000000001 5266.879999999999C736.71 5266.709999999999 736.609 5266.569999999999 736.469 5266.449999999999C736.3280000000001 5266.329999999999 736.1880000000001 5266.229999999999 736.027 5266.169999999999C735.846 5266.109999999999 735.666 5266.069999999999 735.485 5266.069999999999C735.304 5266.069999999999 735.144 5266.109999999999 734.963 5266.169999999999C734.802 5266.23 734.641 5266.329999999999 734.521 5266.449999999999C734.38 5266.569999999999 734.28 5266.709999999999 734.1999999999999 5266.879999999999C734.1189999999999 5267.039999999999 734.079 5267.219999999999 734.079 5267.4ZM751.591 5259.16L754.7040000000001 5259.16L754.7040000000001 5264.8C754.7040000000001 5265.24 754.764 5265.59 754.8850000000001 5265.85C755.0050000000001 5266.13 755.1860000000001 5266.33 755.4270000000001 5266.47C755.6480000000001 5266.610000000001 755.9490000000002 5266.71 756.2900000000002 5266.75C756.6320000000002 5266.79 757.0340000000002 5266.84 757.4950000000002 5266.84C757.9170000000003 5266.84 758.3390000000003 5266.75 758.7610000000002 5266.610000000001C759.1620000000001 5266.450000000001 759.5440000000002 5266.250000000001 759.8850000000002 5266.01L759.8850000000002 5261.05L758.6400000000002 5261.05L758.6400000000002 5259.16L761.7730000000003 5259.16L761.7730000000003 5266.75L762.9980000000003 5266.75L762.9980000000003 5268.63L760.3670000000003 5268.63L760.1460000000003 5267.76C759.8050000000003 5268 759.3630000000003 5268.2300000000005 758.8010000000003 5268.45C758.2380000000003 5268.65 757.5960000000002 5268.75 756.8730000000003 5268.75C756.3110000000003 5268.75 755.7880000000002 5268.69 755.3060000000003 5268.55C754.8040000000003 5268.43 754.3830000000003 5268.2300000000005 754.0210000000003 5267.92C753.6400000000003 5267.62 753.3580000000003 5267.22 753.1380000000003 5266.71C752.9370000000002 5266.19 752.8160000000003 5265.57 752.8160000000003 5264.8L752.8160000000003 5261.05L751.5910000000002 5261.05Z " fill="#ffffff" fill-opacity="1" transform="matrix(1,0,0,1,-603,-5201)"></path><path id="SvgjsPath1212" d="M721.608 5276.51L719.981 5276.51L719.981 5276.97L720.403 5277.05L720.403 5279.81L718.796 5279.81L718.796 5277.05L719.2180000000001 5276.97L719.2180000000001 5276.51L717.5910000000001 5276.51L717.5910000000001 5276.97L718.0130000000001 5277.05L718.0130000000001 5279.87L717.5910000000001 5279.95L717.5910000000001 5280.42L720.9450000000002 5280.42L720.9450000000002 5281.36L721.6880000000002 5281.36L721.7280000000002 5279.83L721.1860000000001 5279.83L721.1860000000001 5277.05L721.6080000000002 5276.97ZM635.373 5279.25L635.373 5279.87L634.9720000000001 5279.95L634.9720000000001 5280.42L636.5780000000001 5280.42L636.5780000000001 5279.95L636.1770000000001 5279.87L636.1770000000001 5277.05L636.5780000000001 5276.97L636.5780000000001 5276.51L635.1320000000001 5276.51L634.128 5279.39L634.1080000000001 5279.39L633.124 5276.51L631.678 5276.51L631.678 5276.97L632.1 5277.05L632.1 5279.87L631.678 5279.95L631.678 5280.42L633.305 5280.42L633.305 5279.95L632.8829999999999 5279.87L632.8829999999999 5279.25L632.8029999999999 5277.53L632.8229999999999 5277.53L633.8669999999998 5280.42L634.3889999999999 5280.42L635.4339999999999 5277.51L635.4539999999998 5277.51ZM684.435 5277.05L684.435 5279.87L684.0129999999999 5279.95L684.0129999999999 5280.42L685.6399999999999 5280.42L685.6399999999999 5279.95L685.2179999999998 5279.87L685.2179999999998 5278.78L686.8249999999998 5278.78L686.8249999999998 5279.87L686.4029999999998 5279.95L686.4029999999998 5280.42L688.0099999999998 5280.42L688.0099999999998 5279.95L687.6079999999997 5279.87L687.6079999999997 5277.05L688.0099999999998 5276.97L688.0099999999998 5276.51L686.4029999999998 5276.51L686.4029999999998 5276.97L686.8249999999998 5277.05L686.8249999999998 5278.18L685.2179999999998 5278.18L685.2179999999998 5277.05L685.6399999999999 5276.97L685.6399999999999 5276.51L684.0129999999999 5276.51L684.0129999999999 5276.97ZM723.797 5276.51L723.797 5276.97L724.1990000000001 5277.05L724.1990000000001 5279.87L723.797 5279.95L723.797 5280.42L725.404 5280.42L725.404 5279.95L724.982 5279.87L724.982 5279.69L726.568 5278.099999999999L726.588 5278.099999999999L726.588 5279.87L726.1669999999999 5279.95L726.1669999999999 5280.42L727.7929999999999 5280.42L727.7929999999999 5279.95L727.3719999999998 5279.87L727.3719999999998 5277.05L727.7929999999999 5276.97L727.7929999999999 5276.51L726.1669999999999 5276.51L726.1669999999999 5276.97L726.588 5277.05L726.588 5277.27L725.002 5278.88L724.982 5278.86L724.982 5277.049999999999L725.404 5276.969999999999L725.404 5276.509999999999ZM663.67 5277.11L663.67 5279.87L663.2479999999999 5279.95L663.2479999999999 5280.42L664.8749999999999 5280.42L664.8749999999999 5279.95L664.4529999999999 5279.87L664.4529999999999 5277.05L664.8749999999999 5276.97L664.8749999999999 5276.51L661.3599999999999 5276.51L661.3599999999999 5276.97L661.7819999999999 5277.05L661.762 5278.28C661.762 5278.86 661.722 5279.2699999999995 661.641 5279.469999999999C661.5409999999999 5279.69 661.38 5279.789999999999 661.139 5279.8099999999995L661.039 5279.8099999999995L661.039 5280.419999999999L661.24 5280.419999999999C661.682 5280.419999999999 662.003 5280.249999999999 662.224 5279.929999999999C662.4250000000001 5279.589999999999 662.5450000000001 5279.049999999999 662.5450000000001 5278.28L662.565 5277.11ZM657.785 5277.11L657.785 5279.87L657.3639999999999 5279.95L657.3639999999999 5280.42L658.9899999999999 5280.42L658.9899999999999 5279.95L658.5689999999998 5279.87L658.5689999999998 5277.05L658.9899999999999 5276.97L658.9899999999999 5276.51L655.4759999999999 5276.51L655.4759999999999 5276.97L655.8979999999999 5277.05L655.8779999999999 5278.28C655.8779999999999 5278.86 655.8369999999999 5279.2699999999995 655.737 5279.469999999999C655.6569999999999 5279.69 655.496 5279.789999999999 655.255 5279.8099999999995L655.155 5279.8099999999995L655.155 5280.419999999999L655.355 5280.419999999999C655.797 5280.419999999999 656.119 5280.249999999999 656.34 5279.929999999999C656.5400000000001 5279.589999999999 656.6610000000001 5279.049999999999 656.6610000000001 5278.28L656.681 5277.11ZM711.848 5280.42L713.454 5280.42L713.454 5279.95L713.053 5279.87L713.053 5278.82L713.515 5278.82L714.258 5279.91L714.017 5279.95L714.017 5280.42L715.5830000000001 5280.42L715.5830000000001 5279.95L715.1610000000001 5279.889999999999L714.0770000000001 5278.32L714.7000000000002 5277.49C714.8000000000002 5277.349999999999 714.8800000000001 5277.2699999999995 714.9400000000002 5277.23C715.0210000000002 5277.169999999999 715.1010000000001 5277.15 715.1810000000002 5277.15C715.2220000000002 5277.15 715.2420000000002 5277.15 715.2620000000002 5277.17C715.2820000000002 5277.17 715.3220000000001 5277.17 715.3820000000002 5277.1900000000005L715.5030000000002 5276.59C715.4430000000002 5276.55 715.3620000000002 5276.53 715.3020000000001 5276.51C715.2220000000001 5276.47 715.1210000000001 5276.47 715.0410000000002 5276.47C714.8400000000001 5276.47 714.6790000000002 5276.51 714.5590000000002 5276.59C714.4380000000002 5276.67 714.2980000000002 5276.83 714.1370000000002 5277.05L713.4140000000002 5278.1L713.0530000000002 5278.1L713.0530000000002 5277.05L713.4540000000002 5276.97L713.4540000000002 5276.51L711.8480000000002 5276.51L711.8480000000002 5276.97L712.2690000000002 5277.05L712.2690000000002 5279.87L711.8480000000002 5279.95ZM672.626 5280.42L674.213 5280.42L674.213 5279.95L673.831 5279.87L673.831 5278.82L674.293 5278.82L675.016 5279.91L674.795 5279.95L674.795 5280.42L676.342 5280.42L676.342 5279.95L675.9399999999999 5279.889999999999L674.856 5278.32L675.458 5277.49C675.559 5277.349999999999 675.639 5277.2699999999995 675.7189999999999 5277.23C675.7789999999999 5277.169999999999 675.8599999999999 5277.15 675.9399999999999 5277.15C675.9799999999999 5277.15 675.9999999999999 5277.15 676.02 5277.17C676.0409999999999 5277.17 676.081 5277.17 676.141 5277.1900000000005L676.2819999999999 5276.59C676.2009999999999 5276.55 676.141 5276.53 676.0609999999999 5276.51C675.9799999999999 5276.47 675.9 5276.47 675.8 5276.47C675.5989999999999 5276.47 675.438 5276.51 675.318 5276.59C675.197 5276.67 675.077 5276.83 674.9159999999999 5277.05L674.1729999999999 5278.1L673.8309999999999 5278.1L673.8309999999999 5277.05L674.2129999999999 5276.97L674.2129999999999 5276.51L672.6259999999999 5276.51L672.6259999999999 5276.97L673.0479999999999 5277.05L673.0479999999999 5279.87L672.6259999999999 5279.95ZM649.391 5280.42L650.737 5280.42L650.737 5279.95L650.4549999999999 5279.91L650.636 5279.37L651.901 5279.37L652.0619999999999 5279.91L651.8009999999999 5279.95L651.8009999999999 5280.42L653.126 5280.42L653.126 5279.95L652.845 5279.91L651.6600000000001 5276.51L650.8570000000001 5276.51L649.6720000000001 5279.91L649.3910000000002 5279.95ZM709.86 5276.51L708.434 5276.51L708.434 5276.97L708.675 5277.01L708.132 5278.4400000000005L708.112 5278.4400000000005L708.052 5278.240000000001L707.49 5277.010000000001L707.691 5276.970000000001L707.691 5276.510000000001L706.245 5276.510000000001L706.245 5276.970000000001L706.666 5277.030000000002L707.791 5279.350000000001L707.7310000000001 5279.490000000002C707.6710000000002 5279.630000000002 707.6300000000001 5279.710000000002 707.5500000000001 5279.790000000002C707.47 5279.850000000002 707.369 5279.870000000002 707.229 5279.870000000002C707.2090000000001 5279.870000000002 707.1690000000001 5279.870000000002 707.128 5279.870000000002C707.0680000000001 5279.870000000002 707.048 5279.870000000002 707.028 5279.870000000002L707.028 5280.480000000001C707.048 5280.480000000001 707.088 5280.480000000001 707.148 5280.480000000001C707.2090000000001 5280.480000000001 707.269 5280.480000000001 707.309 5280.480000000001C707.5899999999999 5280.480000000001 707.8109999999999 5280.420000000001 707.972 5280.270000000001C708.112 5280.130000000001 708.2529999999999 5279.930000000001 708.3729999999999 5279.670000000001L709.478 5277.030000000001L709.8599999999999 5276.97ZM681.925 5278.44C681.925 5277.86 681.764 5277.389999999999 681.423 5277.009999999999C681.101 5276.629999999999 680.66 5276.449999999999 680.1370000000001 5276.449999999999C679.615 5276.449999999999 679.173 5276.629999999999 678.8520000000001 5277.009999999999C678.5310000000001 5277.389999999999 678.3700000000001 5277.86 678.3700000000001 5278.44L678.3700000000001 5278.48C678.3700000000001 5279.07 678.5310000000001 5279.549999999999 678.8520000000001 5279.91C679.1940000000001 5280.29 679.6150000000001 5280.48 680.1370000000001 5280.48C680.6800000000001 5280.48 681.1010000000001 5280.29 681.423 5279.91C681.764 5279.55 681.925 5279.07 681.925 5278.48ZM670.518 5278.44C670.518 5277.86 670.3570000000001 5277.389999999999 670.0360000000001 5277.009999999999C669.6940000000001 5276.629999999999 669.273 5276.449999999999 668.7510000000001 5276.449999999999C668.2080000000001 5276.449999999999 667.787 5276.629999999999 667.4650000000001 5277.009999999999C667.1440000000001 5277.389999999999 666.9830000000002 5277.86 666.9830000000002 5278.44L666.9830000000002 5278.48C666.9830000000002 5279.07 667.1440000000001 5279.549999999999 667.4650000000001 5279.91C667.7870000000001 5280.29 668.2080000000002 5280.48 668.7510000000001 5280.48C669.2730000000001 5280.48 669.7150000000001 5280.29 670.0360000000001 5279.91C670.3570000000001 5279.55 670.518 5279.07 670.518 5278.48ZM643.908 5276.51L643.908 5277.530000000001L644.511 5277.530000000001L644.531 5277.110000000001L645.2539999999999 5277.110000000001L645.2539999999999 5279.870000000001L644.8319999999999 5279.950000000001L644.8319999999999 5280.420000000001L646.4589999999998 5280.420000000001L646.4589999999998 5279.950000000001L646.0369999999998 5279.870000000001L646.0369999999998 5277.110000000001L646.7599999999998 5277.110000000001L646.7999999999997 5277.530000000001L647.4029999999997 5277.530000000001L647.4029999999997 5276.51ZM695.42 5276.51L695.42 5277.530000000001L696.0229999999999 5277.530000000001L696.0429999999999 5277.110000000001L696.7659999999998 5277.110000000001L696.7659999999998 5279.870000000001L696.3439999999998 5279.950000000001L696.3439999999998 5280.420000000001L697.9709999999998 5280.420000000001L697.9709999999998 5279.950000000001L697.5489999999998 5279.870000000001L697.5489999999998 5277.110000000001L698.2719999999997 5277.110000000001L698.3119999999997 5277.530000000001L698.9149999999996 5277.530000000001L698.9149999999996 5276.51ZM700.943 5276.51L700.943 5276.97L701.365 5277.05L701.365 5279.87L700.943 5279.95L700.943 5280.42L702.5699999999999 5280.42L702.5699999999999 5279.95L702.1479999999999 5279.87L702.1479999999999 5279.01L702.8109999999999 5279.01C703.252 5279.01 703.6139999999999 5278.88 703.8749999999999 5278.66C704.1359999999999 5278.42 704.2559999999999 5278.12 704.2559999999999 5277.76C704.2559999999999 5277.37 704.1359999999999 5277.070000000001 703.8749999999999 5276.85C703.6139999999999 5276.610000000001 703.2519999999998 5276.51 702.8109999999999 5276.51ZM693.312 5277.05C693.1510000000001 5276.87 692.95 5276.71 692.7090000000001 5276.610000000001C692.4680000000001 5276.490000000001 692.187 5276.450000000001 691.8860000000001 5276.450000000001C691.364 5276.450000000001 690.922 5276.630000000001 690.6000000000001 5276.990000000001C690.2590000000001 5277.35 690.0980000000002 5277.820000000001 690.0980000000002 5278.400000000001L690.0980000000002 5278.52C690.0980000000002 5279.110000000001 690.2590000000001 5279.570000000001 690.6000000000001 5279.93C690.9420000000001 5280.29 691.3640000000001 5280.4800000000005 691.8860000000001 5280.4800000000005C692.1870000000001 5280.4800000000005 692.4680000000001 5280.4400000000005 692.7090000000001 5280.31C692.95 5280.21 693.1510000000001 5280.05 693.312 5279.870000000001L693.312 5279.110000000001L692.729 5279.110000000001L692.649 5279.630000000001C692.589 5279.710000000001 692.488 5279.770000000001 692.348 5279.810000000001C692.227 5279.850000000001 692.086 5279.870000000002 691.9259999999999 5279.870000000002C691.6049999999999 5279.870000000002 691.3439999999999 5279.750000000002 691.1629999999999 5279.510000000002C690.9819999999999 5279.250000000002 690.882 5278.920000000002 690.882 5278.520000000002L690.882 5278.400000000002C690.882 5278.000000000003 690.982 5277.680000000002 691.1629999999999 5277.410000000003C691.3439999999999 5277.170000000003 691.6049999999999 5277.050000000003 691.9459999999999 5277.050000000003C692.1069999999999 5277.050000000003 692.247 5277.070000000003 692.3679999999999 5277.110000000003C692.468 5277.150000000003 692.569 5277.210000000004 692.6489999999999 5277.290000000004L692.7289999999999 5277.820000000003L693.3119999999999 5277.820000000003ZM641.177 5278.1L639.852 5278.1L639.852 5277.110000000001L641.097 5277.110000000001L641.137 5277.570000000001L641.7399999999999 5277.570000000001L641.7399999999999 5276.51L638.6469999999999 5276.51L638.6469999999999 5276.97L639.069 5277.05L639.069 5279.87L638.6469999999999 5279.95L638.6469999999999 5280.42L641.7399999999999 5280.42L641.7399999999999 5279.35L641.1569999999999 5279.35L641.117 5279.81L639.852 5279.81L639.852 5278.700000000001L641.177 5278.700000000001ZM681.142 5278.48C681.142 5278.9 681.061 5279.25 680.8800000000001 5279.49C680.7200000000001 5279.75 680.4790000000002 5279.87 680.1370000000001 5279.87C679.816 5279.87 679.575 5279.75 679.394 5279.49C679.234 5279.25 679.153 5278.9 679.153 5278.48L679.153 5278.419999999999C679.153 5278.0199999999995 679.234 5277.679999999999 679.394 5277.429999999999C679.555 5277.19 679.816 5277.049999999999 680.1370000000001 5277.049999999999C680.4590000000001 5277.049999999999 680.72 5277.19 680.8800000000001 5277.429999999999C681.0610000000001 5277.7 681.142 5278.0199999999995 681.142 5278.419999999999ZM669.735 5278.48C669.735 5278.9 669.654 5279.25 669.494 5279.49C669.3330000000001 5279.75 669.072 5279.87 668.751 5279.87C668.409 5279.87 668.168 5279.75 668.0079999999999 5279.49C667.847 5279.25 667.7669999999999 5278.9 667.7669999999999 5278.48L667.7669999999999 5278.419999999999C667.7669999999999 5278.0199999999995 667.847 5277.679999999999 668.0079999999999 5277.429999999999C668.1679999999999 5277.19 668.4089999999999 5277.049999999999 668.751 5277.049999999999C669.072 5277.049999999999 669.313 5277.19 669.494 5277.429999999999C669.654 5277.7 669.735 5278.0199999999995 669.735 5278.419999999999ZM702.148 5277.11L702.811 5277.11C703.032 5277.11 703.192 5277.17 703.313 5277.29C703.413 5277.41 703.473 5277.57 703.473 5277.76C703.473 5277.9400000000005 703.413 5278.1 703.313 5278.22C703.192 5278.34 703.032 5278.400000000001 702.811 5278.400000000001L702.148 5278.400000000001ZM651.259 5277.39L651.279 5277.39L651.721 5278.780000000001L650.817 5278.780000000001ZM731.509 5276.51L731.509 5276.97L731.087 5277.05L731.087 5278.860000000001L731.107 5278.880000000001L732.673 5277.270000000001L732.673 5277.050000000001L732.272 5276.970000000001L732.272 5276.510000000001L733.878 5276.510000000001L733.878 5276.970000000001L733.4770000000001 5277.050000000001L733.4770000000001 5279.870000000001L733.878 5279.950000000001L733.878 5280.420000000001L732.272 5280.420000000001L732.272 5279.950000000001L732.673 5279.870000000001L732.673 5278.1L731.087 5279.6900000000005L731.087 5279.870000000001L731.509 5279.950000000001L731.509 5280.420000000001L729.8820000000001 5280.420000000001L729.8820000000001 5279.950000000001L730.3040000000001 5279.870000000001L730.3040000000001 5277.050000000001L729.8820000000001 5276.970000000001L729.8820000000001 5276.510000000001Z " fill="#ffffff" fill-opacity="1" transform="matrix(1,0,0,1,-603,-5201)"></path></svg>