<svg xmlns="http://www.w3.org/2000/svg" xmlns:xlink="http://www.w3.org/1999/xlink" preserveAspectRatio="xMidYMid" width="67.25" height="48.06" viewBox="0 0 67.25 48.06">
  <defs>
    <style>
      .cls-1 {
        fill: #ed6c3a;
        fill-rule: evenodd;
      }
    </style>
  </defs>
  <path d="M65.952,45.453 L56.940,45.453 L56.940,43.029 C57.241,43.202 57.411,43.321 57.415,43.323 C57.647,43.490 57.916,43.570 58.181,43.570 C58.591,43.570 58.995,43.380 59.252,43.021 C59.676,42.430 59.546,41.608 58.958,41.180 C58.915,41.148 57.878,40.400 56.134,39.736 C54.993,39.301 53.304,38.889 51.667,38.610 L51.667,27.949 C51.799,27.956 51.922,27.970 52.063,27.970 C54.806,27.970 56.797,25.680 56.797,22.527 C56.797,22.396 56.787,22.267 56.780,22.137 L62.906,22.137 C62.911,22.137 62.915,22.135 62.920,22.135 C63.342,22.135 63.756,21.930 64.003,21.550 C64.394,20.953 64.226,20.143 63.630,19.751 L33.630,0.016 L3.629,19.751 C3.033,20.143 2.865,20.953 3.256,21.550 C3.503,21.930 3.917,22.135 4.339,22.135 C4.344,22.135 4.349,22.137 4.353,22.137 L10.479,22.137 C10.472,22.267 10.462,22.396 10.462,22.527 C10.462,25.680 12.453,27.970 15.196,27.970 C15.337,27.970 15.460,27.956 15.592,27.949 L15.592,38.610 C13.955,38.889 12.266,39.301 11.126,39.736 C9.381,40.400 8.344,41.148 8.301,41.180 C7.713,41.608 7.583,42.430 8.007,43.021 C8.264,43.380 8.668,43.570 9.078,43.570 C9.344,43.570 9.612,43.490 9.844,43.323 C9.848,43.321 10.018,43.202 10.319,43.029 L10.319,45.453 L1.307,45.453 C0.595,45.453 0.011,46.038 0.011,46.754 C0.011,47.469 0.595,48.053 1.307,48.053 L11.615,48.053 C11.883,48.053 12.132,47.971 12.339,47.831 C12.546,47.690 12.710,47.491 12.809,47.258 C12.875,47.103 12.911,46.932 12.911,46.754 L12.911,41.925 C13.696,41.692 14.642,41.472 15.592,41.296 L15.592,46.754 C15.592,46.932 15.629,47.103 15.694,47.258 C15.793,47.491 15.958,47.690 16.165,47.831 C16.372,47.971 16.621,48.053 16.888,48.053 L22.100,48.053 C22.367,48.053 22.616,47.971 22.823,47.831 C23.030,47.690 23.195,47.491 23.294,47.258 C23.360,47.103 23.396,46.932 23.396,46.754 L23.396,40.286 C25.745,39.496 27.035,37.962 27.035,35.815 C27.035,33.175 25.001,31.893 23.396,31.415 L23.396,25.280 C23.398,25.173 23.400,25.073 23.401,24.960 L23.418,23.516 C23.418,23.471 23.410,23.427 23.406,23.383 C23.408,23.364 23.414,23.348 23.415,23.330 C23.416,23.310 23.586,21.306 24.867,19.235 C25.767,17.779 28.424,14.394 33.630,14.394 C38.835,14.394 41.492,17.779 42.392,19.235 C43.673,21.306 43.843,23.310 43.844,23.330 C43.846,23.348 43.851,23.364 43.853,23.383 C43.849,23.427 43.841,23.471 43.841,23.516 L43.858,24.960 C43.859,25.073 43.861,25.173 43.863,25.280 L43.863,31.415 C42.258,31.893 40.224,33.175 40.224,35.815 C40.224,37.962 41.514,39.496 43.863,40.286 L43.863,46.754 C43.863,46.932 43.900,47.103 43.965,47.258 C44.064,47.491 44.229,47.690 44.436,47.831 C44.643,47.971 44.892,48.053 45.159,48.053 L50.371,48.053 C50.638,48.053 50.887,47.971 51.094,47.831 C51.301,47.690 51.466,47.491 51.565,47.258 C51.631,47.103 51.667,46.932 51.667,46.754 L51.667,41.296 C52.617,41.472 53.563,41.692 54.348,41.925 L54.348,46.754 C54.348,46.932 54.384,47.103 54.450,47.258 C54.549,47.491 54.714,47.690 54.920,47.831 C55.127,47.971 55.377,48.053 55.644,48.053 L65.952,48.053 C66.665,48.053 67.248,47.469 67.248,46.754 C67.248,46.038 66.665,45.453 65.952,45.453 ZM43.863,37.406 C43.266,37.046 42.860,36.537 42.860,35.815 C42.860,35.021 43.343,34.541 43.863,34.251 L43.863,37.406 ZM20.804,45.453 L18.184,45.453 L18.184,40.939 C18.504,40.913 18.802,40.898 19.062,40.898 C19.675,40.898 20.255,40.870 20.804,40.816 L20.804,45.453 ZM20.804,38.155 C20.142,38.233 19.516,38.254 19.062,38.254 C18.794,38.254 18.498,38.266 18.184,38.287 L18.184,27.151 C18.570,26.871 18.842,26.554 19.029,26.259 C20.231,24.367 19.127,21.858 18.997,21.579 C18.690,20.917 17.906,20.630 17.246,20.938 C16.586,21.246 16.300,22.033 16.608,22.695 C16.837,23.190 17.131,24.326 16.807,24.837 C16.537,25.262 15.682,25.325 15.196,25.325 C13.755,25.325 13.098,23.874 13.098,22.527 C13.098,21.556 13.429,20.621 14.006,19.962 C14.679,19.192 15.649,18.802 16.888,18.802 C18.119,18.802 19.030,19.131 19.673,19.807 C19.924,20.071 20.116,20.372 20.267,20.683 C20.515,21.739 20.722,22.783 20.722,24.006 C20.722,24.895 20.724,25.492 20.726,25.867 C20.728,26.057 20.731,26.366 20.804,26.678 L20.804,38.155 ZM24.399,35.815 C24.399,36.537 23.993,37.046 23.396,37.406 L23.396,34.251 C23.916,34.541 24.399,35.021 24.399,35.815 ZM22.627,17.840 C22.549,17.967 22.476,18.094 22.404,18.220 C22.243,17.456 22.122,16.690 22.122,15.864 C22.122,14.541 23.472,12.543 25.506,12.543 C25.852,12.543 26.258,12.568 26.694,12.594 C27.350,12.632 28.060,12.670 28.769,12.656 C25.369,14.007 23.434,16.536 22.627,17.840 ZM30.635,9.575 C30.034,10.143 28.041,10.025 26.850,9.954 C26.357,9.925 25.898,9.899 25.506,9.899 C22.061,9.899 19.486,13.048 19.486,15.864 C19.486,16.122 19.506,16.364 19.522,16.611 C18.742,16.310 17.863,16.157 16.888,16.157 C14.358,16.157 12.846,17.278 12.024,18.218 C11.677,18.615 11.387,19.061 11.152,19.536 L8.682,19.536 L28.002,6.827 C27.907,6.943 27.844,7.034 27.824,7.066 C27.436,7.669 27.609,8.458 28.201,8.861 C28.791,9.265 29.607,9.107 30.023,8.523 C30.076,8.449 30.183,8.355 30.217,8.344 C30.627,8.344 30.835,8.541 30.835,8.929 C30.835,9.385 30.690,9.523 30.635,9.575 ZM33.630,11.750 C33.050,11.750 32.503,11.794 31.973,11.857 C32.136,11.748 32.298,11.636 32.443,11.499 C32.912,11.056 33.471,10.250 33.471,8.929 C33.471,6.831 31.795,5.699 30.217,5.699 C29.989,5.699 29.781,5.736 29.584,5.786 L33.630,3.125 L37.675,5.786 C37.478,5.736 37.270,5.699 37.042,5.699 C35.465,5.699 33.788,6.831 33.788,8.929 C33.788,10.250 34.347,11.056 34.816,11.499 C34.961,11.636 35.123,11.748 35.286,11.857 C34.756,11.794 34.210,11.750 33.630,11.750 ZM44.855,18.220 C44.783,18.094 44.710,17.967 44.632,17.840 C43.825,16.536 41.890,14.007 38.490,12.656 C39.199,12.670 39.909,12.632 40.565,12.594 C41.001,12.568 41.407,12.543 41.753,12.543 C43.787,12.543 45.137,14.541 45.137,15.864 C45.137,16.690 45.016,17.456 44.855,18.220 ZM41.753,9.899 C41.362,9.899 40.902,9.925 40.409,9.954 C39.219,10.025 37.225,10.143 36.624,9.575 C36.569,9.523 36.424,9.385 36.424,8.929 C36.424,8.541 36.632,8.344 37.042,8.344 C37.076,8.355 37.183,8.449 37.236,8.523 C37.652,9.107 38.468,9.265 39.059,8.861 C39.650,8.458 39.823,7.669 39.436,7.066 C39.415,7.034 39.352,6.943 39.257,6.827 L58.577,19.536 L56.108,19.536 C55.872,19.061 55.582,18.615 55.235,18.218 C54.413,17.278 52.902,16.157 50.371,16.157 C49.396,16.157 48.517,16.310 47.737,16.611 C47.753,16.364 47.773,16.122 47.773,15.864 C47.773,13.048 45.199,9.899 41.753,9.899 ZM49.075,45.453 L46.455,45.453 L46.455,40.816 C47.004,40.870 47.584,40.898 48.198,40.898 C48.458,40.898 48.756,40.913 49.075,40.939 L49.075,45.453 ZM50.452,24.837 C50.128,24.326 50.422,23.190 50.652,22.695 C50.959,22.033 50.673,21.246 50.013,20.938 C49.353,20.630 48.569,20.917 48.262,21.579 C48.132,21.858 47.028,24.367 48.230,26.259 C48.418,26.554 48.689,26.871 49.075,27.151 L49.075,38.287 C48.761,38.266 48.466,38.254 48.198,38.254 C47.743,38.254 47.117,38.233 46.455,38.155 L46.455,26.678 C46.529,26.366 46.532,26.057 46.533,25.867 C46.535,25.492 46.537,24.895 46.537,24.006 C46.537,22.783 46.744,21.739 46.992,20.683 C47.143,20.372 47.335,20.071 47.586,19.807 C48.229,19.131 49.140,18.802 50.371,18.802 C51.610,18.802 52.580,19.192 53.253,19.962 C53.830,20.621 54.161,21.556 54.161,22.527 C54.161,23.874 53.505,25.325 52.063,25.325 C51.577,25.325 50.722,25.262 50.452,24.837 Z" class="cls-1"/>
</svg>
