<svg id="SvgjsSvg1022" xmlns="http://www.w3.org/2000/svg" version="1.1" xmlns:xlink="http://www.w3.org/1999/xlink" xmlns:svgjs="http://svgjs.com/svgjs" width="22" height="39" viewBox="0 0 22 39"><title>Прямоугольник 2 копия 4</title><desc>Created with Avocode.</desc><defs id="SvgjsDefs1023"><linearGradient id="SvgjsLinearGradient1026" gradientUnits="userSpaceOnUse" x1="836" y1="108.99995" x2="858" y2="108.99995"><stop id="SvgjsStop1027" stop-opacity="1" stop-color="#e13126" offset="0"></stop><stop id="SvgjsStop1028" stop-opacity="1" stop-color="#f9a64d" offset="1"></stop></linearGradient></defs><path id="SvgjsPath1024" d="M838 89.9999L856 89.9999C857.105 89.9999 858 90.8951 858 91.99969999999999L858 126C858 127.104 857.105 128 856 128L838 128C836.895 128 836 127.104 836 126L836 91.99969999999999C836 90.89509999999999 836.895 89.9999 838 89.9999ZM840 94.9998L840 123C840 123.552 840.448 124 841 124L853 124C853.552 124 854 123.552 854 123L854 94.9998C854 94.4477 853.552 93.9999 853 93.9999L841 93.9999C840.448 93.9999 840 94.4477 840 94.9998ZM843 112C843.55228 112 844 112.44772 844 113C844 113.55228 843.55228 114 843 114C842.44772 114 842 113.55228 842 113C842 112.44772 842.44772 112 843 112ZM847 112C847.55228 112 848 112.44772 848 113C848 113.55228 847.55228 114 847 114C846.44772 114 846 113.55228 846 113C846 112.44772 846.44772 112 847 112ZM851 112C851.55228 112 852 112.44772 852 113C852 113.55228 851.55228 114 851 114C850.44772 114 850 113.55228 850 113C850 112.44772 850.44772 112 851 112ZM843 116C843.55228 116 844 116.44772 844 117C844 117.55228 843.55228 118 843 118C842.44772 118 842 117.55228 842 117C842 116.44772 842.44772 116 843 116ZM847 116C847.55228 116 848 116.44772 848 117C848 117.55228 847.55228 118 847 118C846.44772 118 846 117.55228 846 117C846 116.44772 846.44772 116 847 116ZM851 116C851.55228 116 852 116.44772 852 117C852 117.55228 851.55228 118 851 118C850.44772 118 850 117.55228 850 117C850 116.44772 850.44772 116 851 116ZM843 120C843.55228 120 844 120.44772 844 121C844 121.55228 843.55228 122 843 122C842.44772 122 842 121.55228 842 121C842 120.44772 842.44772 120 843 120ZM847 120C847.55228 120 848 120.44772 848 121C848 121.55228 847.55228 122 847 122C846.44772 122 846 121.55228 846 121C846 120.44772 846.44772 120 847 120ZM851 120C851.55228 120 852 120.44772 852 121C852 121.55228 851.55228 122 851 122C850.44772 122 850 121.55228 850 121C850 120.44772 850.44772 120 851 120Z " fill="#e13126" fill-opacity="1" transform="matrix(1,0,0,1,-836,-89)"></path><path id="SvgjsPath1025" d="M838 89.9999L856 89.9999C857.105 89.9999 858 90.8951 858 91.99969999999999L858 126C858 127.104 857.105 128 856 128L838 128C836.895 128 836 127.104 836 126L836 91.99969999999999C836 90.89509999999999 836.895 89.9999 838 89.9999ZM840 94.9998L840 123C840 123.552 840.448 124 841 124L853 124C853.552 124 854 123.552 854 123L854 94.9998C854 94.4477 853.552 93.9999 853 93.9999L841 93.9999C840.448 93.9999 840 94.4477 840 94.9998ZM843 112C843.55228 112 844 112.44772 844 113C844 113.55228 843.55228 114 843 114C842.44772 114 842 113.55228 842 113C842 112.44772 842.44772 112 843 112ZM847 112C847.55228 112 848 112.44772 848 113C848 113.55228 847.55228 114 847 114C846.44772 114 846 113.55228 846 113C846 112.44772 846.44772 112 847 112ZM851 112C851.55228 112 852 112.44772 852 113C852 113.55228 851.55228 114 851 114C850.44772 114 850 113.55228 850 113C850 112.44772 850.44772 112 851 112ZM843 116C843.55228 116 844 116.44772 844 117C844 117.55228 843.55228 118 843 118C842.44772 118 842 117.55228 842 117C842 116.44772 842.44772 116 843 116ZM847 116C847.55228 116 848 116.44772 848 117C848 117.55228 847.55228 118 847 118C846.44772 118 846 117.55228 846 117C846 116.44772 846.44772 116 847 116ZM851 116C851.55228 116 852 116.44772 852 117C852 117.55228 851.55228 118 851 118C850.44772 118 850 117.55228 850 117C850 116.44772 850.44772 116 851 116ZM843 120C843.55228 120 844 120.44772 844 121C844 121.55228 843.55228 122 843 122C842.44772 122 842 121.55228 842 121C842 120.44772 842.44772 120 843 120ZM847 120C847.55228 120 848 120.44772 848 121C848 121.55228 847.55228 122 847 122C846.44772 122 846 121.55228 846 121C846 120.44772 846.44772 120 847 120ZM851 120C851.55228 120 852 120.44772 852 121C852 121.55228 851.55228 122 851 122C850.44772 122 850 121.55228 850 121C850 120.44772 850.44772 120 851 120Z " fill="url(#SvgjsLinearGradient1026)" transform="matrix(1,0,0,1,-836,-89)"></path></svg>