<svg xmlns="http://www.w3.org/2000/svg" xmlns:xlink="http://www.w3.org/1999/xlink" preserveAspectRatio="xMidYMid" width="49.312" height="52.5" viewBox="0 0 49.312 52.5">
  <path d="M48.841,32.320 C48.442,32.798 47.851,33.075 47.228,33.075 L45.887,33.075 L45.122,42.691 C45.035,43.784 44.125,44.625 43.029,44.625 L38.830,44.625 C37.734,44.625 36.823,43.784 36.737,42.691 L36.205,39.375 L37.779,36.750 L38.830,42.524 L43.029,42.524 L43.947,30.975 L47.228,30.975 L45.129,19.424 L41.979,19.424 L41.979,25.725 C41.979,26.305 41.509,26.774 40.928,26.774 C40.349,26.774 39.880,26.305 39.880,25.725 L39.880,19.424 L36.729,19.424 L35.842,24.307 L35.070,20.062 C34.997,19.661 34.866,19.286 34.709,18.924 C34.942,17.995 35.761,17.324 36.729,17.324 L45.129,17.324 C46.143,17.324 47.013,18.050 47.195,19.049 L49.295,30.599 C49.406,31.213 49.239,31.842 48.841,32.320 ZM40.928,15.225 C37.450,15.225 34.630,12.404 34.630,8.924 C34.630,5.446 37.450,2.625 40.928,2.625 C44.409,2.625 47.228,5.446 47.228,8.924 C47.228,12.404 44.409,15.225 40.928,15.225 ZM40.928,4.725 C38.613,4.725 36.729,6.609 36.729,8.924 C36.729,11.241 38.613,13.125 40.928,13.125 C43.244,13.125 45.129,11.241 45.129,8.924 C45.129,6.609 43.244,4.725 40.928,4.725 ZM24.656,15.750 C20.307,15.750 16.782,12.224 16.782,7.875 C16.782,3.526 20.307,-0.000 24.656,-0.000 C29.005,-0.000 32.530,3.526 32.530,7.875 C32.530,12.224 29.005,15.750 24.656,15.750 ZM24.656,2.625 C21.762,2.625 19.407,4.980 19.407,7.875 C19.407,10.769 21.762,13.125 24.656,13.125 C27.550,13.125 29.905,10.769 29.905,7.875 C29.905,4.980 27.550,2.625 24.656,2.625 ZM8.383,15.225 C4.903,15.225 2.084,12.404 2.084,8.924 C2.084,5.446 4.903,2.625 8.383,2.625 C11.862,2.625 14.681,5.446 14.681,8.924 C14.681,12.404 11.862,15.225 8.383,15.225 ZM8.383,4.725 C6.068,4.725 4.183,6.609 4.183,8.924 C4.183,11.241 6.068,13.125 8.383,13.125 C10.698,13.125 12.583,11.241 12.583,8.924 C12.583,6.609 10.698,4.725 8.383,4.725 ZM4.183,17.324 L12.583,17.324 C13.551,17.324 14.370,17.995 14.602,18.924 C14.446,19.286 14.315,19.661 14.242,20.062 L13.470,24.307 L12.583,19.424 L9.432,19.424 L9.432,25.725 C9.432,26.305 8.963,26.774 8.383,26.774 C7.802,26.774 7.333,26.305 7.333,25.725 L7.333,19.424 L4.183,19.424 L2.084,30.975 L5.365,30.975 L6.283,42.524 L10.482,42.524 L11.532,36.750 L13.107,39.375 L12.575,42.691 C12.489,43.784 11.578,44.625 10.482,44.625 L6.283,44.625 C5.187,44.625 4.276,43.784 4.190,42.691 L3.425,33.075 L2.084,33.075 C1.461,33.075 0.870,32.798 0.471,32.320 C0.073,31.842 -0.094,31.213 0.017,30.599 L2.117,19.049 C2.299,18.050 3.169,17.324 4.183,17.324 ZM16.824,20.531 C17.051,19.283 18.138,18.375 19.407,18.375 L29.905,18.375 C31.174,18.375 32.261,19.283 32.488,20.531 L35.112,34.969 C35.252,35.733 35.043,36.521 34.546,37.119 C34.046,37.717 33.308,38.062 32.530,38.062 L30.853,38.062 L29.897,50.083 C29.788,51.448 28.649,52.500 27.281,52.500 L22.031,52.500 C20.662,52.500 19.524,51.448 19.415,50.083 L18.459,38.062 L16.782,38.062 C16.004,38.062 15.264,37.717 14.767,37.119 C14.268,36.521 14.061,35.733 14.200,34.969 L16.824,20.531 ZM20.883,35.437 L22.031,49.875 L27.281,49.875 L28.429,35.437 L32.530,35.437 L29.905,21.000 L25.968,21.000 L25.968,28.875 C25.968,29.601 25.381,30.187 24.656,30.187 C23.931,30.187 23.344,29.601 23.344,28.875 L23.344,21.000 L19.407,21.000 L16.782,35.437 L20.883,35.437 Z"/>
</svg>
