<svg xmlns="http://www.w3.org/2000/svg" xmlns:xlink="http://www.w3.org/1999/xlink" preserveAspectRatio="xMidYMid" width="52.5" height="52.5" viewBox="0 0 52.5 52.5">
  <path d="M49.875,44.625 L45.051,44.625 L44.616,50.083 C44.508,51.448 43.370,52.500 42.000,52.500 L36.750,52.500 C35.382,52.500 34.242,51.448 34.134,50.083 L33.177,38.062 L31.500,38.062 C30.722,38.062 29.984,37.717 29.484,37.119 C28.986,36.521 28.778,35.733 28.917,34.969 L31.542,20.531 C31.770,19.283 32.856,18.375 34.125,18.375 L44.625,18.375 C45.894,18.375 46.980,19.283 47.208,20.531 L49.537,33.337 L49.875,33.337 C51.325,33.337 52.500,34.511 52.500,35.962 L52.500,42.000 C52.500,43.450 51.325,44.625 49.875,44.625 ZM44.625,21.000 L40.687,21.000 L40.687,28.984 C40.687,29.710 40.100,30.297 39.375,30.297 C38.650,30.297 38.062,29.710 38.062,28.984 L38.062,21.000 L34.125,21.000 L31.500,35.437 L35.602,35.437 L36.750,49.875 L42.000,49.875 L42.417,44.625 L41.476,44.625 C40.025,44.625 38.851,43.450 38.851,42.000 L38.851,35.962 C38.851,34.511 40.025,33.337 41.476,33.337 L46.868,33.337 L44.625,21.000 ZM49.875,35.962 L41.476,35.962 L41.476,42.000 L49.875,42.000 L49.875,35.962 ZM39.375,15.750 C35.033,15.750 31.500,12.217 31.500,7.875 C31.500,3.533 35.033,-0.000 39.375,-0.000 C43.717,-0.000 47.250,3.533 47.250,7.875 C47.250,12.217 43.717,15.750 39.375,15.750 ZM39.375,2.625 C36.476,2.625 34.125,4.974 34.125,7.875 C34.125,10.775 36.476,13.125 39.375,13.125 C42.275,13.125 44.625,10.775 44.625,7.875 C44.625,4.974 42.275,2.625 39.375,2.625 ZM24.937,10.500 L24.937,25.177 C26.464,25.721 27.562,27.164 27.562,28.875 C27.562,31.049 25.799,32.812 23.625,32.812 C21.913,32.812 20.471,31.714 19.928,30.187 L10.500,30.187 L10.500,27.562 L19.928,27.562 C20.325,26.449 21.199,25.575 22.312,25.177 L22.312,10.500 L24.937,10.500 ZM23.625,30.187 C24.349,30.187 24.937,29.599 24.937,28.875 C24.937,28.151 24.349,27.562 23.625,27.562 C22.901,27.562 22.312,28.151 22.312,28.875 C22.312,29.599 22.901,30.187 23.625,30.187 ZM28.947,8.584 C27.243,8.137 25.466,7.875 23.625,7.875 C12.045,7.875 2.625,17.295 2.625,28.875 C2.625,40.455 12.045,49.875 23.625,49.875 C26.358,49.875 28.966,49.334 31.364,48.379 L31.515,50.292 C31.537,50.560 31.594,50.815 31.655,51.070 C29.145,51.978 26.449,52.500 23.625,52.500 C10.578,52.500 -0.000,41.922 -0.000,28.875 C-0.000,15.826 10.578,5.250 23.625,5.250 C25.503,5.250 27.322,5.493 29.074,5.906 C28.951,6.545 28.875,7.201 28.875,7.875 C28.875,8.118 28.931,8.346 28.947,8.584 Z"/>
</svg>
