<svg xmlns="http://www.w3.org/2000/svg" xmlns:xlink="http://www.w3.org/1999/xlink" preserveAspectRatio="xMidYMid" width="52.5" height="52.5" viewBox="0 0 52.5 52.5">
  <path d="M49.875,39.794 L46.374,39.794 L46.146,42.681 C46.060,43.769 45.138,44.619 44.048,44.619 L47.250,44.619 L47.250,52.500 L5.250,52.500 L5.250,39.363 L8.452,39.363 C7.362,39.363 6.439,38.513 6.354,37.427 L6.124,34.541 L2.625,34.541 C1.175,34.541 -0.000,33.363 -0.000,31.913 L-0.000,29.157 C-0.000,27.706 1.175,26.531 2.625,26.531 L3.404,26.531 L4.762,19.059 C4.944,18.058 5.815,17.332 6.834,17.332 L10.071,17.332 L13.308,17.332 C14.325,17.332 15.196,18.058 15.379,19.059 L16.998,27.972 C17.109,28.588 16.944,29.218 16.542,29.695 C16.141,30.178 15.554,30.454 14.927,30.454 L14.341,30.454 L13.789,37.427 C13.699,38.513 12.778,39.363 11.689,39.363 L18.375,39.363 L18.375,32.720 L23.716,32.720 C22.629,32.720 21.706,31.870 21.618,30.782 L21.066,23.809 L20.480,23.809 C19.853,23.809 19.266,23.534 18.864,23.052 C18.463,22.573 18.297,21.943 18.409,21.328 L20.027,12.416 C20.209,11.414 21.082,10.687 22.099,10.687 L25.336,10.687 L28.573,10.687 C29.591,10.687 30.463,11.414 30.645,12.416 L32.001,19.887 L32.782,19.887 C34.232,19.887 35.407,21.063 35.407,22.514 L35.407,25.268 C35.407,26.720 34.232,27.896 32.782,27.896 L29.282,27.896 L29.052,30.782 C28.966,31.870 28.044,32.720 26.954,32.720 L34.125,32.720 L34.125,44.619 L40.810,44.619 C39.722,44.619 38.801,43.769 38.711,42.681 L38.159,35.707 L37.573,35.707 C36.946,35.707 36.359,35.433 35.958,34.951 C35.556,34.470 35.391,33.843 35.502,33.225 L37.121,24.313 C37.304,23.312 38.174,22.588 39.192,22.588 L42.429,22.588 L45.667,22.588 C46.685,22.588 47.556,23.312 47.738,24.313 L49.096,31.784 L49.875,31.784 C51.325,31.784 52.500,32.962 52.500,34.412 L52.500,37.167 C52.500,38.619 51.325,39.794 49.875,39.794 ZM2.625,29.157 L2.625,31.913 L6.834,31.913 L6.834,29.157 L2.625,29.157 ZM11.949,27.861 L14.345,27.861 L12.902,19.922 L11.366,19.922 L11.366,24.364 C11.366,25.081 10.786,25.661 10.071,25.661 C9.357,25.661 8.776,25.081 8.776,24.364 L8.776,19.922 L7.239,19.922 L6.040,26.531 L6.834,26.531 C8.282,26.531 9.459,27.706 9.459,29.157 L9.459,31.913 C9.459,32.639 9.163,33.297 8.685,33.773 L8.900,36.775 L11.241,36.775 L11.949,27.861 ZM18.375,41.991 L7.875,41.991 L7.875,49.872 L18.375,49.872 L18.375,41.991 ZM28.573,25.268 L32.782,25.268 L32.782,22.514 L28.573,22.514 L28.573,25.268 ZM28.573,19.887 L29.367,19.887 L28.167,13.277 L26.631,13.277 L26.631,17.722 C26.631,18.436 26.049,19.016 25.336,19.016 C24.621,19.016 24.041,18.436 24.041,17.722 L24.041,13.277 L22.504,13.277 L21.061,21.218 L23.458,21.218 L24.166,30.132 L26.505,30.132 L26.722,27.129 C26.244,26.654 25.948,25.995 25.948,25.268 L25.948,22.514 C25.948,21.063 27.124,19.887 28.573,19.887 ZM31.500,35.346 L21.000,35.346 L21.000,49.872 L31.500,49.872 L31.500,35.346 ZM34.125,47.245 L34.125,49.872 L44.625,49.872 L44.625,47.245 L34.125,47.245 ZM45.261,25.175 L43.724,25.175 L43.724,29.619 C43.724,30.335 43.143,30.914 42.429,30.914 C41.714,30.914 41.134,30.335 41.134,29.619 L41.134,25.175 L39.598,25.175 L38.155,33.117 L40.551,33.117 L41.259,42.029 L43.600,42.029 L43.813,39.027 C43.337,38.551 43.042,37.894 43.042,37.167 L43.042,34.412 C43.042,32.962 44.218,31.784 45.667,31.784 L46.460,31.784 L45.261,25.175 ZM49.875,34.412 L45.667,34.412 L45.667,37.167 L49.875,37.167 L49.875,34.412 ZM4.729,11.988 C4.729,9.041 7.125,6.644 10.071,6.644 C13.017,6.644 15.412,9.041 15.412,11.988 C15.412,14.935 13.017,17.332 10.071,17.332 C7.125,17.332 4.729,14.935 4.729,11.988 ZM10.071,14.744 C11.588,14.744 12.823,13.507 12.823,11.988 C12.823,10.469 11.588,9.233 10.071,9.233 C8.553,9.233 7.320,10.469 7.320,11.988 C7.320,13.507 8.553,14.744 10.071,14.744 ZM19.995,5.344 C19.995,2.396 22.390,-0.000 25.336,-0.000 C28.280,-0.000 30.678,2.396 30.678,5.344 C30.678,8.292 28.280,10.687 25.336,10.687 C22.390,10.687 19.995,8.292 19.995,5.344 ZM25.336,8.100 C26.854,8.100 28.087,6.864 28.087,5.344 C28.087,3.826 26.854,2.590 25.336,2.590 C23.818,2.590 22.583,3.826 22.583,5.344 C22.583,6.864 23.818,8.100 25.336,8.100 ZM37.087,17.243 C37.087,14.294 39.483,11.897 42.429,11.897 C45.373,11.897 47.772,14.294 47.772,17.243 C47.772,20.191 45.373,22.588 42.429,22.588 C39.483,22.588 37.087,20.191 37.087,17.243 ZM42.429,19.998 C43.947,19.998 45.180,18.762 45.180,17.243 C45.180,15.724 43.947,14.487 42.429,14.487 C40.912,14.487 39.677,15.724 39.677,17.243 C39.677,18.762 40.912,19.998 42.429,19.998 Z"/>
</svg>
