<svg xmlns="http://www.w3.org/2000/svg" xmlns:xlink="http://www.w3.org/1999/xlink" preserveAspectRatio="xMidYMid" width="38" height="38" viewBox="0 0 38 38">
  <path d="M38.000,38.000 L-0.000,38.000 L-0.000,15.200 L12.513,15.200 L27.157,0.556 C27.528,0.185 28.014,-0.000 28.500,-0.000 C28.986,-0.000 29.472,0.185 29.843,0.556 L33.643,4.356 C34.386,5.098 34.386,6.302 33.643,7.043 L25.487,15.200 L38.000,15.200 L38.000,38.000 ZM32.300,5.700 L28.500,1.900 L10.172,20.228 L13.972,24.028 L32.300,5.700 ZM9.052,21.795 L5.700,28.500 L12.405,25.147 L9.052,21.795 ZM36.100,17.100 L23.587,17.100 L14.643,26.043 C14.499,26.188 14.333,26.308 14.150,26.399 L9.948,28.500 L19.000,28.500 L19.000,30.400 L5.700,30.400 C5.208,30.400 4.721,30.209 4.357,29.843 C3.779,29.265 3.635,28.381 4.000,27.650 L7.800,20.049 C7.893,19.867 8.011,19.701 8.157,19.556 L10.613,17.100 L1.900,17.100 L1.900,36.100 L36.100,36.100 L36.100,17.100 ZM24.700,34.200 L3.800,34.200 L3.800,32.300 L24.700,32.300 L24.700,34.200 ZM27.058,28.008 C27.228,28.177 27.321,28.433 27.321,28.737 C27.312,29.530 27.528,30.099 27.980,30.484 C28.239,30.697 28.590,30.853 29.028,30.945 L29.028,26.966 C28.021,26.695 27.275,26.340 26.749,25.887 C26.063,25.304 25.716,24.529 25.716,23.581 C25.716,22.497 26.100,21.615 26.860,20.952 C27.444,20.452 28.171,20.149 29.028,20.049 L29.028,19.604 C29.028,19.078 29.368,18.737 29.895,18.737 C30.433,18.737 30.779,19.078 30.779,19.604 L30.779,20.054 C31.632,20.158 32.346,20.462 32.903,20.955 C33.577,21.564 33.916,22.364 33.916,23.338 C33.916,23.644 33.816,23.902 33.621,24.101 C33.313,24.445 32.646,24.462 32.285,24.104 C32.086,23.906 31.986,23.648 31.986,23.338 C31.961,22.820 31.778,22.434 31.431,22.172 C31.255,22.047 31.036,21.954 30.779,21.894 L30.779,25.573 C31.896,25.907 32.693,26.280 33.216,26.716 C33.927,27.300 34.287,28.110 34.287,29.125 C34.287,30.199 33.880,31.095 33.075,31.785 C32.446,32.323 31.674,32.665 30.779,32.802 L30.779,33.554 C30.779,34.091 30.433,34.437 29.895,34.437 C29.368,34.437 29.028,34.091 29.028,33.554 L29.028,32.785 C28.085,32.652 27.334,32.378 26.789,31.968 C25.903,31.268 25.457,30.182 25.457,28.737 C25.457,28.425 25.550,28.175 25.737,27.989 C26.039,27.646 26.725,27.635 27.058,28.008 ZM29.028,21.892 C28.734,21.969 28.473,22.089 28.250,22.257 C27.848,22.556 27.660,22.943 27.660,23.468 C27.660,23.898 27.788,24.235 28.046,24.503 C28.257,24.719 28.587,24.910 29.028,25.071 L29.028,21.892 ZM30.779,30.930 C31.108,30.841 31.403,30.703 31.657,30.512 C32.113,30.187 32.325,29.776 32.325,29.222 C32.325,28.663 32.188,28.256 31.916,28.017 C31.768,27.882 31.452,27.687 30.779,27.475 L30.779,30.930 ZM29.172,6.372 L21.572,13.972 L20.228,12.628 L27.828,5.027 L29.172,6.372 Z"/>
</svg>
