<svg xmlns="http://www.w3.org/2000/svg" xmlns:xlink="http://www.w3.org/1999/xlink" preserveAspectRatio="xMidYMid" width="32" height="40" viewBox="0 0 32 40">
  <path d="M4.000,40.000 L4.000,38.000 L30.000,38.000 L30.000,4.000 L32.000,4.000 L32.000,40.000 L4.000,40.000 ZM-0.000,-0.000 L28.000,-0.000 L28.000,36.000 L-0.000,36.000 L-0.000,-0.000 ZM2.000,34.000 L26.000,34.000 L26.000,2.000 L2.000,2.000 L2.000,34.000 ZM16.000,8.000 L24.000,8.000 L24.000,10.000 L16.000,10.000 L16.000,8.000 ZM4.000,4.000 L24.000,4.000 L24.000,6.000 L4.000,6.000 L4.000,4.000 ZM14.000,10.000 L4.000,10.000 L4.000,8.000 L14.000,8.000 L14.000,10.000 ZM10.000,14.000 L4.000,14.000 L4.000,12.000 L10.000,12.000 L10.000,14.000 ZM10.000,30.000 L4.000,30.000 L4.000,28.000 L10.000,28.000 L10.000,30.000 Z"/>
</svg>
