<svg xmlns="http://www.w3.org/2000/svg" xmlns:xlink="http://www.w3.org/1999/xlink" preserveAspectRatio="xMidYMid" width="19.03" height="40" viewBox="0 0 19.03 40">
  <path d="M18.437,26.867 C18.076,27.229 17.575,27.453 17.023,27.453 L14.193,27.453 C13.634,27.453 13.099,27.219 12.721,26.807 L11.116,25.063 L12.014,35.833 C12.082,36.649 11.647,37.423 10.914,37.789 L6.913,39.789 C6.631,39.930 6.325,40.000 6.018,40.000 C5.712,40.000 5.406,39.930 5.124,39.789 L1.122,37.789 C0.390,37.423 -0.045,36.649 0.023,35.833 L2.024,11.833 C2.110,10.797 2.977,10.000 4.018,10.000 L8.019,10.000 C9.060,10.000 9.927,10.797 10.013,11.833 L10.160,13.596 L18.377,21.152 C18.789,21.531 19.023,22.064 19.023,22.625 L19.023,25.453 C19.023,26.005 18.799,26.505 18.437,26.867 ZM4.018,12.000 L3.654,16.363 L8.019,12.000 L4.018,12.000 ZM8.237,14.610 L3.397,19.448 L2.926,25.091 L8.635,19.385 L8.237,14.610 ZM8.852,21.995 L2.669,28.176 L2.199,33.818 L9.250,26.769 L8.852,21.995 ZM9.468,29.379 L2.569,36.276 L6.018,38.000 L10.020,36.000 L9.468,29.379 ZM17.023,22.625 L10.405,16.539 L10.845,21.815 L14.193,25.453 L17.023,25.453 L17.023,22.625 ZM9.808,6.895 C9.470,7.571 8.777,8.000 8.019,8.000 L4.018,8.000 C3.260,8.000 2.567,7.571 2.228,6.895 L0.227,2.895 C-0.083,2.274 -0.050,1.538 0.315,0.948 C0.679,0.359 1.324,-0.000 2.017,-0.000 L10.020,-0.000 C10.713,-0.000 11.358,0.359 11.722,0.948 C12.087,1.538 12.120,2.274 11.809,2.895 L9.808,6.895 ZM2.017,2.000 L4.018,6.000 L8.019,6.000 L10.020,2.000 L2.017,2.000 Z"/>
</svg>
