<svg xmlns="http://www.w3.org/2000/svg" xmlns:xlink="http://www.w3.org/1999/xlink" preserveAspectRatio="xMidYMid" width="40" height="40" viewBox="0 0 40 40">
  <path d="M12.000,33.000 C12.000,33.552 11.552,34.000 11.000,34.000 L7.000,34.000 C6.448,34.000 6.000,33.552 6.000,33.000 L6.000,29.000 C6.000,28.447 6.448,28.000 7.000,28.000 L11.000,28.000 C11.552,28.000 12.000,28.447 12.000,29.000 L12.000,33.000 ZM10.000,30.000 L8.000,30.000 L8.000,32.000 L10.000,32.000 L10.000,30.000 ZM12.000,25.000 C12.000,25.552 11.552,26.000 11.000,26.000 L7.000,26.000 C6.448,26.000 6.000,25.552 6.000,25.000 L6.000,21.000 C6.000,20.447 6.448,20.000 7.000,20.000 L11.000,20.000 C11.552,20.000 12.000,20.447 12.000,21.000 L12.000,25.000 ZM10.000,22.000 L8.000,22.000 L8.000,24.000 L10.000,24.000 L10.000,22.000 ZM11.000,10.000 L7.000,10.000 C6.448,10.000 6.000,9.552 6.000,9.000 L6.000,5.000 C6.000,4.447 6.448,4.000 7.000,4.000 L11.000,4.000 C11.552,4.000 12.000,4.447 12.000,5.000 L12.000,9.000 C12.000,9.552 11.552,10.000 11.000,10.000 ZM10.000,6.000 L8.000,6.000 L8.000,8.000 L10.000,8.000 L10.000,6.000 ZM12.000,17.000 C12.000,17.552 11.552,18.000 11.000,18.000 L7.000,18.000 C6.448,18.000 6.000,17.552 6.000,17.000 L6.000,13.000 C6.000,12.447 6.448,12.000 7.000,12.000 L11.000,12.000 C11.552,12.000 12.000,12.447 12.000,13.000 L12.000,17.000 ZM10.000,14.000 L8.000,14.000 L8.000,16.000 L10.000,16.000 L10.000,14.000 ZM15.000,10.000 C14.447,10.000 14.000,9.552 14.000,9.000 L14.000,5.000 C14.000,4.447 14.447,4.000 15.000,4.000 L19.000,4.000 C19.552,4.000 20.000,4.447 20.000,5.000 L20.000,9.000 C20.000,9.552 19.552,10.000 19.000,10.000 L15.000,10.000 ZM18.000,6.000 L16.000,6.000 L16.000,8.000 L18.000,8.000 L18.000,6.000 ZM39.000,40.000 L1.000,40.000 C0.447,40.000 -0.000,39.552 -0.000,39.000 C-0.000,38.447 0.447,38.000 1.000,38.000 L2.000,38.000 L2.000,2.000 C2.000,0.895 2.896,-0.000 4.000,-0.000 L22.000,-0.000 C23.105,-0.000 24.000,0.895 24.000,2.000 L24.000,10.000 L22.000,10.000 L22.000,2.000 L4.000,2.000 L4.000,38.000 L14.000,38.000 L14.000,14.000 C14.000,12.895 14.896,12.000 16.000,12.000 L36.000,12.000 C37.105,12.000 38.000,12.895 38.000,14.000 L38.000,38.000 L39.000,38.000 C39.552,38.000 40.000,38.447 40.000,39.000 C40.000,39.552 39.552,40.000 39.000,40.000 ZM30.000,38.000 L32.000,38.000 L32.000,34.000 L30.000,34.000 L30.000,38.000 ZM20.000,38.000 L24.000,38.000 L24.000,34.000 L20.000,34.000 L20.000,38.000 ZM36.000,14.000 L16.000,14.000 L16.000,38.000 L18.000,38.000 L18.000,34.000 C18.000,32.895 18.896,32.000 20.000,32.000 L24.000,32.000 C25.105,32.000 26.000,32.895 26.000,34.000 L26.000,38.000 L28.000,38.000 L28.000,34.000 C28.000,32.895 28.896,32.000 30.000,32.000 L32.000,32.000 C33.105,32.000 34.000,32.895 34.000,34.000 L34.000,38.000 L36.000,38.000 L36.000,14.000 ZM32.000,30.000 L20.000,30.000 C18.896,30.000 18.000,29.105 18.000,28.000 L18.000,26.000 C18.000,24.895 18.896,24.000 20.000,24.000 L32.000,24.000 C33.105,24.000 34.000,24.895 34.000,26.000 L34.000,28.000 C34.000,29.105 33.105,30.000 32.000,30.000 ZM32.000,26.000 L20.000,26.000 L20.000,28.000 L32.000,28.000 L32.000,26.000 ZM32.000,22.000 L20.000,22.000 C18.896,22.000 18.000,21.105 18.000,20.000 L18.000,18.000 C18.000,16.895 18.896,16.000 20.000,16.000 L32.000,16.000 C33.105,16.000 34.000,16.895 34.000,18.000 L34.000,20.000 C34.000,21.105 33.105,22.000 32.000,22.000 ZM32.000,18.000 L20.000,18.000 L20.000,20.000 L32.000,20.000 L32.000,18.000 Z"/>
</svg>
