<svg xmlns="http://www.w3.org/2000/svg" xmlns:xlink="http://www.w3.org/1999/xlink" preserveAspectRatio="xMidYMid" width="20" height="16" viewBox="0 0 20 16">
  <path d="M19.499,16.000 L0.499,16.000 C0.224,16.000 -0.000,15.775 -0.000,15.500 L-0.000,0.500 C-0.000,0.224 0.224,-0.000 0.499,-0.000 L19.499,-0.000 C19.776,-0.000 20.000,0.224 20.000,0.500 L20.000,15.500 C20.000,15.775 19.776,16.000 19.499,16.000 ZM19.000,1.000 L1.000,1.000 L1.000,15.000 L19.000,15.000 L19.000,1.000 ZM2.796,2.096 L10.000,7.380 L17.204,2.096 C17.426,1.932 17.739,1.980 17.903,2.204 C18.066,2.427 18.018,2.740 17.796,2.903 L10.296,8.403 C10.207,8.467 10.104,8.500 10.000,8.500 C9.896,8.500 9.792,8.467 9.704,8.403 L2.204,2.903 C1.981,2.740 1.933,2.427 2.096,2.204 C2.259,1.980 2.572,1.933 2.796,2.096 Z"/>
</svg>
