<svg xmlns="http://www.w3.org/2000/svg" xmlns:xlink="http://www.w3.org/1999/xlink" preserveAspectRatio="xMidYMid" width="20" height="20" viewBox="0 0 20 20">
  <path d="M15.499,15.500 C12.000,19.000 7.499,20.000 5.000,20.000 C2.000,20.000 -0.000,17.500 -0.000,16.000 C1.499,14.504 4.000,13.000 5.499,12.500 C7.499,14.004 8.499,16.500 12.499,12.500 C16.499,8.500 14.000,7.500 12.499,5.500 C13.000,4.000 14.499,1.500 16.000,-0.000 C17.499,-0.000 20.000,2.000 20.000,5.000 C20.000,7.500 19.000,12.000 15.499,15.500 ZM17.499,1.707 C17.206,1.440 16.825,1.292 16.488,1.084 L16.375,1.066 L16.211,1.242 C15.243,2.495 14.290,3.756 13.674,5.231 L13.641,5.317 L13.877,5.585 C13.941,5.656 14.187,5.925 14.158,5.894 C14.276,6.023 14.363,6.120 14.448,6.216 C16.304,8.338 16.155,10.259 13.206,13.207 C10.258,16.156 8.337,16.305 6.216,14.450 C6.119,14.364 6.021,14.277 5.891,14.158 C5.924,14.188 5.651,13.939 5.579,13.874 L5.316,13.642 L5.233,13.674 C3.753,14.426 2.281,15.221 1.065,16.376 L1.085,16.488 C1.292,16.826 1.441,17.206 1.707,17.499 C2.558,18.436 3.750,18.950 5.000,19.000 C8.134,19.000 12.004,17.580 14.792,14.793 C17.580,12.005 19.000,8.134 19.000,5.000 C18.974,4.740 18.993,4.471 18.922,4.220 C18.627,3.176 18.312,2.446 17.499,1.707 ZM5.049,11.000 L4.035,11.000 L4.037,10.981 C4.090,10.627 4.098,10.538 4.178,10.189 C4.355,9.425 4.645,8.687 5.036,8.007 C6.072,6.204 7.805,4.845 9.805,4.277 C10.190,4.168 10.584,4.088 10.981,4.037 L11.000,4.035 L11.000,5.049 C10.008,5.201 9.062,5.541 8.215,6.084 C6.511,7.176 5.333,8.993 5.049,11.000 ZM3.026,11.000 L2.017,11.000 C2.259,8.612 3.339,6.394 5.077,4.737 C6.623,3.263 8.610,2.325 10.725,2.046 L11.000,2.018 L11.000,3.027 C6.865,3.446 3.442,6.864 3.026,11.000 ZM1.009,11.000 L-0.000,11.000 C0.051,10.496 0.053,10.387 0.144,9.871 C0.387,8.514 0.866,7.202 1.552,6.007 C3.107,3.305 5.705,1.265 8.706,0.414 C9.283,0.250 9.873,0.130 10.469,0.054 L11.000,-0.000 L11.000,1.009 C9.195,1.192 7.583,1.719 6.051,2.701 C3.186,4.537 1.318,7.613 1.009,11.000 Z"/>
</svg>
