<svg width="25" height="25" viewBox="0 0 25 25" fill="none" xmlns="http://www.w3.org/2000/svg">
	<path d="M21.0937 2.34376H17.9688V1.56248C17.9688 1.09376 17.6563 0.781189 17.1875 0.781189C16.7187 0.781189 16.4062 1.09367 16.4062 1.56248V2.34376H8.59379V1.56248C8.59379 1.09376 8.28131 0.781189 7.81251 0.781189C7.34379 0.781189 7.03122 1.09367 7.03122 1.56248V2.34376H3.90625C1.71872 2.34376 0 4.06248 0 6.25001V20.3125C0 22.5001 1.71872 24.2188 3.90625 24.2188H21.0937C23.2813 24.2188 25 22.5001 25 20.3125V6.25001C25 4.06248 23.2813 2.34376 21.0937 2.34376ZM1.56248 6.25001C1.56248 5.00001 2.65625 3.90624 3.90625 3.90624H7.03122V4.68753C7.03122 5.15625 7.3437 5.46882 7.81251 5.46882C8.28122 5.46882 8.59379 5.15634 8.59379 4.68753V3.90624H16.4063V4.68753C16.4063 5.15625 16.7188 5.46882 17.1876 5.46882C17.6564 5.46882 17.9689 5.15634 17.9689 4.68753V3.90624H21.0938C22.3438 3.90624 23.4376 5.00001 23.4376 6.25001V8.59378H1.56248V6.25001ZM23.4375 20.3125C23.4375 21.5625 22.3438 22.6563 21.0937 22.6563H3.90625C2.65625 22.6563 1.56248 21.5625 1.56248 20.3125V10.1563H23.4375V20.3125Z" fill="#7A8281" />
	<path d="M5.46879 20.3125C5.93751 20.3125 6.25008 20.1563 6.56256 19.8438C6.87504 19.5313 7.03128 19.0625 7.03128 18.7501C7.03128 18.4376 6.87504 17.9688 6.56256 17.6563C5.9376 17.0313 5.00008 17.0313 4.37503 17.6563C4.06255 17.9688 3.90631 18.2813 3.90631 18.7501C3.90631 19.0625 4.06255 19.5313 4.37503 19.8438C4.68751 20.1563 5.00008 20.3125 5.46879 20.3125Z" fill="#7A8281" />
	<path d="M5.46879 15.625C5.93751 15.625 6.25008 15.4688 6.56256 15.1563C6.87504 14.8438 7.03128 14.375 7.03128 14.0625C7.03128 13.75 6.87504 13.2812 6.56256 12.9688C5.9376 12.3438 5.00008 12.3438 4.37503 12.9688C4.06255 13.2812 3.90631 13.5937 3.90631 14.0625C3.90631 14.5313 4.06255 14.8438 4.37503 15.1563C4.68751 15.4688 5.00008 15.625 5.46879 15.625Z" fill="#7A8281" />
	<path d="M10.1562 20.3125C10.625 20.3125 10.9375 20.1563 11.25 19.8438C11.5625 19.5313 11.7187 19.0625 11.7187 18.7501C11.7187 18.4376 11.5625 17.9688 11.25 17.6563C10.625 17.0313 9.68752 17.0313 9.06247 17.6563C8.74999 17.9688 8.59375 18.4376 8.59375 18.7501C8.59375 19.0625 8.74999 19.5313 9.06247 19.8438C9.37495 20.1563 9.68752 20.3125 10.1562 20.3125Z" fill="#7A8281" />
	<path d="M10.1562 15.625C10.625 15.625 10.9375 15.4688 11.25 15.1563C11.5625 14.8438 11.7187 14.375 11.7187 14.0625C11.7187 13.75 11.5625 13.2812 11.25 12.9688C10.625 12.3438 9.68752 12.3438 9.06247 12.9688C8.74999 13.2812 8.59375 13.75 8.59375 14.0625C8.59375 14.375 8.74999 14.8438 9.06247 15.1563C9.37495 15.4688 9.68752 15.625 10.1562 15.625Z" fill="#7A8281" />
	<path d="M14.8438 20.3125C15.3125 20.3125 15.6251 20.1563 15.9376 19.8438C16.25 19.5313 16.4063 19.2189 16.4063 18.7501C16.4063 18.2813 16.25 17.9688 15.9376 17.6563C15.3126 17.0313 14.3751 17.0313 13.75 17.6563C13.4376 17.9688 13.2813 18.4376 13.2813 18.7501C13.2813 19.0625 13.4376 19.5313 13.75 19.8438C14.0625 20.1563 14.3751 20.3125 14.8438 20.3125Z" fill="#7A8281" />
	<path d="M14.8438 15.625C15.3125 15.625 15.6251 15.4688 15.9376 15.1563C16.25 14.8438 16.4063 14.5313 16.4063 14.0625C16.4063 13.75 16.25 13.2812 15.9376 12.9688C15.3126 12.3438 14.3751 12.3438 13.75 12.9688C13.4376 13.2812 13.2813 13.75 13.2813 14.0625C13.2813 14.375 13.4376 14.8438 13.75 15.1563C14.0625 15.4688 14.3751 15.625 14.8438 15.625Z" fill="#7A8281" />
	<path d="M19.5312 20.3125C20 20.3125 20.3125 20.1563 20.625 19.8438C20.9375 19.5313 21.0937 19.0625 21.0937 18.7501C21.0937 18.4376 20.9375 17.9688 20.625 17.6563C20 17.0313 19.0625 17.0313 18.4375 17.6563C18.125 17.9688 17.9688 18.2813 17.9688 18.7501C17.9688 19.0625 18.125 19.5313 18.4375 19.8438C18.7499 20.1563 19.0625 20.3125 19.5312 20.3125Z" fill="#7A8281" />
	<path d="M19.5312 15.625C20 15.625 20.3125 15.4688 20.625 15.1563C20.9375 14.8438 21.0937 14.5313 21.0937 14.0625C21.0937 13.75 20.9375 13.2812 20.625 12.9688C20 12.3438 19.0625 12.3438 18.4375 12.9688C18.125 13.2812 17.9688 13.75 17.9688 14.0625C17.9688 14.375 18.125 14.8438 18.4375 15.1563C18.7499 15.4688 19.0625 15.625 19.5312 15.625Z" fill="#7A8281" />
</svg>
 