<svg width="18" height="18" viewBox="0 0 18 18" fill="none" xmlns="http://www.w3.org/2000/svg">
	<path fill-rule="evenodd" clip-rule="evenodd" d="M3.12891 6.5918C3.03516 6.47461 2.98828 6.34863 2.98828 6.21387C2.98828 6.0791 3.03516 5.96484 3.12891 5.87109C3.22266 5.77734 3.33984 5.73047 3.48047 5.73047C3.62109 5.73047 3.73828 5.77734 3.83203 5.87109L8.98242 11.0215L14.1328 5.87109C14.2266 5.77734 14.3437 5.73047 14.4844 5.73047C14.625 5.73047 14.7422 5.77734 14.8359 5.87109C14.9297 5.97656 14.9766 6.09668 14.9766 6.23145C14.9766 6.36621 14.9297 6.48633 14.8359 6.5918L8.98242 12.4453L3.12891 6.5918Z" fill="black" />
	<mask id="mask0" mask-type="alpha" maskUnits="userSpaceOnUse" x="2" y="5" width="13" height="8">
		<path fill-rule="evenodd" clip-rule="evenodd" d="M3.12891 6.5918C3.03516 6.47461 2.98828 6.34863 2.98828 6.21387C2.98828 6.0791 3.03516 5.96484 3.12891 5.87109C3.22266 5.77734 3.33984 5.73047 3.48047 5.73047C3.62109 5.73047 3.73828 5.77734 3.83203 5.87109L8.98242 11.0215L14.1328 5.87109C14.2266 5.77734 14.3437 5.73047 14.4844 5.73047C14.625 5.73047 14.7422 5.77734 14.8359 5.87109C14.9297 5.97656 14.9766 6.09668 14.9766 6.23145C14.9766 6.36621 14.9297 6.48633 14.8359 6.5918L8.98242 12.4453L3.12891 6.5918Z" fill="white" />
	</mask>
	<g mask="url(#mask0)">
		<path fill-rule="evenodd" clip-rule="evenodd" d="M0 18H18V0H0V18Z" fill="#262626" />
	</g>
</svg>
