<svg xmlns="http://www.w3.org/2000/svg" viewBox="0 0 511.63 399.62">
	<path d="M118.77,146.18H27.41a26.45,26.45,0,0,0-19.42,8,26.42,26.42,0,0,0-8,19.41v54.83a26.4,26.4,0,0,0,8,19.4,26.45,26.45,0,0,0,19.42,8h91.36a27.3,27.3,0,0,0,27.41-27.4V173.59a27.3,27.3,0,0,0-27.41-27.41Z" />
	<path d="M118.77,0H27.41A26.44,26.44,0,0,0,8,8,26.44,26.44,0,0,0,0,27.41V82.23a26.41,26.41,0,0,0,8,19.41,26.45,26.45,0,0,0,19.42,8h91.36a27.3,27.3,0,0,0,27.41-27.41V27.41a26.46,26.46,0,0,0-8-19.42A26.48,26.48,0,0,0,118.77,0Z" />
	<path d="M118.77,292.36H27.41a26.42,26.42,0,0,0-19.42,8,26.42,26.42,0,0,0-8,19.41V374.6A26.42,26.42,0,0,0,8,394a26.44,26.44,0,0,0,19.42,8h91.36a27.28,27.28,0,0,0,27.41-27.4V319.77a27.3,27.3,0,0,0-27.41-27.41Z" />
	<path d="M484.22,146.18H210.13a27.3,27.3,0,0,0-27.4,27.41v54.83a27.3,27.3,0,0,0,27.4,27.4H484.22a27.31,27.31,0,0,0,27.41-27.4V173.59a27.31,27.31,0,0,0-27.41-27.41Z" />
	<path d="M484.22,292.36H210.13a27.3,27.3,0,0,0-27.4,27.41v54.82a27.26,27.26,0,0,0,27.4,27.4H484.22a27.28,27.28,0,0,0,27.41-27.4V319.77a27.31,27.31,0,0,0-27.41-27.41Z" />
	<path d="M503.63,8a26.43,26.43,0,0,0-19.41-8H210.13a26.43,26.43,0,0,0-19.41,8,26.42,26.42,0,0,0-8,19.41V82.23a27.28,27.28,0,0,0,27.4,27.41H484.22a27.3,27.3,0,0,0,27.41-27.41V27.41A26.43,26.43,0,0,0,503.63,8Z" />
</svg>
