<svg xmlns="http://www.w3.org/2000/svg" style="display:none"><defs><style>.cls-1{fill:#000;fill-rule:evenodd}</style><style>.cls-1{fill:#000;fill-rule:evenodd}</style></defs><symbol id="adv1" viewbox="0 0 49.312 52.5" preserveaspectratio="xMidYMid"><path d="M48.841 32.32c-.399.478-.99.755-1.613.755h-1.341l-.765 9.616a2.099 2.099 0 0 1-2.093 1.934H38.83a2.098 2.098 0 0 1-2.093-1.934l-.532-3.316 1.574-2.625 1.051 5.774h4.199l.918-11.549h3.281l-2.099-11.551h-3.15v6.301a1.05 1.05 0 0 1-2.099 0v-6.301h-3.151l-.887 4.883-.772-4.245a5.19 5.19 0 0 0-.361-1.138 2.09 2.09 0 0 1 2.02-1.6h8.4c1.014 0 1.884.726 2.066 1.725l2.1 11.55a2.103 2.103 0 0 1-.454 1.721zm-7.913-17.095a6.3 6.3 0 0 1-6.298-6.301 6.3 6.3 0 0 1 12.598 0 6.3 6.3 0 0 1-6.3 6.301zm0-10.5a4.204 4.204 0 0 0-4.199 4.199 4.205 4.205 0 0 0 4.199 4.201 4.206 4.206 0 0 0 4.201-4.201 4.205 4.205 0 0 0-4.201-4.199zM24.656 15.75a7.874 7.874 0 0 1-7.874-7.875 7.874 7.874 0 1 1 15.748 0 7.874 7.874 0 0 1-7.874 7.875zm0-13.125a5.256 5.256 0 0 0-5.249 5.25 5.256 5.256 0 0 0 5.249 5.25 5.256 5.256 0 0 0 5.249-5.25 5.256 5.256 0 0 0-5.249-5.25zm-16.273 12.6a6.3 6.3 0 0 1-6.299-6.301 6.299 6.299 0 1 1 12.597 0 6.299 6.299 0 0 1-6.298 6.301zm0-10.5a4.205 4.205 0 0 0-4.2 4.199 4.205 4.205 0 0 0 4.2 4.201c2.315 0 4.2-1.884 4.2-4.201a4.205 4.205 0 0 0-4.2-4.199zm-4.2 12.599h8.4c.968 0 1.787.671 2.019 1.6a5.241 5.241 0 0 0-.36 1.138l-.772 4.245-.887-4.883H9.432v6.301a1.048 1.048 0 1 1-2.099 0v-6.301h-3.15L2.084 30.975h3.281l.918 11.549h4.199l1.05-5.774 1.575 2.625-.532 3.316a2.098 2.098 0 0 1-2.093 1.934H6.283a2.098 2.098 0 0 1-2.093-1.934l-.765-9.616H2.084a2.102 2.102 0 0 1-2.067-2.476l2.1-11.55a2.101 2.101 0 0 1 2.066-1.725zm12.641 3.207a2.626 2.626 0 0 1 2.583-2.156h10.498c1.269 0 2.356.908 2.583 2.156l2.624 14.438a2.626 2.626 0 0 1-.566 2.15c-.5.598-1.238.943-2.016.943h-1.677l-.956 12.021a2.625 2.625 0 0 1-2.616 2.417h-5.25a2.625 2.625 0 0 1-2.616-2.417l-.956-12.021h-1.677a2.62 2.62 0 0 1-2.582-3.093l2.624-14.438zm4.059 14.906l1.148 14.438h5.25l1.148-14.438h4.101L29.905 21h-3.937v7.875a1.31 1.31 0 1 1-2.624 0V21h-3.937l-2.625 14.437h4.101z"/></symbol><symbol id="adv2" viewbox="0 0 52.5 52.5" preserveaspectratio="xMidYMid"><path d="M49.875 44.625h-4.824l-.435 5.458A2.623 2.623 0 0 1 42 52.5h-5.25a2.625 2.625 0 0 1-2.616-2.417l-.957-12.021H31.5a2.627 2.627 0 0 1-2.583-3.093l2.625-14.438a2.627 2.627 0 0 1 2.583-2.156h10.5c1.269 0 2.355.908 2.583 2.156l2.329 12.806h.338a2.624 2.624 0 0 1 2.625 2.625V42a2.625 2.625 0 0 1-2.625 2.625zM44.625 21h-3.938v7.984a1.312 1.312 0 1 1-2.625 0V21h-3.937L31.5 35.437h4.102l1.148 14.438H42l.417-5.25h-.941A2.624 2.624 0 0 1 38.851 42v-6.038a2.623 2.623 0 0 1 2.625-2.625h5.392L44.625 21zm5.25 14.962h-8.399V42h8.399v-6.038zm-10.5-20.212c-4.342 0-7.875-3.533-7.875-7.875C31.5 3.533 35.033 0 39.375 0c4.342 0 7.875 3.533 7.875 7.875 0 4.342-3.533 7.875-7.875 7.875zm0-13.125a5.25 5.25 0 1 0 0 10.5c2.9 0 5.25-2.35 5.25-5.25 0-2.901-2.35-5.25-5.25-5.25zM24.937 10.5v14.677a3.929 3.929 0 0 1 2.625 3.698 3.937 3.937 0 0 1-3.937 3.937 3.926 3.926 0 0 1-3.697-2.625H10.5v-2.625h9.428a3.936 3.936 0 0 1 2.384-2.385V10.5h2.625zm-1.312 19.687a1.313 1.313 0 1 0-.002-2.626 1.313 1.313 0 0 0 .002 2.626zm5.322-21.603a20.92 20.92 0 0 0-5.322-.709c-11.58 0-21 9.42-21 21s9.42 21 21 21c2.733 0 5.341-.541 7.739-1.496l.151 1.913c.022.268.079.523.14.778a23.54 23.54 0 0 1-8.03 1.43C10.578 52.5 0 41.922 0 28.875 0 15.826 10.578 5.25 23.625 5.25c1.878 0 3.697.243 5.449.656a10.393 10.393 0 0 0-.199 1.969c0 .243.056.471.072.709z"/></symbol><symbol id="adv3" viewbox="0 0 52.5 52.5" preserveaspectratio="xMidYMid"><path d="M49.875 39.794h-3.501l-.228 2.887a2.114 2.114 0 0 1-2.098 1.938h3.202V52.5h-42V39.363h3.202c-1.09 0-2.013-.85-2.098-1.936l-.23-2.886H2.625A2.627 2.627 0 0 1 0 31.913v-2.756a2.625 2.625 0 0 1 2.625-2.626h.779l1.358-7.472a2.103 2.103 0 0 1 2.072-1.727h6.474c1.017 0 1.888.726 2.071 1.727l1.619 8.913a2.092 2.092 0 0 1-.456 1.723 2.09 2.09 0 0 1-1.615.759h-.586l-.552 6.973a2.12 2.12 0 0 1-2.1 1.936h6.686V32.72h5.341c-1.087 0-2.01-.85-2.098-1.938l-.552-6.973h-.586a2.095 2.095 0 0 1-1.616-.757 2.096 2.096 0 0 1-.455-1.724l1.618-8.912a2.106 2.106 0 0 1 2.072-1.729h6.474c1.018 0 1.89.727 2.072 1.729l1.356 7.471h.781a2.626 2.626 0 0 1 2.625 2.627v2.754a2.626 2.626 0 0 1-2.625 2.628h-3.5l-.23 2.886a2.114 2.114 0 0 1-2.098 1.938h7.171v11.899h6.685a2.12 2.12 0 0 1-2.099-1.938l-.552-6.974h-.586a2.09 2.09 0 0 1-1.615-.756 2.1 2.1 0 0 1-.456-1.726l1.619-8.912a2.102 2.102 0 0 1 2.071-1.725h6.475c1.018 0 1.889.724 2.071 1.725l1.358 7.471h.779a2.627 2.627 0 0 1 2.625 2.628v2.755a2.625 2.625 0 0 1-2.625 2.627zM2.625 29.157v2.756h4.209v-2.756H2.625zm9.324-1.296h2.396l-1.443-7.939h-1.536v4.442a1.296 1.296 0 1 1-2.59 0v-4.442H7.239L6.04 26.531h.794a2.626 2.626 0 0 1 2.625 2.626v2.756c0 .726-.296 1.384-.774 1.86l.215 3.002h2.341l.708-8.914zm6.426 14.13h-10.5v7.881h10.5v-7.881zm10.198-16.723h4.209v-2.754h-4.209v2.754zm0-5.381h.794l-1.2-6.61h-1.536v4.445a1.295 1.295 0 0 1-2.59 0v-4.445h-1.537l-1.443 7.941h2.397l.708 8.914h2.339l.217-3.003a2.617 2.617 0 0 1-.774-1.861v-2.754a2.626 2.626 0 0 1 2.625-2.627zM31.5 35.346H21v14.526h10.5V35.346zm2.625 11.899v2.627h10.5v-2.627h-10.5zm11.136-22.07h-1.537v4.444a1.295 1.295 0 0 1-2.59 0v-4.444h-1.536l-1.443 7.942h2.396l.708 8.912H43.6l.213-3.002a2.622 2.622 0 0 1-.771-1.86v-2.755a2.628 2.628 0 0 1 2.625-2.628h.793l-1.199-6.609zm4.614 9.237h-4.208v2.755h4.208v-2.755zM4.729 11.988a5.349 5.349 0 0 1 5.342-5.344 5.348 5.348 0 0 1 5.341 5.344 5.348 5.348 0 0 1-5.341 5.344 5.349 5.349 0 0 1-5.342-5.344zm5.342 2.756a2.758 2.758 0 0 0 2.752-2.756 2.757 2.757 0 0 0-2.752-2.755 2.755 2.755 0 0 0 0 5.511zm9.924-9.4A5.347 5.347 0 0 1 25.336 0a5.35 5.35 0 0 1 5.342 5.344 5.348 5.348 0 0 1-5.342 5.343 5.346 5.346 0 0 1-5.341-5.343zM25.336 8.1a2.756 2.756 0 0 0 0-5.51 2.757 2.757 0 0 0-2.753 2.754A2.757 2.757 0 0 0 25.336 8.1zm11.751 9.143a5.349 5.349 0 0 1 5.342-5.346 5.351 5.351 0 0 1 5.343 5.346 5.35 5.35 0 0 1-5.343 5.345 5.349 5.349 0 0 1-5.342-5.345zm5.342 2.755a2.755 2.755 0 0 0 0-5.511 2.758 2.758 0 0 0-2.752 2.756 2.757 2.757 0 0 0 2.752 2.755z"/></symbol><symbol id="item1" viewbox="0 0 40 40" preserveaspectratio="xMidYMid"><path d="M12 33a1 1 0 0 1-1 1H7a1 1 0 0 1-1-1v-4a1 1 0 0 1 1-1h4a1 1 0 0 1 1 1v4zm-2-3H8v2h2v-2zm2-5a1 1 0 0 1-1 1H7a1 1 0 0 1-1-1v-4a1 1 0 0 1 1-1h4a1 1 0 0 1 1 1v4zm-2-3H8v2h2v-2zm1-12H7a1 1 0 0 1-1-1V5a1 1 0 0 1 1-1h4a1 1 0 0 1 1 1v4a1 1 0 0 1-1 1zm-1-4H8v2h2V6zm2 11a1 1 0 0 1-1 1H7a1 1 0 0 1-1-1v-4a1 1 0 0 1 1-1h4a1 1 0 0 1 1 1v4zm-2-3H8v2h2v-2zm5-4a1 1 0 0 1-1-1V5a1 1 0 0 1 1-1h4a1 1 0 0 1 1 1v4a1 1 0 0 1-1 1h-4zm3-4h-2v2h2V6zm21 34H1a1 1 0 1 1 0-2h1V2a2 2 0 0 1 2-2h18a2 2 0 0 1 2 2v8h-2V2H4v36h10V14a2 2 0 0 1 2-2h20a2 2 0 0 1 2 2v24h1a1 1 0 1 1 0 2zm-9-2h2v-4h-2v4zm-10 0h4v-4h-4v4zm16-24H16v24h2v-4a2 2 0 0 1 2-2h4a2 2 0 0 1 2 2v4h2v-4a2 2 0 0 1 2-2h2a2 2 0 0 1 2 2v4h2V14zm-4 16H20a2 2 0 0 1-2-2v-2a2 2 0 0 1 2-2h12a2 2 0 0 1 2 2v2a2 2 0 0 1-2 2zm0-4H20v2h12v-2zm0-4H20a2 2 0 0 1-2-2v-2a2 2 0 0 1 2-2h12a2 2 0 0 1 2 2v2a2 2 0 0 1-2 2zm0-4H20v2h12v-2z"/></symbol><symbol id="item2" viewbox="0 0 38 38" preserveaspectratio="xMidYMid"><path d="M38 38H0V15.2h12.513L27.157.556A1.893 1.893 0 0 1 28.5 0c.486 0 .972.185 1.343.556l3.8 3.8a1.898 1.898 0 0 1 0 2.687L25.487 15.2H38V38zM32.3 5.7l-3.8-3.8-18.328 18.328 3.8 3.8L32.3 5.7zM9.052 21.795L5.7 28.5l6.705-3.353-3.353-3.352zM36.1 17.1H23.587l-8.944 8.943c-.144.145-.31.265-.493.356L9.948 28.5H19v1.9H5.7A1.902 1.902 0 0 1 4 27.65l3.8-7.601c.093-.182.211-.348.357-.493l2.456-2.456H1.9v19h34.2v-19zM24.7 34.2H3.8v-1.9h20.9v1.9zm2.358-6.192c.17.169.263.425.263.729-.009.793.207 1.362.659 1.747.259.213.61.369 1.048.461v-3.979c-1.007-.271-1.753-.626-2.279-1.079-.686-.583-1.033-1.358-1.033-2.306 0-1.084.384-1.966 1.144-2.629.584-.5 1.311-.803 2.168-.903v-.445c0-.526.34-.867.867-.867.538 0 .884.341.884.867v.45c.853.104 1.567.408 2.124.901.674.609 1.013 1.409 1.013 2.383 0 .306-.1.564-.295.763-.308.344-.975.361-1.336.003a1.038 1.038 0 0 1-.299-.766c-.025-.518-.208-.904-.555-1.166a1.841 1.841 0 0 0-.652-.278v3.679c1.117.334 1.914.707 2.437 1.143.711.584 1.071 1.394 1.071 2.409 0 1.074-.407 1.97-1.212 2.66-.629.538-1.401.88-2.296 1.017v.752c0 .537-.346.883-.884.883-.527 0-.867-.346-.867-.883v-.769c-.943-.133-1.694-.407-2.239-.817-.886-.7-1.332-1.786-1.332-3.231 0-.312.093-.562.28-.748.302-.343.988-.354 1.321.019zm1.97-6.116a2.207 2.207 0 0 0-.778.365c-.402.299-.59.686-.59 1.211 0 .43.128.767.386 1.035.211.216.541.407.982.568v-3.179zm1.751 9.038c.329-.089.624-.227.878-.418.456-.325.668-.736.668-1.29 0-.559-.137-.966-.409-1.205-.148-.135-.464-.33-1.137-.542v3.455zM29.172 6.372l-7.6 7.6-1.344-1.344 7.6-7.601 1.344 1.345z"/></symbol><symbol id="item3" viewbox="0 0 32 40" preserveaspectratio="xMidYMid"><path d="M4 40v-2h26V4h2v36H4zM0 0h28v36H0V0zm2 34h24V2H2v32zM16 8h8v2h-8V8zM4 4h20v2H4V4zm10 6H4V8h10v2zm-4 4H4v-2h6v2zm0 16H4v-2h6v2z"/></symbol><symbol id="item4" viewbox="0 0 19.03 40" preserveaspectratio="xMidYMid"><path d="M18.437 26.867a1.992 1.992 0 0 1-1.414.586h-2.83a1.999 1.999 0 0 1-1.472-.646l-1.605-1.744.898 10.77a2 2 0 0 1-1.1 1.956l-4.001 2a1.998 1.998 0 0 1-1.789 0l-4.002-2a2 2 0 0 1-1.099-1.956l2.001-24A2 2 0 0 1 4.018 10h4.001a2 2 0 0 1 1.994 1.833l.147 1.763 8.217 7.556c.412.379.646.912.646 1.473v2.828c0 .552-.224 1.052-.586 1.414zM4.018 12l-.364 4.363L8.019 12H4.018zm4.219 2.61l-4.84 4.838-.471 5.643 5.709-5.706-.398-4.775zm.615 7.385l-6.183 6.181-.47 5.642 7.051-7.049-.398-4.774zm.616 7.384l-6.899 6.897L6.018 38l4.002-2-.552-6.621zm7.555-6.754l-6.618-6.086.44 5.276 3.348 3.638h2.83v-2.828zM9.808 6.895A2.001 2.001 0 0 1 8.019 8H4.018a2.004 2.004 0 0 1-1.79-1.105l-2.001-4A2 2 0 0 1 2.017 0h8.003a2.002 2.002 0 0 1 1.789 2.895l-2.001 4zM2.017 2l2.001 4h4.001l2.001-4H2.017z"/></symbol><symbol id="mail" viewbox="0 0 20 16" preserveaspectratio="xMidYMid"><path d="M19.499 16h-19A.5.5 0 0 1 0 15.5V.5A.5.5 0 0 1 .499 0h19A.5.5 0 0 1 20 .5v15c0 .275-.224.5-.501.5zM19 1H1v14h18V1zM2.796 2.096L10 7.38l7.204-5.284a.5.5 0 0 1 .592.807l-7.5 5.5a.506.506 0 0 1-.592 0l-7.5-5.5a.5.5 0 1 1 .592-.807z" class="cls-1"/></symbol><symbol id="phone" viewbox="0 0 20 20" preserveaspectratio="xMidYMid"><path d="M15.499 15.5C12 19 7.499 20 5 20c-3 0-5-2.5-5-4 1.499-1.496 4-3 5.499-3.5 2 1.504 3 4 7 0s1.501-5 0-7C13 4 14.499 1.5 16 0c1.499 0 4 2 4 5 0 2.5-1 7-4.501 10.5zm2-13.793c-.293-.267-.674-.415-1.011-.623l-.113-.018-.164.176c-.968 1.253-1.921 2.514-2.537 3.989l-.033.086.236.268.281.309c.118.129.205.226.29.322 1.856 2.122 1.707 4.043-1.242 6.991-2.948 2.949-4.869 3.098-6.99 1.243a25.365 25.365 0 0 1-.325-.292l-.312-.284-.263-.232-.083.032c-1.48.752-2.952 1.547-4.168 2.702l.02.112c.207.338.356.718.622 1.011C2.558 18.436 3.75 18.95 5 19c3.134 0 7.004-1.42 9.792-4.207C17.58 12.005 19 8.134 19 5c-.026-.26-.007-.529-.078-.78-.295-1.044-.61-1.774-1.423-2.513zM5.049 11H4.035l.002-.019c.053-.354.061-.443.141-.792a8.014 8.014 0 0 1 .858-2.182 8.093 8.093 0 0 1 4.769-3.73 8.119 8.119 0 0 1 1.176-.24L11 4.035v1.014a7.134 7.134 0 0 0-2.785 1.035A7.063 7.063 0 0 0 5.049 11zm-2.023 0H2.017a10.04 10.04 0 0 1 3.06-6.263 10.106 10.106 0 0 1 5.648-2.691L11 2.018v1.009C6.865 3.446 3.442 6.864 3.026 11zm-2.017 0H0c.051-.504.053-.613.144-1.129a12.04 12.04 0 0 1 1.408-3.864A12.143 12.143 0 0 1 8.706.414a12.006 12.006 0 0 1 1.763-.36L11 0v1.009c-1.805.183-3.417.71-4.949 1.692A11.074 11.074 0 0 0 1.009 11z" class="cls-1"/></symbol></svg>