<svg width="25" height="22" viewBox="0 0 25 22" fill="none" xmlns="http://www.w3.org/2000/svg">
	<path d="M23.6433 9.46605H14.2441V1.19477C14.2441 0.817982 13.6627 0.000976562 12.4999 0.000976562C11.3372 0.000976562 10.7558 0.818027 10.7558 1.19477V9.46609H1.35659C0.928465 9.46605 0 9.97769 0 11.0009C0 12.0241 0.928465 12.5358 1.35659 12.5358H10.7558V20.8071C10.7558 21.1838 11.3372 22.0009 12.5 22.0009C13.6628 22.0009 14.2442 21.1838 14.2442 20.8071V12.5358H23.6434C24.0715 12.5358 25 12.0242 25 11.0009C25 9.9776 24.0714 9.46605 23.6433 9.46605Z" />
</svg>
