<svg width="51" height="48" viewBox="0 0 51 48" fill="none" xmlns="http://www.w3.org/2000/svg">
	<path d="M25.0762 0C11.2272 0 0 10.7453 0 24C0 37.2547 11.2272 48 25.0762 48C25.8317 48 26.5843 47.9676 27.3333 47.9031C28.0296 47.8434 28.7197 47.752 29.4046 47.6375L29.6678 47.593C42.4006 45.3188 51.2292 34.1379 50.0382 21.7934C48.8472 9.44883 38.029 0.00390625 25.0762 0V0ZM23.0617 46.3152H23.0025C22.3523 46.2602 21.707 46.177 21.0675 46.0703C21.0307 46.0641 20.994 46.0602 20.9581 46.0535C20.3328 45.9465 19.7141 45.8137 19.1014 45.6586L18.9533 45.6223C18.3558 45.4672 17.7648 45.2871 17.1824 45.0871C17.122 45.0664 17.0611 45.048 17.0007 45.0266C16.4298 44.8258 15.869 44.6008 15.3168 44.3574C15.2482 44.3281 15.1796 44.3 15.111 44.2687C14.5694 44.0289 14.0385 43.7586 13.5177 43.4742C13.4442 43.4344 13.3699 43.3945 13.2964 43.3551C12.7838 43.0688 12.283 42.7617 11.7916 42.4375C11.7173 42.3879 11.6422 42.3398 11.5684 42.2902C11.0855 41.9625 10.615 41.6145 10.1566 41.2504L10.0305 41.1449V34.4C10.0366 29.5422 14.1495 25.6059 19.2251 25.6H30.9274C36.003 25.6059 40.1159 29.5422 40.122 34.4V41.1457L40.011 41.2344C39.5436 41.6078 39.0641 41.9609 38.5715 42.2945C38.5061 42.3383 38.44 42.3801 38.3751 42.423C37.878 42.7535 37.3687 43.0645 36.8471 43.3566C36.7817 43.393 36.7148 43.4273 36.6499 43.4633C36.1214 43.7512 35.5839 44.023 35.0357 44.268C34.9729 44.2961 34.9096 44.3223 34.8459 44.348C34.2892 44.5938 33.7235 44.8199 33.1485 45.0223C33.0913 45.0426 33.0338 45.0602 32.9811 45.0793C32.3959 45.2801 31.8024 45.4617 31.2016 45.6176L31.0576 45.652C30.4441 45.807 29.825 45.9406 29.1989 46.048C29.163 46.0543 29.127 46.0586 29.0911 46.0641C28.4508 46.1711 27.8047 46.2543 27.1541 46.3098H27.0949C26.4264 46.3648 25.7574 46.3945 25.0803 46.3945C24.4032 46.3945 23.729 46.3703 23.0617 46.3152ZM41.7937 39.6625V34.4C41.7868 28.659 36.9258 24.0066 30.9274 24H19.2251C13.2267 24.0066 8.36569 28.659 8.35875 34.4V39.6617C-0.644048 30.8676 -0.543645 16.768 8.58323 8.0918C17.7101 -0.583984 32.4424 -0.583984 41.5693 8.0918C50.6961 16.768 50.7965 30.8676 41.7937 39.6617V39.6625Z" fill="#434241" />
	<path d="M25.0762 6.39999C20.4597 6.39999 16.7175 9.98163 16.7175 14.4C16.7175 18.8184 20.4597 22.4 25.0762 22.4C29.6927 22.4 33.435 18.8184 33.435 14.4C33.4301 9.98359 29.6907 6.40468 25.0762 6.39999ZM25.0762 20.8C21.3829 20.8 18.3892 17.9348 18.3892 14.4C18.3892 10.8652 21.3829 7.99999 25.0762 7.99999C28.7695 7.99999 31.7632 10.8652 31.7632 14.4C31.7591 17.9328 28.7674 20.7961 25.0762 20.8Z" fill="#434241" />
</svg>
