<svg width="26" height="26" viewBox="0 0 26 26" fill="none" xmlns="http://www.w3.org/2000/svg">
	<path d="M1.90735e-06 23.9433L7.67584 16.2675C6.4017 14.5672 5.63712 12.4645 5.63712 10.1814C5.63712 4.5671 10.2042 0 15.8186 0C21.4329 0 26 4.5671 26 10.1814C26 15.7958 21.4329 20.3629 15.8186 20.3629C13.5355 20.3629 11.4328 19.5983 9.73248 18.3242L2.05665 26L1.90735e-06 23.9433ZM25.0303 10.1814C25.0303 5.10187 20.8981 0.969661 15.8186 0.969661C10.739 0.969661 6.60678 5.10187 6.60678 10.1814C6.60678 15.261 10.739 19.3932 15.8186 19.3932C20.8981 19.3932 25.0303 15.261 25.0303 10.1814ZM8.75604 17.499C8.66974 17.4156 8.58489 17.3307 8.5015 17.2444C8.43072 17.1712 8.35411 17.1038 8.28575 17.0287L1.3711 23.9433L2.05714 24.6294L8.9713 17.7142C8.89615 17.6459 8.82925 17.5693 8.75604 17.499Z" fill="#3F3E3C" fill-opacity="0.8" />
</svg>
