<svg xmlns="http://www.w3.org/2000/svg" xmlns:xlink="http://www.w3.org/1999/xlink" width="30" height="25" viewBox="0 0 30 25"><defs><path id="j0e8a" d="M786.328 1468.39c.01-.177.039-.334.085-.472a1 1 0 0 1 .997-.918H792a1 1 0 0 1 1 1v.81a1 1 0 0 1-1 1h-2.7c-.017.108-.036.215-.05.323l-1.339 9.999c-.17 1.27-.317 2.543-.522 3.807-.169 1.038-.805 1.553-1.82 1.554-5.714.004-11.428.007-17.142.007-.892 0-1.465-.415-1.752-1.265-1.17-3.467-2.346-6.933-3.495-10.408-.14-.424-.184-.897-.18-1.346.006-.62.385-1.055.99-1.204a3.89 3.89 0 0 1 .92-.091c6.861-.005 13.723-.004 20.585-.004h.494c.121-.955.29-1.87.339-2.791zm-18.988 8.495h17.94l.368-2.902H766.5l.84 2.902zm1.557 5.21c.019.062.12.112.194.14.06.024.136.006.205.006h15.315l.347-2.73h-16.832c.26.88.51 1.733.77 2.584zm2.93 4.349a2.785 2.785 0 0 1 2.776 2.778 2.793 2.793 0 0 1-2.78 2.779 2.776 2.776 0 0 1-2.786-2.8 2.768 2.768 0 0 1 2.79-2.757zm12.155 0a2.784 2.784 0 0 1 2.8 2.754c.018 1.532-1.249 2.804-2.79 2.803a2.78 2.78 0 0 1-2.778-2.776 2.77 2.77 0 0 1 2.768-2.781z"/></defs><g><g transform="translate(-763 -1467)"><use fill="#fff" xlink:href="#j0e8a"/></g></g></svg>