<svg xmlns="http://www.w3.org/2000/svg" width="34" height="29" viewBox="0 0 34 29">
  <defs>
    <style>
      .cls-1 {
        fill: #fff;
        fill-opacity: 0;
        stroke: #fff;
        stroke-linejoin: round;
        stroke-width: 3px;
        fill-rule: evenodd;
      }
    </style>
  </defs>
  <path id="Фигура_1455_копия" data-name="Фигура 1455 копия" class="cls-1" d="M847.483,1472.2c0.125-.23.237-0.44,0.36-0.66a10.308,10.308,0,0,1,2.43-2.94,7.261,7.261,0,0,1,3.973-1.55,8.389,8.389,0,0,1,3.413.39,7.875,7.875,0,0,1,2.484,1.39,7.719,7.719,0,0,1,2.3,3.13,7.627,7.627,0,0,1,.5,2.07,6.391,6.391,0,0,1-.248,2.62,7.5,7.5,0,0,1-.858,1.82,16.23,16.23,0,0,1-2.412,2.85l-4.414,4.32c-1.4,1.37-2.807,2.75-4.209,4.12q-1.6,1.575-3.2,3.14a0.184,0.184,0,0,1-.037.04c-0.061.08-.106,0.08-0.185,0-1.271-1.25-2.547-2.49-3.821-3.74-1.016-1-2.031-1.99-3.047-2.99l-3.381-3.3c-0.65-.64-1.3-1.27-1.947-1.91a18.857,18.857,0,0,1-1.673-1.86,8.021,8.021,0,0,1-1.139-2,6.159,6.159,0,0,1-.362-1.61,7.54,7.54,0,0,1,.575-3.74,7.653,7.653,0,0,1,1.812-2.59,7.911,7.911,0,0,1,3.931-2.03,8.38,8.38,0,0,1,4.011.19,7.237,7.237,0,0,1,3.222,2.05,11.926,11.926,0,0,1,1.884,2.74A0.539,0.539,0,0,0,847.483,1472.2Z" transform="translate(-830.469 -1465.5)"/>
</svg>
