<svg xmlns="http://www.w3.org/2000/svg" xmlns:xlink="http://www.w3.org/1999/xlink" width="25" height="13" viewBox="0 0 25 13"><defs><path id="lq00a" d="M453.808 1318.596l-.84-2.252h-.091l.292 2.215v6.335h-2.172v-12.907h1.77l3.668 6.444.416 1.174v-7.527h8.525l1.24 7.05.183 2.306h.073l.2-2.344 1.716-7.012h1.606l1.66 7.05.2 2.306h.074l.2-2.344 1.132-7.012h2.335l-2.864 12.908h-1.624l-1.789-7.067-.237-1.996h-.091l-.22 2.014-1.787 7.049h-1.697l-2.449-11.103v.319h-4.028v3.149h3.645v2.124h-3.645v3.295h4.101v2.124h-4.101v.092h-1.77l-.052-.092h-.536v-.943z"/></defs><g><g transform="translate(-451 -1312)"><use xlink:href="#lq00a"/></g></g></svg>