<svg xmlns="http://www.w3.org/2000/svg" xmlns:xlink="http://www.w3.org/1999/xlink" width="12" height="13" viewBox="0 0 12 13"><defs><path id="wwaka" d="M936.585 1321.762c0-1.049 0-2.097-.002-3.146 0-.072.015-.093.085-.093 1.658.003 3.315.003 4.973 0 .068 0 .083.02.082.09v5.75c0 .184-.004.368 0 .551.002.068-.017.085-.08.085-1.155-.002-2.31-.001-3.466-.001-.51 0-1.02-.003-1.529.001-.068 0-.064-.034-.064-.082v-3.155zm10.799.001v3.163c.001.054-.01.073-.065.073-1.655-.002-3.31-.002-4.965 0-.078 0-.095-.023-.094-.101.002-1.92.001-3.839.001-5.758 0-.181.002-.362 0-.543-.001-.054.013-.074.067-.073.16.004.322.001.482.002l4.355.001c.053 0 .106.003.158-.003.053-.005.063.019.062.069-.002.207 0 .415 0 .622v2.548h-.001zm-9.274-6.666l-.032-.015a.295.295 0 0 0-.117-.066.144.144 0 0 0-.062-.041.012.012 0 0 0-.013-.006.067.067 0 0 0-.047-.03 1.893 1.893 0 0 1-.525-.541c-.373-.604-.285-1.497.2-1.964.225-.216.498-.322.792-.378a2.78 2.78 0 0 1 1.16.01 3.442 3.442 0 0 1 1.446.73c.44.368.783.82 1.023 1.358l.033.07.115-.236a3.667 3.667 0 0 1 1.69-1.674c.423-.209.87-.324 1.34-.312.318.008.634.047.933.182.38.17.632.462.743.883.144.543.058 1.044-.275 1.487-.198.264-.464.436-.752.57a4.977 4.977 0 0 1-1.174.356c-.63.122-1.265.205-1.901.267a7.918 7.918 0 0 1-1.632-.02c-.344-.038-.687-.086-1.03-.131-.03-.004-.06-.002-.09-.003-.081-.047-.17-.046-.257-.05-.067-.021-.136-.023-.205-.033a.18.18 0 0 0-.127-.027 1.569 1.569 0 0 0-.03-.004c-.013-.013-.029-.014-.045-.01l-.03-.005c-.078-.029-.16-.042-.242-.056l-.03-.005c-.027-.019-.059-.023-.09-.028l-.052-.01a.535.535 0 0 1-.023-.009c-.006 0-.01-.002-.016-.003-.008-.01-.017-.015-.029-.01l-.02-.005-.147-.047-.006-.003h-.007c-.008-.012-.019-.013-.031-.01l-.024-.008a.142.142 0 0 0-.083-.028l-.003-.004h-.005l-.323-.14zm-.15-.08zm2.095-.08l.026.002c.01.011.02.013.033.01.147.02.293.043.44.062.324.043.648.083.973.103.059.004.077-.01.06-.074-.14-.542-.374-1.029-.746-1.436a2.942 2.942 0 0 0-1.372-.868 2.166 2.166 0 0 0-1.028-.043c-.187.037-.369.086-.514.225-.244.233-.302.726-.132 1.059.13.254.344.403.579.523.295.152.611.238.93.307.188.04.375.09.567.1a.53.53 0 0 0 .184.03zm5.063-2.286c-.427 0-.816.1-1.203.313-.803.441-1.32 1.13-1.555 2.055-.025.098-.023.1.076.093.295-.02.59-.054.883-.093.49-.066.98-.128 1.462-.247.338-.083.669-.187.97-.378.348-.22.523-.54.48-.977-.03-.315-.177-.54-.466-.65a2.142 2.142 0 0 0-.647-.116zm.017 5.306c-.93 0-1.859-.001-2.788.001-.069 0-.087-.02-.087-.092.003-.578.003-1.155 0-1.733 0-.071.019-.089.085-.088.585.003 1.17 0 1.755.002l1.219.003c.861 0 1.723-.002 2.584-.004.096 0 .096 0 .096.103 0 .575-.001 1.15.001 1.725 0 .066-.016.084-.079.084-.929-.002-1.858-.001-2.786-.001zm-5.608-1.914c.052 0 .105.003.158.003.65 0 1.3.002 1.951-.001.071 0 .088.022.088.094-.003.578-.003 1.156 0 1.734 0 .064-.015.085-.079.085-1.404-.002-2.807-.003-4.211-.003-.45 0-.9 0-1.349.003-.063 0-.085-.011-.085-.086.003-.577.004-1.155 0-1.733 0-.08.023-.094.093-.094.907.002 1.813.002 2.72.001.178 0 .355.009.533-.005l.027.008c.038.022.073-.004.109-.008.014.007.03.01.045.002z"/></defs><g><g transform="translate(-936 -1312)"><use xlink:href="#wwaka"/></g></g></svg>